<svg clip-rule="evenodd" fill-rule="evenodd" stroke-linejoin="round" stroke-miterlimit="1.41421" viewBox="0 0 536 544" xmlns="http://www.w3.org/2000/svg"><g fill="#1a1447"><path d="m439.877 287.158.213-.407.367.191-.212.408z"/><g fill-rule="nonzero"><path d="m204.639 372.075.108-10.736-1.074-.608-2.39.017-1.78-2.834-.531-7.522-3.045-2.302.51-6.221.177-1.405-.639-2.616-.336-4.266.136-4.289-.341-1.347-1.289-.783-1.542-3.163.25-4.532 2.922-8.308-.38-2.258 2.48-7.155 3.35-6.902-.36-2.784 1.317-4.514 3.304-5.251.884-1.099 4.956-5.762.702-1.314-1.193-.73-5.638-1.04-6.061-1.371-4.337-1.949-2.026-1.073-1.362-1.972-6.546-1.663-8.253-2.585-2.842-3.011-1.363-.663-5.804-2.273-3.361-1.805-7.311-5.188-.442-.424-1.858-3.673-5.654-3.685-5.006-3.959-.933-2.07.636-2.257-.523-.684-3.535-2.444-7.733-6.38-1.536-1.802-4.24-4.482-.453-.74 2.011-2.488-.208-.773-3.745-3.643-2.632-2.701-3.72-3.682-.734-3.214-.379-2.793-4.988-4.946-1.749-3.888 1.429-3.071-2.382-2.286-2.47-2.116-1.277-2.16-6.078-4.989-1.027-2.045.311-2.601.772-.724 3.638-1.003 6.9-1.803 3.682-.937 3.205-.92 1.716-1.47 3.203-.96 3.268-.579 3.286-1.128 1.509-1.713 5.654-2.597 3.107-1.254 3.29-.465 1.786-.151 1.766-2.358 2.639-2.267 1.83-.185 4.355-1.701 2.317-.504 3.62-1.952.44-.41 5.33-1.664 2.654-.947 1.487-1.616 3.608-1.618 1.078-.078 1.399-.195 2.802-.566 1.852-.385 3.477-2.285.981.025.7-.603 3.645-.961 5.184-.675 1.823-.513 2.356-1.427 2.253-.721 2.286-.827 7.638.303 3.507-1.929 4.743-.279 4.287.037 4.247.392 1.431-.028 1.041-2.024 1.03-.322 3.789.542 4.679.946 4.178.86 3.594 1.075 2.366.159 4.094-.162 14.986 5.416.904-1.903 1.159-.71 1.839.051 5.721 2.735 5.57 4.507 1.359 2.389 1.752 2.236 2.715 3.906 2.23 4.229.459.345.626-3.082.677-3.258.679-3.274 2.859-4.669.725-3.46 1.137-2.622 3.875-6.149 2.037-.917 5.658-7.812 3.959-1.777 6.762-11.338 2.959-1.517 6.574-8.098 1.868-.163 2.186-.857.558-.77.397-.869 3.966-6.947 1.878-4.67 1.964-.782.737.525 3.55 4.449.73.612.803 1.189 3.154 4.732 1.056 2.108 4.559 1.88 2.795 3.145 4.059 9.053.176 2.352 3.93 2.326 1.848 5.591.625 2.179-.497 2.483.728 2.64 2.764 2.027.736 3.667-.112 4.248-.386 3.797-.317 2.913 1.106.782 1.205.719.502 1.386.116 1.904-.321 5.667-.81 3.866 1.721 1.53 1.283 2.861-1.741 7.201 1.374 3.533-.38 4.851-1.382 4.504 5.401-1.513 3.753-.026 3.767.338 4.714.464 1.359.322 1.429 2.094 4.567.84.954.037 1.121-.227 11.403 2.838 3.278 3.024 1.656.345 4.373 1.738 3.158 1.626 3.451 3.915 4.69 1.946 4.249 2.623 2.437 3.231 1.621 1.717 5.447 4.438 2.336 3.07.45 2.045 2.212 1.645 3.081 2.249.689 1.239.455 1.757 1.113 2.439 2.911 2.491 2.946 3.12.988 1.615 1.735 4.123 2.494 2.649 2.698 2.56.52 2.949-.86 1.592 1.385 2.363 1.398 1.975 4.056 2.892-.16 1.96-.14.961 5.259 3.944 6.03 3.849.499.772-1.592 2.341-8.098 4.057-3.143 2.046-5.767 1.835-4.125.709-2.171 3.046-8.174 3.568-4.605 1.752-2.273.653-6.846 2.039-2.691.939-1.184 1.531-5.88 1.699-5.203.555-4.7.625-2.786-.388-.956 1.735-1.275.341-.707.609-3.281.543-5.205.178-3.263-.3-6.225 2.793-5.568-.339-6.095-2.418-3.049-.125-2.106.718-2.613-.017-5.052-1.502-3.288 1.11-7.339-1.645-.774.772-.163 2.457.721 2.298-.586 2.779.905 2.112 1.104 4.608.61 2.429-1.338 4.238-3.615 2.539 1.493 3.946-.117 2.928-3.195 5.371.721 4.687-.658 4.743-.105 1.31-3.334 4.116-.646 1.716-.44 5.905-4.056 5.742-1.067.822-.237.925-.122 3.348-2.114 8.925-3.059 2.971-2.074 4.076-1.831 3.884-1.141 2.638-5.808 8.656-1.588.221-2.159 4.534-3.007 3.182-2.798 2.589-3.035 1.599-.918 1.589-4.1 5.807-3.487 3.605-2.519.495-.332.344-2.733 3.882-3.345 3.489-2.485 1.254-1.559 1.856-7.788 8.325-2.01 1.261-2.754 2.341-6.461 2.899-2.605-.829-4.96 4.374-2.766 2.608-1.916 1.41-6.586 2.878-4.461 2.691-1.14.847-4.712 2.365-3.768.613-3.306 2.632-3.308 2.673-3.405 3.132-6.349 2.838-2.786-.541-3.726 1.67-1.261 1.219-1.234.284-1.057.153-1.392 1.311-3.641.476-3.332.283-1.192-.629-.252-1.858 1.223-2.042 2.892-4.914 1.591-5.494 1.582-7.953 2.477-5.082.334-.779-.921-2.78-.982-2.563-.023-2.677.716-2.579-2.371-3.552-.483-3.327.795-3.776 1.283-2.528-1.906-4.996.065-5.075.663-5.031-2.856-1.995-1.193-3.514.22-4.753-1.535-3.426.113-4.373.404-3.718-3.005-1.087-2.175-3.484.193-4.009-3.99-2.324-1.163-2.749zm35.332 85.645-.509.651.331.111.003-.831.508-1.25.871.081.44.75.355 2.713-.577.467-.016.355.613-.104-.075-.741.571-.68.731-3.246.583-.451.484.745.018 1.416.477.519 4.933-4.411 1.301-5.175 1.651.647.302 2.977-.472 2.173.859.123.896-1.069 1.566-4.041-.118-8.567.539-1.796.608.592.307 6.649-.142 4.289.243.882.915.025 3.476-2.794 1.552-4.258-.157-.955-.129-8.552.326-.887.285-.141.336.307.337 2.801.198 9.027.103.937.539.781.909.133 1.299-.64 1.059-2.625.183-3.865-1.186-6.508-2.645-6.174-.11-.92.591-.637.777.302 3.282 7.251.015 1.715.988 3.071-.116 2.918-.106 2.796 1.724-.326 2.498-2.845 1.224-3.632.674-.607 2.265.052.62-.713 3.288-.657 1.186.825.162-.875-.494-6.152.415-.585 1.133 2.507.517 4.234 2.068-.958.216-6.528-.446-3.762-1.113-3.164-.714-3.246-2.892-6.586-.834-1.722.067-.881.687.259 1.345 2.535 1.441 2.179.249 1.833 1.677 3.753 1.375 3.326.719 5.889.775 1.183.992-1.176 1.218-3.012-.233-7.602-.114-3.273.659.536.685 2.264.377 4.258-1.084 7.871-.302.866.163.444-1.308 1.092 1.239-1.121 1.306-.582 2.48-2.21.999-.994 2.372-2.943 1.608-3.954.008-4.377.01-4.237.796-.381 1.024.896.116.463.604 4.241-.259 1.395-.232.927.558 1.101.865-.244 1.718-2.167-.462-1.844 1.161-3.768.076-4.663-2.263-5.752-.033-1.581-6.552-15.845.706.452 1.132 2.116 7.761 17.747.446 3.125.341 2.333-.34 3.801 2.088-2.248 1.366-.47.718-1.683.315-5.693-.954-3.207-.996-3.666-.919-2.209.104-.863 3.957 8.493.261 6.644.152.445.702.402 3.269-5.074.591-5.798-1.357-4.082-.701-4.166.746.405 2.634 8.123.019 1.889.668.766 1.585-7.163-.886-8.005-1.079-1.351-.003-1.681-1.699-3.788-1.303-1.222-3.529-7.233-1.561-2.802 1.695.94 2.447 4.94 1.572 1.647 4.704 10.523.177 2.124.543 3.755-.024 1.905.47 1.345 1.232.151.892-1.652.312-7.555-.07-1.824-4.521-10.683.04-.472 2.217 1.766.146 1.285.846 1.023 1.401 3.038 1.374 5.221.422 3.871-1.445 6.729 1.139-.135 2.689-6.289-.878-9.504-1.51-3.37-1.752-3.948-2.063-3.244-1.532-3.301.527-1.275.684.614 7.411 16.265.45 4.624.322.225 1.736-.637.989-2.979.016-2.555-.782-2.264-.164-2.37-.304-2.36-1.537-2.839-.169-1.439-3.689-8.329-1.191-1.466-1.666-3.931 1.59.279 3.985 5.796 1.671 2.263.509 2.824 2.96 6.839 1.073 5.621.791-.414.374-7.059-1.025-4.665-2.65-6.716.08-.47.713.437 3.077 7.029.392 1.852.682 2.774.243 2.833.649.608.6-.588.834-3.218 1.256-3.143 1.727-.258.423-1.881-2.353-5.694-.087-.933.255-.232 1.214.408.416.975.979 3.156.693.494.727-.565.137-2.642-3.919-8.873-1.626-1.554-.79-3.538 1.882 2.385 1.418 1.898 1.128 2.256 1.588 1.605.511.183.34-2.186 1.309-1.846.005-1.484 1.789.477.977-.098.82-2.171-.028-1.278-1.232-.86-.028-1.468-4.169-8.563-1.327-1.966-1.683-3.21-1.47-1.435-3.878-6.638.645-2.056 2.08 1.939 2.125 2.551 4.099 6.987 1.183 2.074 1.619 3.322 1.82.888.115-.761-1.112-2.649-1.778-3.935-2.585-3.962-1.129-2.114-1.41-1.916-.413-1.26-1.227-1.438-.26-1.468 1.421.043 2.467 4.722 1.298 1.254 5.824 12.239.639.69 1.265-.058.178-2.737-1.267-3.224-3.01-6.147-1.808-2.031.08-1.266 1.211.473 3.086 4.32.507.8 2.196 4.513.038.752-.016.472.402 1.204.819-1.065-.781-5.013-1.27-5.081-2.117-4.66-1.32-1.192-2.68-5.223-1.68-1.936-.346-1.54 2.374 1.967 2.342 4.659 1.18 1.064 1.491 2.949 1.745 2.793.881-.13.28-.804-.529-3.303-3.935-6.492-2.055-2.59-2.043-2.602-5.619-5.792.161-.442.903-.323 1.911 1.302 2.198 2.493 2.169 2.502 3.236 4.684.71 1.232 1.079.964 2.658 4.435.029-3.451-2.642-5.893.83-.527 1.152 1.423 2.621 1.051.166-2.923-1.623-3.62-1.435-1.526-2.316-2.988-2.398-2.932-3.265-4.09-3.584-3.801-3.295-2.666-.725.189 1.159 2.54 1.998 1.125-.413 1.727-4.116-1.222-1.649 1.606-3.452 1.743-.451.755 1.12 4.063-.913.212-1.676-1.119 1.92 5.162 1.739 2.015-.66 1.666-2.842-4.339-1.692-.573-1.047 1.554-1.052 3.385.794 2.032 1.524 2.398 1.058 2.001.274.379.017.893-.901.545-1.601-.82-2.391-4.744-.783-.412-2.793 2.512-1.629 1.739-1.504 1.923 1.02 3.162-.766 1.166-2.158-2.467-.771 1.73 1.547 3.446 1.757 3.943-.193.773-.421-.25-2.409-4.698-1.331-1.301-1.277-1.254-.718 1.824 2.839 6.333 1.465 1.215.963 3.356-2.385-2.536-3.074-6.208-2.551-2.545-1.182 3.164 1.282 3.369 1.743 3.95 1.209 3.546-.798.504-.9-.298-.969-.722-2.525-5.63-.168-1.691-.214-.402-.715.204-3.914 4.8-.453 1.819 1.869 5.212-.434-.194-2.656-3.321-1.17-.655-2.253.867-3.854-.105-2.118 2.416-.286 1.569 1.321 2.942 1.316 1.252 2.998 6.055 2.225 3.182-.498.556-1.629-1.344-1.717-3.012-2.325-3.561-2.674-5.535-.923-.438-1.743.804-1.348 1.06-5.372 1.955-2.918 5.596-.112 2.824.666 3.706 1.749 5.371-.371-.138-2.885-5.468-.404-.278.065 2.098-.566 2.913 2.1 4.79 4.831 10.452.114 1.43-1.398-.333-2.208-2.646-1.487-3.31-.499-.786-.031-.914-1.562-2.381-.589-2.775-.738-1.186-.855-.007-.942 2.137-3.446 12.44-.37 1.388-1.348 5.077-1.455 5.054-1.69 4.987-2.465 6.246-.211.93.188 2.941 1.443 3.467 1.634 3.473 1.442 3.03 1.593 3.488 1.354 3.508-.356.92-1.078.088-6.262-13.477-1.39-2.483-.353.095-1.954 3.259-.315 1.244.834 3.811-.79.428-1.399-1.004-.353.461-2.344 5.778-.987 2.174-2.052 3.78-2.316 4.179-2.165 4.29.47 1.782.258 5.701-.59 1.225-.787-.645-1.576-3.495.48-.64-.343-.094.02.791-1.54.983-.898 1.684-7.557 9.153-5.618 5.777-.796 1.698.317.302.407.666-.709.505-1.447-.201-.389.179-3.565 3.115-4.323 4.568-3.675 3.339 8.787-3.547 2.485-2.696 2.376.173 1.59-2.3 1.406-2.342.607.705-.938 2.675-.233 1.369.761.606 1.919-3.127 1.437-7.953.383-.036 1.191 1.978-.487 1.256zm103.096-368.182-.531.596.302.136.043-.799.501-1.257 1.147-.698-.523-1.337-.57 1.673.125.423zm-41.031 96.124 1.266.475 1.633 1.371.688.554.101-.367-.858.009-.441-.835-1.185-.543-1.271-.478-.626-.548-.12.327zm-156.371-12.808-.544-1.138-1.094-.266-1.118-3.513 1.714.69 3.156 2.835-.062-2.549 1.665.746 2.32 2.367 4.94 2.939-.02-.798-1.79-2.195-.07-.904.362-.106 4.248 2.595.107-.928 1.18-.952 3.736 3.372 5.536 1.123-.193-.79-4.751-3.894-8.551-7.566-.326-.348-5.03-3.625-5.123-3.551-5.79-.068-4.497 1.16-1.172.994-3.446 1.225-.21.436-.074 2.963 2.251 4.083 3.084 4.799 2.145 2.035 2.63.682 1.738-.896-1.9-1.912-3.684-3.026-1.275-1.99.779-1.374 2.105 2.579 4.544 3.365.884-.101.564 1.097 1.095.228.624.53.103-.335zm153.182 15.413-.401-.826-.712-.388-.138.432.463.731.835-.078.632.527.154-.339zm10.19-57.27.556 1.141 1.093.231-1.06 1.555-2.718-1.49.744 2.257 2.397 2.313 5.263 4.109 1.984 2.004-.11.853-.833.291-.877-.329-6.552-4.77-3.591-4.393-2.008-4.349-.722-.549-1.369 3.01 2.682 5.518 3.835 3.329 3.787 2.882 7.125 5.546.205 1.539-4.511-3.66-3.461-2.118-1.561-1.085-2.827-2.451-4.132-4.52-2.252-2.408-.773 2.02 1.834 3.278 1.975 2.694 4.468 3.577 4.371 3.445-.69.544-.897-.165-5.471-3.816-.644-.685-4.424-4.307-.457.112-.611 1.685 1.139 2.095 3.674 2.413 1.465 1.222-.593 1.251-4.407-2.645-1.694-1.497-1.808-2.339-.207.736.725 1.77 1.504 2.251-.912 1.414 4.997 2.687 3.45 2.718-.344.691-1.722-.079-1.827.491-5.351-2.397.437 1.904 9.877 6.299-2.204 2.604-3.717-2.046-.076-1.796-.348-.427-4.304-1.784-.733.424.464 1.184 8.194 7.902.605.694-.12.715-1.873-.469-3.234-2.774-2.574-2.771-.504-.09-.669 1.523 1.765 2.318.332 1.827 6.805 4.403 5.02 2.718 7.695 6.373 4.033 4.422 3.555 7.546.754.415.129-2.756-1.524-3.698-1.191-3.554 2.28 1.808 1.671 3.723.039.613.412 3.306-.136 3.283-.539.612.322.125.034-.803 1.2-.732 1.748-2.845.261-.889-.389-1.74 1.041-3.86-2.492-5.605-.096-1.49 1.741.741 2.948 5.063 1.025-.193 1.641-4.35-.554-6.195-.996-2.235-.993-3.132 3.83 3.946.762-4.269-1.703-3.852-.126-1.525 3.316 5.296.322-.256 1.441-4.303-3.593-7.667-1.893-2.013-.154-1.311 3.088 1.123 1.578 1.414-1.389-2.946-1.9-2.683.126-.449.335-.159 1.629.881 1.93 2.11 1.684 2.287.102-2.949-3.376-5.746.086-1.059 2.339 2.407 1.932 2.829.468-7.308-.004-3.308.263-3.287-2.434-5.311-5.564-3.601-.296-.375-.312-.881 1.006-.893 4.365 2.802 1.333.493 1.726-.885.063-7.396.015-1.427-2.468-9.051-2.401-1.378-.558-.873.211-1.069 3.497.691-.648-2.326v-2.265l-1.479-3.676-.746-5.643-.712-5.581-.844.184-2.355 5.583.593 1.974-.681 1.697-1.536.687-3.207-2.42-1.858.632-1.756 2.249-.418 1.351 1.686 3.757 3.122 3.258-.013.392-.822.299-.429-.203-1.839-1.486-1.617-2.31.123 2.619-1.517-.154-.696.988.713 1.392 2.439 1.43.17 1.08-4.764-2.69-2.074-3.156-.458.105-2.994 4.882 5.15 5.348-.696 1.237-4.575-4.066-.715-.169-.442 3.535 4.523 4.352 3.302 2.753.518.784.066.92-.756.078-2.683-1.951-2.095-1.936-4.271-3.6-1.847 1.376.12.468 3.392 3.974-1.04.628-1.632-.921-1.915-2.127-1.767-2.358-1.175 3.089 2.664 3.124 6.025 5.399.319.832-1.21.627-2.054-1.788-1.66-1.695-4.879-4.549-1.307-.415 1.249 3.088 6.509 5.531 2.563 2.095.141.931-1.379-.404-5.235-3.331-.875-.02-.559-1.157-1.115-.164-.567-1.213-.629-.145.112.821 1.147.39zm59.372 66.975.726-.358.675-1.303 1.879-1.983.396-2.209.578-.615-.336-.159-.062.839-1.178.773-1.329 2.998.209.427-1.171.546-.208 1.118-1.88.942-.36 1.096-1.444 1.093 1.274-1.164 1.878-.936zm-21.386-90.223-.584.657.365.111.031-.832 1.927-.945.354-1.091 2.632-.411-.354 1.281-2.256 2.304-2.93 4.124.56 1.243-.507.566.291.169.028-.806.38-.284 3.229-4.463 3.178-1.338.633.341-3.482 3.085-1.574 1.886-1.055 2.391-1.604 1.226.027 7.484.389.799 1.19-.404.785-1.607-.455-1.947 1.911.807 3.293-1.992 3.658-2.338 4.339-5.736-.35-5.258-2.866-6.383-2.154-1.995-1.144.818-1.701 2.286-2.125 1.874-1.823 1.485-.009.853-1.896.924zm6.942 151.523-.336.301 1.274 3.137-1.088-3.488.511-.612-1.414-2.702zm-86.891 33.743-.53.652.343.145.016-.861.904-2.341-.646-.548-.748.403-.147.429zm108.444-107.596-.42.8.331-.071-.002-.762 1.835-2.264-2.177 1.079zm-111.772 70.048.588-.665-.36-.078-.04.808-3.749 3.246.11.446-2.867 1.53-3.025 2.928-1.229 1.42-1.669 1.592.077.254 2.29-.879 3.133-3.223 1.548-.934 1.552-1.876.051-.868 3.604-3.248zm81.684-160.666-.607.588.32.179.109-.837 1.473-1.111 1.824-1.422.149-.431-.697-.257-2.181 1.378-.57 1.483zm30.339 95.787-.584.685.37.124.039-.871 1.001-.522 2.177-3.212.028-.84 1.414-1.091-1.252 1.157-1.682.822-1.651 3.298zm-156.905 91.45-.646-.527-5.156 2.186-.243.403 6.091-2.217.731.457 2.547-1.087.229-.469zm134.973-1.654-1.071-3.135-1.707-5.357-.401-.242-.298.602.762 2.145-.056 2.082 1.998 3.66.842.084 1.032 1.408zm-5.7-8.06-.202-1.735.325 1.776-.571.629-.555 3.706.579 1.29 2.167 1.835.28-.839-.042-1.41-.116-1.092zm1.027-178.262.467-.716-.371-.113.028.874-2.047 1.119-2.028 2.539-1.897.254-.339 2.702.609.672.851-.088 4.552-5.462zm-77.565 148.413.5-.625-.337-.069.012.756-2.493 1.119-3.386 3.459-3.598 3.767-2.224 2.449-2.773 2.571-2.33 2.33-3.706 3.66-4.475 3.48-3.818 2.75-2.124 1.829-1.233 1.18.924-.009 3.924-1.731 2.981-1.5 4.294-3.704 3.705-3.619 3.737-3.888 2.51-1.868 2.96-3.063 3.246-3.449 3.787-5.364zm1.058-4.682.164-.77.018.832-3.303 1.835-1.053.947-3.325 2.658-9.564 9.279-2.699 2.664-3.076 2.98-3.98 4.108-2.445 1.453-2.623 2.015-3.05 2.26-3.366 1.83.015.639 8.053-3.311 1.917-1.779 3.357-2.629 3.287-2.738 4.575-4.159 3.661-3.719 1.595-1.762 4.228-4.506 4.337-4.395 1.619-.959 1.525-1.885zm67.306-33.231-5.879 1.515-1.718 2.344.956.033 5.621-2.542.726-.563.113-.859 1.742 1.149 5.181 1.032 4.905-.355 2.468-2.85 2.335-.585 4.758-3.795 1.68-1.664 3.201-4.106-.335-.847-2.342 1.398-2.454 1.066-3.004.473-2.699.984-3.281.518-3.779.279-3.307.215-2.851.034-3.274.636-.767.138-5.362 2.417-.328.532 3.699-1.108 5.067.382-2.6.664-2.142.722-.344 2.157 3.273.104zm-37.002 123.898-.482.63.321.155.004-.842 2.044.919 3.194-4.141.802-3.703.131-.46.465-8.047-.56-5.997-1.107-4.289-.909-3.199-.675-3.248-.419-.285-2.013 2.515-2.7 3.908-3.066 4.258-5.231 7.343-.363 2.87.252 5.188 1.374 5.542.273 1.388-.15 5.198.548.733 1.78-2.723.614-1.32.332-5.209.035-2.382.115-.447.742-.458.699.503.04 6.498 1.355 2.059.271-.784.113-3.335.573-1.205zm36.529-143.69-.565.666.379.076.005-.807 3.914-1.782 5.361-2.029 4.134-1.028.465-.098.765.435-.1.775-5.371 1.618-1.634-.01-3.643 1.634-2.48 2.501 2.63-.356 2.806.083-.453.716-3.522 1.496-6.865 4.797 4.661.014-.005 1.435-1.991.984-2.578 1.262-.008.674 1.251-.362 6.96-1.287 1.903-.012 3.782-.261 3.294-.422 2.291-.679 3.021-.479 4.218-1.775 3.147-1.567 2.555-2.563-.159-.359-3.892 1.73-3.973 1.674-4.614 1.028-4.176.845-4.223.304-.496-.75.768-1.03.895-.306 3.729-.582 4.169-.904 1.404-.242 2.757-.676 3.918-1.755 5.339-4.706 2.261-3.061 1.513-2.994 1.324-5.157-.92-.868-7.319 3.178-7.132.196-4.862 1.091-5.312 2.26-5.363 2.61-3.815 3.948zm-80.554 226.453.545-.7-.38-.08.017.842-3.645 2.164-4.28 2.666-.965 1.068-9.75 3.915-.302-.851 5.544-2.335 4.765-3.062 1.007-1.076 3.584-1.913 6.194-6.161.717-1.217-.126-.872.439-.767-.313.077-.018.731-2.043 1.139-3.115 2.916-3.751 2.08-1.677.893-6.13 3.616-3.561 2.353-2.073 1.159-3.468 1.709-2.078 1.886-2.052 1.187-2.133 1.87-2.408 2.276-2.001 3.185 1.129.717.117 1.909.176 2.382-2.264 4.827.037 2.151 3.634 2.936 3.034-1.364 1.467-1.477 7.029-3.156 2.681-.26 2.276.041 2.134-2.631.669-2.605 1.087-.792 4.414-7.53-.154-.266-.904.135-.931.089-.322-.211-.027-.469 3.462-3.859.044-.882 1.258-.649.219-.391-.788-.058-.506 1.178-5.754 2.581-2.205 1.635-2.115.832-.917-.144-.47-.623 3.328-1.903 1.695-.871 5.703-3.518 2.893-3.104 2.173-2.481zm53.008-93.132-.497.597.222.261.19-.892 1.401-1.155.932-2.204 1.357-1.851-.317-3.838-.229-1.882-1.203-6.022.834-.891.712.475.458 2.319 1.152 8.933.041 2.836.708.491 2.312-2.342-.419-3.141-.085-4.161.517.041 1.23 1.674-.304 1.879.916.188 3.704-2.061-.006-.857-.689-.612-.599-.706.148-.846.852-.15 1.612 1.655 2.999-5.547.511-1.656-.849-2.473-.575-7.069-1.297-3.58-2.739-6.126-.43-2.372 1.865 2.408 1.23 1.184 4.373 9.74 2.869.169-.281-3.825-1.34-3.459-.102-1.853-2.005-2.805-.496-2.233-1.675-2.276-.422-1.818 2.187 1.436 5.281 11.837.85 3.639.38.249.698-.407.493-1.823-.683-5.154-.821-5.125.654-.564.43.085.753 1.148.289 2.34.935 1.275.379-5.957 1.172-.403 1.216.645.885-.453.661-3.258-.088-.422-.641-.698-.015-.954-3.006-5.855-.815-1.157-1.088-1.552-4.301-4.403-6.282-6.503-.69-1.229.103-1.386.627-.537 2.384 2.283 2.504 2.838 4.098 3.958 2.341 2.36 3.984 5.301.711.579 1.853-.987-.638-.71-.085-1.627-2.162-4.512-2.796-3.888-5.036-5.021.584-1.038.442.04 3.095 3.577 3.184 3.177 2.691 4.302 1.454.449-.911-3.262.616-1.323 2.802-.538.68-2.212-.298-4.798-4.583-8.579-5.486.568-4.045-.767-3.019-1.84-3.223-2.773-2.223-2.463-2.466-2.232-1.291-1.385-2.321-1.583-.203 7.355 1.659 3.689 1.589 3.48.101 1.344-.871.511-.72-.569-.956-1.655-1.944-.924-.506 2.806-1.118 10.421-.511 4.74-.21 6.193.217 1.879 1.907 2.7 3.214 5.255.009.886-.762.514-1.898-1.278-3.502-4.406-.317.216-1.873 5.406-1.319 5.08-.755 2.267-3.459 8.866-.754 1.673.644 7.275.986 2.578.798 3.697.64 5.669.277 6.202.648 1.275zm107.076-126.927-.622-.644-2.676-.862-4.247.193-.933-2.959-.908-.077-3.055 1.365-.917.095-.621-.608.065-.402 1.764-1.512-2.029-.688-1.729.79-4.824 3.034-2.335 1.581-2.047-.453 3.249-2.051 3.276-2.692-.85-.126-6.257 2.878-2.722 3.062-1.696.428.683-1.734 2.374-2.344 2.092-2.499-3.023.675-1.941.171-1.404 2.375-2.354.438-.124-1.259 1.895-2.024 1.155-.598 1.064-2.767-2.155-.311-3.407 2.536-5.83 6.849-1.644 2.34-2.613 3.389-2.7 3.784 1.283 1.43-1.767 2.303-3.559 3.146-.073.854-2.296 1.527 2.232-1.129-.088-.463.917-.265 1.145.912-5.173 5.611 2.663-1.52 2.141.201 1.883-.896.189 1.756-1.264.567-.945-.164-1.695.432-.397.794.858.949 3.25-1.805.066-.826 2.813-1.304 6.82-7.669.745-.215.251.835-10.131 10.632-2.335 2.276 1.785 1.429 1.412-1.143 4.934-3.705 2.222-1.78 2.551-2.126.439-.197.465.034.22.712-.83 1.146-4.581 3.405-4.298 4.4.732.111 1.879-1.406 2.445-1.47 2.609-2.057.414-.16 1.854.708-1.797 2.102-5.028 3.574-.213.414.6.36 4.104-1.235.749-.486 4.183-2.563 7.919-7.367 2.703-1.943.384.036.246.846-.51.793-1.336 1.348-3.204 2.84-3.032 2.994-4.488 3.487-1.151.897 3.304-.524 4.57-2.176.875-.036.382.807-3.4 2.443 3.43.313 1.455-1.788 2.649-1.411 4.176-3.646 4.309-3.713.308-.373 1.258-.269.253.932-2.001 1.943-4.849 4.548-4.973 3.641-.335.671.465.113 4.679-2.311 2.999-2.342 2.446-2.238 2.469-2.748 2.312-.808-.322 1.593-2.834 2.511-2.785 2.589-3.338 2.613-.785 1.724 3.116.189 1.423-.641 3.947-2.598 3.791-1.992.894.195.29 1.015-1.999 1.886-2.184 1.898.314 2.244 3.594 1.282 3.687.974 3.583 1.371 2.947 1.263 6.37-.063 5.678-.462 4.261-1.911 3.106-2.392 8.347-3.642 1.754-.76 1.516-2.553-1.293-.249-6.676-.263-1.859.362-.611-.403.191-.425 2.199-1.002 3.77.2.753-.473-.183-.81-2.486-1.411-1.014-.712-3.476.347-4.935 1.755-.584-.585.043-.419 2.454-1.321 3.672-.979 2.36-.204.444-.111.484-1.154-2.367-2.583-6.803-.526-3.274.919-3.69.674 1.005-1.976 2.691-.887 2.721-.797.598-.678-3.447-1.586-.331-.959.915-1.576-.75-1.133-5.206-.579-4.386 1.803-.915-.09-.265-.887.631-.676 3.439-1.692.281-.741-.857-.423-.945-.129-8.221 3.622-2.293 1.777-.821-.215.234-1.248.404-.262 4.346-2.901 1.67-.921 3.017-1.459.637-1.821-3.689-.598-3.869.44-3.579 1.608-4.462 2.715-2.604.929-.519-.758 2.349-2.729 2.317-1.047 7.826-3.605.812.169zm-122.455 104.274-.057.157 4.343-2.105 3.292-2.639 3.19-3.693.969-2.605-.866-.178-6.518 2.903-.621-1.815 3.837-1.862 5.334-4.601 2.218-3.67.248-.92-.252-.855-.873.039-4.849 2.971-.995.093-1.097-.765 5.442-3.06 2.073-1.92 1.897-2.123-.103-1.235-1.05.699-1.584 1.059-3.548 2.355-1.302.515-1.656.132-5.683 2.13-2.271.315-1.83.448-.684-.514-.066.162 7.191-3.193 1.697.046 4.265-1.795 6.215-5.491-.074-.457.573-.655-.364-.1-.027.817-5.747 3.31-2.715.661-4.582 1.427-1.269-.562 2.216-1.454 1.894-.013 5.595-2.808.058-.305-.465-.099-4.883 1.939-2.828.307-.698-.265.243-.403 4.8-2.13 3.831-1.965 2.066-1.941 4.168-5.132-.131-.871.492-.6-.313-.114-.04.766-2.066 1.135-3.925 2.53-.945-.787.336-.819 5.639-5.1 1.161-3.534.538-1.225 1.341-2.995.036-2.348-.464-.092-4.179 3.658-8.402 3.398.157-.448 1.638-1.745 1.892-.235 3.068-2.223 5.217-4.801.558-1.348-.782-.128-1.778 1.558-2.278 1.73-1.496 1.152-7.911 3.436-.907-.056-.202-.444.285-.878 2.113-.902 5.373-1.855 3.952-4.1-.936-.834-.117-1.075 1.835-2.036 1.76-1.594 1.583-2.366.936-1.97-1.034.147-1.619.987-2.334 1.623-4.79 2.196-1.834.463-6.062.682.376-1.291 1.306-.399.072-.249-4.857-3.374-4.528.246-4.566-.588-1.509.552-2.953 1.534-4.366 5.114-2.672 4.499-.237 1.275.629 2.901-.915 1.686 3.855-.468 4.146-1.098 3.519-.913 3.759-.054 4.727-1.258-.156 1.638-.857.431-7.921 1.475-5.048 1.331-8.434 3.663-1.724 2.095-1.991 5.288.351 1.02.955 1.043.187 2.862-1.398 1.896-1.144 2.117-.142 7.117.441.251 3.539-3.307 5.969-2.676 4.65-1.001.942-.107.907.283.367 1.561-3.679.893-3.56.977-1.615 1.169-3.827 1.988-.758.724-.388 1.289.582 1.319.339 1.35-1.662 9.146 1.032 1.156-.518 4.792-1.476 4.01.367.174 5.525-2.703 3.218-1.716 5.402-1.406 1.51.003 6.233-2.403 1.408.501-1.589 2.021-3.671.862-1.774-.11-14.085 6.531-2.205 3.426 1.162 1.314-.132 2.566-2.592 8.955.061 2.711 1.705.576 4.039-1.813 3.882-1.481 1.038.363.453.394-.872.929-6.153 2.782-4.139 5.744-.799 2.046 2.735 5.083-.137 2.853-1.243 2.088-.203 2.248.515.123 5.42-6.601 3.405-3.951-1.508-.928-.385-.704 1.945-1.306 1.706-1.471 1.631.132 3.574-4.3-.102-.456.591-.651-.363-.116-.052.826-3.539 1.45-3.522 1.203-.494-.79.545-.721 5.171-2.479 2.057-1.191 3.471-3.011-2.956.029-2.735.483-.263-.84.547-.716 5.274-2.21 1.303-.196 6.06-5.398 3.695-5.616-3.051 1.194-3.115 1.206-3.1 1.108-.914-.29-.178-.821 1.973-.985 1.773-.707 2.269-.333 2.685-2.055 1.573-1.009 2.311-2.304-.907.075-3.573 1.355zm132.238-59.322 1.209 2.999-.093.45-.682-.216-4.729-4.232-.449.102-1.066-1.379 1.135 1.204 1.383 3.338.895 2.069.065-.146-.826-.014-1.219-2.012-1.938-2.041-2.849-3.104-4.152-2.214-.957.861-1.678-.78-3.283-1.706-.323.165-.066.46.675 1.232 1.797 2.157 1.497 2.23-1.22.086-5.281-5.987-4.625-2.289-.912.796.816 2.228.033-.077-.81.024-4.621-3.736-2.586-.037-.604-.484-.193.525.783-.003.867 1.672 1.941 2.087 1.967 2.083 1.655 3.69 2.03 3.295-.781.46-2.327-1.606-2.553-3.432-1.757-3.351-8.365-5.425-1.129-.683-2.502-.053-1.477.988 1.261 1.419.3 1.522-4.735-3.883-3.085.054-.054.787 3 1.454 2.903 1.64.864 2.47-2.294 1.486-.137.451.513 2.853-2.482-3.208-3.264.139-.719.497.118.868 1.469 1.404 4.315 9.482.147.457.108.466-.087.46-.638-.185-4.245-9.044-2.504-2.952-.893-.222-3.13 1.565-.443 2.017 2.426 5.729.212 1.327-.887.517-.815-.448-.676-.676-.555-.712-1.333-3.472-2.344-3.34-3.119.315-.529 1.79-1.619-1.7-.38.145-.517 1.737 1.032 2.676.585 3.271-.339.659-.412-.24-2.522-5.674-.83-.963-1.192.605.617 4.205.423 1.355.045 3.662-1.572-2.304.452-1.182-1.089-2.922-.481-2.834-1.209-.178-.351.801 2.856 6.369-.509.696.243 2.825.469 3.327 1.357 2.298.566 2.778.554 3.256.52 3.738.968 3.673.964 3.655-.111.549-3.192-5.259.539 2.917-.012 1.813 4.056 9.315 1.076 1.518.267-.091-.119-1.37.794-1.29.416.217 2.848 5.503 4.976 2.621 3.983-1.506 2.757 1.363 2.653.34.421-.216.564.495.156-.293-.775-.058-2.331-3.133-2.786-5.948-1.806-7.814-.046-1.896 1.702.948.836 3.223.176 2.22 2.61 5.816 2.35 2.99 3.859 3.506 1.557.173-.253-1.402-1.67-1.665-2.571-3.415-1.668-3.445-1.757-4.067-.198-2.241-.529-1.841-.052-8.533.456-.773.603.662.256 7.116.757 4.251 4.895 10.361 6.25 4.289 1.19.781 4.096 2.471.458.092.394-.636-1.076-1.54-3.784-3.561-3.089-3.591-2.103-4.294-2.389-5.749.02-1 1.373.007 2.159 6.332 1.466 2.92.941 1.051 2.77 3.264 2.564 2.793 3.273 2.721.499-.448-2.091-2.522-2.348-2.826-1.802-4.04.126-.455.691.219 2.22 3.091 1.916 3.074 3.556 2.786 4.675.204.919-.198.634-.71-3.407-3.904-2.755-5.715-1.217-1.154-2.389-6.254.763-.341.422.307 5.555 11.559 2.22 2.621 4.6 3.152 5.205.136.326-.295.006-.378-2.72-1.93-.832-.573-2.266-2.56-1.303-3.355 1.658.682 1.918 3.158 3.914 2.879 7.108-.256-.828-2.598-5.095-4.962-1.863-3.457-1.314-1.196-2.801-5.523-1.716-2.254.314-2.863 2.869 3.581.721 1.399 2.851 4.371.756 1.215 2.838 3.822 3.131 3.56 6.318 4.314 1.312-.333 1.735-.794.621.477.101-.315-.774-.017-.677-1.219-3.868-4.137-2.993-3.663-1.475-1.85-1.361-2.677-1.246-1.173-3.964-8.791-.51-2.948-3.686-8.694-.067-.457.108-.395 1.852 1.44.432 2.31 7.476 17.136 2.152 4.285 2.403 2.928 2.606 3.325 4.665 3.228 2.552-2.046-5.511-6.276-3.393-7.566.371-.675.402.211 2.848 5.787 2.839 3.923 4.902 4.01 1.756.717 1.112-.625-4.448-3.533-2.266-3.109-.66-1.716 1.568.428 1.958 3.153 2.988 2.517 2.629.991 3.738.079.615-1.766-3.528-3.505-.814-2.823 2.464 2.172 1.763 2.096 2.8.893 2.845-.116 3.345.024 4.139-2.207-.544-.873-2.077-1.163-3.251-2.797-1.897-2.128-3.895-5.349-1.115-1.524-2.694-5.513.735-1.46 2.409 4.078 1.232 1.13.397.609 1.997 3.918 2.793 2.484 4.95 4.437 1.206.343 2.395-1.072 1.24-.039-.159-.871-3.167-2.103-2.58-2.798-1.696-3.312.164-.528 2.295 2.441.794 1.185 3.085 2.892 2.86 1.605 1.953.14-.014-.854-3.182-2.854-.27-1.753 1.494 1.139 2.208 1.799 2.978 1.392.852.386 1.888-.258 1.772-.136 7.232-3.789-5.082-1.403-4.984-1.823-8.279-5.584-6.506-4.822-1.147-.85-6.483-2.971-.679.574.108.874 2.486 3.994-.083.804-1.717-.819-2.859-5.626-5.473-4.42-1.329-.341.964 3.208 1.253 3.511-.698.606-.82-.225-2.329-2.983-2.97-5.983-8.965-3.586-.883.177-.607-.505-.126.331.79.025zm-244.221-58.642-1.042-2.115-1.064-.96-.167-.853.716-.54 3.726 2.887 4.37 2.922 3.222.395-.321-1.746-2.093-2.563-2.162-2.496-.155-.454.421-.721 1.183.539 3.183 3.539.824.391.894-.317.881-.029-.159.709-.571.767 3.06 2.112.991-.838.959-.04.06-.463-.804-1.134-1.467-2.423.194-.814.927-.152 2.761 3.18 4.325 3.617 1.319.572 3.488 1.236 1.141-.885-8.212-7.821-.861-1.14-.281-1.796.924-.316 4.784 4.539 3.708 3.694 2.35 1.638 2.384 2.311 1.099.754 2.013.13.168-.736-2.152-1.852-5.888-6.8-1.89-2.187-1.261-2.537-1.722-2.709.227-.363 1.238.247 1.399 2.515 2.072 2.606 2.094 2.574 6.201 6.527 5.241 3.303.75-.527-2.825-3.709-3.049-4.194 1.128-.777 2.07 1.903 6.335 7.755 4.792 1.68.042-1.325-1.705-1.633-2.415-2.92-2.615-3.979-1.633-3.408.116-.363 1.819.875 2.897 4.137 1.88 3.406 7.895 7.111 4.735 1.764-.123-1.245-3.987-3.425-3.856-3.526-4.679-5.339-.22-1.318.969-.257.671.636 3.654 4.384 2.91 2.463 2.732 2.637 2.544 2.155 2.408 2.312.207-.708-2.695-6.132.099-.86 1.833.767 1.943 3.42-.076-2.588.443-1.55 1.69.63.404 2.411.955 5.617.04 2.868.247 1.566 3.91 2.434.745-1.064-1.544-3.984-1.384-3.774-.557-.737.14-1.735-.681-1.958.995-.992 1.238 1.994 1.887 4.412.262 1.88.807 2.145 1.872-.033.34-1.537-1.138-.874-.51-2.803-.666-2.756 1.723.618.203 1.331.587 1.792.643.38 2.946-.403-.343-1.774-.735-3.743-1.498-3.526-7.527-16.603-.718-1.771.187-.79.422.248 3.211 6.401 1.294 1.211 3.469 7.55 2.757 8.098 2.568 5.679.649.397-.815-3.224-.507-3.29.9-.331 2.023 6.237 3.246-.051-.598-2.703-.688-3.368-2.656-5.921-1.224-1.118-1.662-3.874.313-.792 1.183.276 6.051 13.052 1.177 2.621 1.031.357-.605-3.45-1.078-3.618 1.608.439 1.602 4.395.361.033.27-2.361-.04-2.391-.52-4.25-.395-4.716-.316-2.358-.895-5.129-.817-3.226-.661-3.673.81-.581.775.446 1.144 3.601.831 4.681.23.917.97 5.124.824 7.567.424 7.599.364.757.965-.27.134-4.244.363-.862.32-.17.406.23.21 2.333 1.121 1.436.815-.378 1.077-.683 1.101 1.99 1.701.359.962-1.09-3.027-7.141-.545-4.182 2.218-2.321.227-2.831-.675-2.342-.042-8.525-1.535-2.828-1.711-3.251-.046-.779-1.429-2.073-2.423-3.522-.847-1.147-2.123-3.155-2.227-3.294-5.937-3.55-.531.852-.052 1.887-.676 2.325 1.815 2.214 2.124 2.561.84 1.697-1.045 1.477-3.604-4.863-.523-.786-2.661-3.794-1.846-1.689-2.878-1.684-3.589-1.242-3.216-1.377-6.948-.909-1.669 2.373-2.588-1.802-.818-.857-3.429-1.09-5.07-1.391-2.299-.672-.899.176-1.291 2.383-4.387-.365-4.259-.498-.243.272.077.414 3.84 2.778 4.349 2.94.895 1.066-.048.437-.733.425-.85-.323-3.742-2.985-5.143-3.436-5.52-1.997-2.084.815-.685 1.813 2.747 1.953 3.562 2.374 2.334 1.65 1.562 1.061 5.929 3.981 3.847 2.807 1.655 1.675 2.372 1.599 3.507 5.031-.311.738-.462.012-1.13-.856-3.474-3.902-3.091-2.928-6.949-5.021-3.782-2.052-7.122-4.816-1.639-.962-4.969-1.723-4.224-.747-3.644.672-2.074 2.396-3.682.131-.114 1.301 3.886 2.731-1.034.704-1.718-.806-3.822-1.947-3.787-1.101-2.019.776-.866 2.194-3.449 1.282 4.046 2.541 6.323 5.042.132 1.629-.456-.147-9.256-6.69-3.571-1.441-1.282.489-1.035-1.467-1.081.56 2.202.717 6.818 3.959.286 2.047-1.234-.656-3.639-2.262-5.746-2.359-.7 1.75 1.416 1.375 2.399 1.557 12.476 8.646 5.437 4.941 2.342 3.269-1.054.424-2.712-2.635-11.955-9.453-3.006-2.277-5.139-2.626-5.333-2.07-2.607-.162-3.226 1.498-.455 2.219 3.042 2.245 4.995 2.799.68.644.322 1.38-.929-.368-7.829-4.51-3.531-1.422-.387.086.089.858 4.682 3.249 7.717 6.377 1.176 2.036-.203.765-2.341-2.366-2.759-1.849-.978-1.03-12.112-7.384-1.411-.152-.707.581 5.124 4.171 6.816 5.22-.742 1.392-2.094-1.967-5.333-3.992-5.147-3.449-.891-.332-2.023.813 2.389 3.491 1.717.858 4.663 3.296.664.663 2.833 2.541 3.946 3.437 4.237 3.81 5.012 3.626 3.339 2.493 1.97.051.086-1.211-2.849-3.156-2.066-3.166-.038-.935 2.163 1.553 2.567 2.808 2.863 2.994 3.544 1.425.869.003.643.512.103-.356zm69.072 104.741-.303-.362-3.734.235-2.235.588-3.166-1.076.824-1.464-.992.015-3.776-.248-4.233.617-5.101 1.112-1.577-.027-3.76 1.377-1.586.079-4.547 1.42-3.22.813-2.668 1.064-3.251.681-1.666.737-1.442 2.221.574.002 7.862-3.311 2.467-.209 2.222-.677 1.371.639-.475.733-4.578 1.207-9.148 4.114-.95 1.109-4.514 7.288-2.821 7.43.773 3.011-2.103 4.685.051.895.762-.106 5.235-4.859 1.811-.416.415.927-1.208 1.392-1.457 1.222-6.553 6.769.996-.002 2.023-1.214 4.512-4.215 1.864-1.469 3.016-2.297 3.366-2.524 5.211-2.34 3.965-1.556 5.889-1.625.444.874-9.324 4.646-1.875.288-2.004 1.07-4.845 2.976-1.377 1.288-4.379 3.622-4.008 4.122-.996 4.186-.555 5.2.621.484 1.96-4.266 4.327-4.562 1.744-.772 2.35-1.581 1.534-1.117 3.464-1.724 5.95-3.74 2.702-2.012 2.126-1.11 2.304-1.786 1.323.308.513.457-4.049 2.312-2.146 1.837-2.958 1.57-3.944 2.635-4.355 2.904-2.992 1.515-3.037 2.29-2.678 2.657-3.403 7.125.207 2.557.46.314 2.962-3.621 2.424-2.28.747-.555.807.185.147.881-.23.39-3.554 3.829-3.378 6.232 2.016 1.614 1.3-1.397 4.283-5.652 4.356-4.383 4.916-3.761 1.274-1.268 3.958-1.943 3.407-1.735 3.873-1.558 2.807-1.773 1.169-.806 9.195-4.087.481.027-.865 1.976-1.291.63-8.993 4.159-1.158 1.101-2.116.79-3.19.969-1.067 1.255-6.119 3.009-2.257 1.985-1.563 1.061-4.153 3.909-3.065 3.649-3.428 5.154-1.073 3.153-.152 4.741.68.505 1.571-2.953 1.809-2.808 1.787-2.235 1.433-1.23 1.729-1.63 1.331-1.344.872-.047.398.848-3 2.979-2.924 3.688-2.022 3.233-.404 1.257 1.221.882.884 1.968-.375 3.072 1.036.732 5.682-4.868.963-1.056 4.116-3.248 1.411-1.389 1.179-.673 3.461-2.476 4.647-3.319 4.389-2.822 7.809-3.644.911.217-2.461 2.292-2.074 1.19-3.388 1.774-3.984 2.603-2.719 1.918-3.744 2.923-4.254 3.041-4.382 3.655-2.578 2.096-4.915 5.833-1.581 3.065.086 2.585 4.074 1.182 1.535 3.142-.358 2.231.196 1.887 1.23 1.121 1.088-.948 2.413.527.519 1.525-.693 4.073-.692 6.151 2.363 1.523.089 1.494-.227 1.888-.408 1.864.422.752.389.012 3.869-4.195 1.552-1.81 3.719-3.689 1.913-1.411 6.124-5.22 5.263-4.05 2.603-2.073 3.089-2.224 3.311-1.911 1.068-.95 2.383-1.559 1.519-1.127 1.082.951-2.805 2.324-2.154 1.871-2.462 1.462-1.579 1.057-2.733 1.912-3.039 2.264-2.657 1.99-2.622 2.019-2.213 1.791-2.104 1.926-4.535 4.198-4.515 4.902-1.861 2.172-.808 1.657.629.81 1.707.265.839 2.018-1.907 5.442-.36 5.019.963 2.15 1.508 1.118 1.089 3.243-1.293 1.877-1.291 2.473 1.27-.039 2.827-2.555 2.793-2.571 3.649-2.217.597-.444 1.544-1.53 3.897-1.769 2.413-1.513 2.352-1.594 5.166-2.544 1.605-1.004 2.698-1.966 2.594-2.085 2.916-2.443.311-.351.66-1.35-1.016-1.003.405-1.25 2.36-2.341 2.098-2.557-2.452.696-1.285 1.342-3.844 2.059-2.322 1.415-2.44 1.473-2.632 1.157-3.387 1.788-3.993 3.366-1.963 1.322-.907.01 6.462-6.664 4.644-2.2 4.608-2.075 5.267-3.43 2.598-2.266 3.807-4.21 2.86-3.114.753-1.686-.791-.06-2.758 2.591-2.802 2.518-1.798.321-2.863 1.726-3.869 1.657-1.97-.403 3.424-2.515.468-.054.477-.051 1.324-1.082 1.522-.081 2.241-1.053 2.172-1.858 2.41-2.293 2.549-4.519-.748-.216-3.911 1.8-1.304.03.823-1.74 3.742-2.026 2.88-3.653 2.961-5.672.292-.903-.574-.562-1.229.684-2.582 3.359-2.631 2.9-3.726 1.985-2.441 1.71-1.675-.778 2.893-1.743 1.551-1.064 2.703-1.856 2.21-2.595 4.748-5.978 2.726-5.044-.037-.754-.847.211-2.721 3.325-2.756 2.602-3.255 2.764-2.878 1.684-.901-.025.062-.78 5.404-5.363 9.613-11.731.105-.856-2.374.874-2.995 3.085-4.469 2.372-2.3 1.674-2.776.598-.891.35-15.243 6.86-2.702 2.041-2.512 2.189-1.429.302.195-1.443 2.005-2.169 2.863-1.695 3.603-2.302 9.732-4.376 2.205-.167 3.268-1.959-.147-.471-4.099-3.174-3.133 1.339-3.147.893-.561-.684.447-.712 3.459-1.661 2.656-1.105 2.313-.374 1.818-4.381-.732-.689-.938.009-.341-1.084 2.369-1.067.945-2.824-1.235-.041-2.156 1.845-2.275 1.731-2.862 1.432-.445-.726.406-.793 4.589-3.405 4.243-4.415-.306-.881-.889-.152-3.924 2.645-3.682 1.929-1.051 1.124-6.145 2.509.714-.968 2.674-1.947 2.128-1.07 2.518-1.347.957-1.123 5.475-4.431-1.085-.856-1.896 1.032-3.607 2.297-5.179 2.52-1.362.438-.692-.452 1.446-1.857 8.074-3.854 1.321-1.352 3.105-1.549 2.245-4.794-2.136-1.339-1.346.507-1.5.13 3.473-3.729.545-2.46.587-3.279-.779-.172-3.041 1.42-3.547 1.461-4.053 1.332-3.679.748-.515-.776.866-.953 1.565-.027 11.582-5.004 2.849-2.849-.976-.949-2.97 1.667-3.803 1.796-4.122 1.099-.706-.511.276-.823 2.085-.586.675-.687 1.333-.064 2.741-1.234 2.785-2.443.178-.456-.414-1.872.415-2.272-4.788-.147-.132-1.19 3.731-1.104 1.079-3.157-.442-1.288-.889-.379-5.238 2.354-3.084 1.307-.887-.164-.228-.423.132-.857 1.615-1.424-5.421 1.825-2.116.074-3.341 1.493-1.936-.927 3.918-1.866 1.852-.122 11.153-5.281-2.256.187-1.787-1.105 7.822-3.444.233-.778-3.232.278-6.188 2.182-1.59-.051-4.552 1.203-1.357.419-3.251.639-1.841.457-2.436.15-3.927 1.627-3.943 1.488-.583-.843.258-.4 7.021-2.731 1.37-.344 2.278-.658 3.7-.841 2.967-.432 5.113-2.293.701.477 2.802-1.45zm-20.535-92.973-.04.143 1.648-.976.244-.728-1.284-.421-2.353.245-9.402 1.29-1.936.117-3.049 1.365-3.08 1.343-3.464 1.645-2.619 2.041-2.897 1.519-1.073 1.069-.987.083-3.633 2.93-4.084 2.455-3.519 3.016-.455-.827 3.347-3.295 4.37-2.858 1.151-.831 2.727-1.898 2.123-1.819 5.992-3.115 2.903-1.253 7.017-3.103.274-.614-5.205.455-3.668.943-4.171 1.815-1.675-.004-3.953 1.77-4.867 2.951-.675-.277.061-.472.668-1.192 9.21-4.236 3.056-1.396.584-.736-4.16.579-3.997 2.389-1.62-.076-5.552 2.497-3.545 2.232-.508-.154.135-1.302 2.608-1.427 12.279-5.419 2.317-.49 2.737-.779.263-.599-8.109.091-3.256.678-3.255.61-3.247.725-1.845.005-6.441 1.958-2.237.818-5.218 2.434-3.567 2.315-2.708 1.93-3.232 2-1.504 1.169-8.543 8.293-4.009 4.073-2.806 2.548-2.792 2.575-3.01 2.32-3.033 2.281-1.407 1.519-3.362 1.524-.238.399-.003.417.67.687 3.633-.341 4.359-1.958 2.289-1.862.766.238.033.455-.737 1.199-2.598 2.056-5.21 1.966 2.308 1.587 4.149-.934 2.657-2.013 3.789-2.857 7.837-8.291 1.127-.847.898-.048.069.759-2.73 3.264-4.546 4.193-5.537 5.438-4.956 2.575-.246.381 1.878 3.178-.915 1.596.783.18 2.044-1.179 2.975-2.188 2.554-2.971 1.994-1.217 2.53-2.972 3.382-3.347 3.555-3.144 3.339-3.381 5.081-3.504.696-.397 1.46-1.435 7.84-3.571.459.09-.148.649-5.393 2.63-2.793 2.205-2.064 1.17-3.032 2.285-3.136 2.917-2.281 1.662-3.666 4.284-2.316 1.805-5.875 6.226-4.573 3.395-.839.678-.438 1.203.232.342 2.951-.429 2.136-1.482 1.616-.995 4.375-3.634 1.31.644-.59.72-4.111 3.251-2.986 2.3-1.737.806-.041 1.357 5.529 3.38 1.141 2.193 2.139 1.054-.699 1.221.175.28 4.873.201 2.126-.788 2.821-.446 2.621-1.169 6.654-3.693 1.731-.789.471.043.353.226.12.835-4.938 3.662-8.639 3.593-1.99.808 1.798.446 4.11-.81 14.169-6.045.466.113-2.32 1.505-3.003 1.501-2.624 1.192-3.07 1.351-2.62 1.197-3.012 1.894 2.883.175 2.827.038-.411 1.191-2.216.117.504 1.089 3.66.85 2.446-.121 7.358-3.391 2.65-1.75 2.965-1.56 2.683-1.959 3.298-2.709 3.432-2.57 2.58-2.091 4.12-2.196.369-.399.637-.369.26.811-2.746 1.843-2.541 2.155-4.161 3.151-2.135 1.883-4.344 3.677-2.553 1.326-13.067 5.995-.262.713 3.7.614 8.693-3.897 2.268-1.717 2.894-1.689 1.787-1.533 4.932-3.723 1.428-1.233 3.372-2.633 3.678-3.002 4.377-2.79.812.322-1.122.945-1.214.733-3.438 3.289-4.147 3.175-1.347 1.319-3.731 2.954-3.802 2.861-3.933 2.664-3.953 1.96-.919.962-1.224.717-1.717.861-.598.823 3.125.068 13.256-5.906 2.24-1.92 4.76-3.037.831.04-.847 1.857-2.773 1.243-.994 1.185-1.586 1.051-2.613 1.986-4.298 2.201-4.195 2.222.447.993 5.369.152 4.083-1.833 3.119-2.296.835.143-1.574 2.062-4.79 2.525-.844 3.857 1.46.452 1.902-1.354 5.635-2.664.792.326-1.457 1.707-1.363.506-1.918 1.378-1.12.935.582.092 4.685-1.893 1.836-1.818 1.547-1.079 2.087-1.889 1.895-2.149 3.274-3.446 3.425-3.973.919-.43 1.645.703-.883 1.587-2.034 1.326-1.974 2.724-4.18 4.58-4.352 4.434-2.769 1.797.188.296 2.344.097 10.024-4.526 1.153-1.224 3.235-1.67 1.602-1.019 2.638-2.046 2.527-2.169 1.344-1.341 2.208-.722-1.522 2.194-3.669 3.011-4.099 3.225-4.488 2.699-1.223.852 1.194.714 2.433-.452 2.598-.5 1.566-1.374 3.799-2.832 3.767-2.884 3.942-3.404 1.107-.893 3.992-3.352 3.187-2.855 2.605-2.048 2.409-2.286 2.093-1.917 2.444-2.242 1.242-.674.566.499-1.847 1.975-4.14 3.918-3.226 2.784-3.44 3.289-3.289 2.72-3.663 3.034-4.765 3.94-4.844 4.225-5.866 2.707-.416.695 2.253.589 3.204-.51 4.958-2.016 4.662-2.444 4.351-2.905.687-.647 2.455-2.237 2.072-1.93 2.2-2.516 3.333-3.391 3.028-3.017 1.715-1.629 3.412-3.308 3.777-3.838 4.132-2.947 5.885-4.814.659-.67 3.256-3.469.726-1.717-3.206.654-3.663.953-3.504 2.407-2.524 2.149-.766-.245-.119-.45.393-.817 1.048-.956.161-.874 1.486-1.109-1.303 1.182-2.867 1.194-1.057 1.298-3.905 2.75-1.192.774-2.668 1.97-3.033 2.302-.388.03-.495-.839 1.839-2.138 4.232-3.055 5.846-4.061 2.617-2.008 1.215-.735 4.423-2.72 2.682-1.203 3.493-.946-.105-.34-6.844-3.312-2.321-.006-4.751 1.925-2.008-.733.743-1.066 3.241-1.684 2.031-.872-.145-1.901-.094-1.721-5.148-4.836-.611-1.039-1.354-2.999-2.47-2.942-2.219-1.804-2.858-1.698-4.243-1.064-2.771-.063-3.735.749-3.126 1.155-7.011 3.095-3.587 2.32-1.993 1.283-2.048 1.209-3.14 2.148-1.116.875-3.609 2.265-.709-.322.003-.465.47-.826 3.362-2.647 1.189-.775 1.976-1.312 3.135-2.161 1.632-.963 5.303-3.157 9.214-4.047.907-.273 3.064-.863-1.484-.737-3.79.163-4.729.321-3.149 1.144-7.417 3.363-5.248 2.339-.92.028 1.449-1.081 2.545-1.323 3.298-2.38 6.251-2.646 1.447.025 2.761-1.021 1.754-.265-.685-1.102-6.159.092-.698-.52zm-104.146 11.973 1.136-1.291 2.517-2.184 2.612-2.058 2.514-2.164 3.335-2.664 4.276-2.167.872-.396.828-.479 1.668-1.537 1.929.636-2.753 2.61-5.879 2.895-6.499 5.793-2.203 1.792-2.599 2.058-1.944 1.361-2.274 1.013-2.595.625 2.018 2.414.531.178 1.719-.666 5.485-2.635 1.052-1.193.872-.22.366.229.062.862-3.934 2.446-.996 1.067-3.27 1.921 2.174.883 2.426-1.078 2.668-.874.435.724-.4.765-3.773 1.859.026 1.361 2.151 1.702 3.358-.61-.052 1.258-4.773 2.357-.414.889 2.83 3.203 1.449.247 3.849-1.543 2.245-1.91 2.516-2.146 7.744-6.99 4.578-4.831 2.437-2.27 3.85-3.526 3.349-2.657 1.629-.965 1.534-1.11 2.726-1.901 2.739-1.31 1.304-1.375 7.756-3.472 1.347-.445 4.132-1.104 1.852-.406 2.805-.543 2.818-.416 1.197-.747-.876-.539-6.615-.852-3.325-.156-2.73.181-3.698-1.74-3.619-.251-5.221-.095-6.448 1.543-2.172 1.016-2.713.824-.936-.228-.333-.313.299-.733 4.309-2.093.478-.638-.867-.41-4.689.208-2.801.417-3.154 1.142-.665.127-1.619-.458 1.98-2.022-10.896-1.026-6.349-.121-2.024.895-2.209.562-.415-2.249-1.777-.344-2.372 1.689-2.944 1.611-1.37 1.447-7.067 3.515-.645 1.727 1.299.501 4.879-3.05 2.203-1.644.811.229.183.964-1.766 2.03-3.523 1.777-3.352 2.179-1.491.303-.342.516.005 1.32 1.225.51 5.527-1.394.768.204-.625.693-3.898 1.799-.583 1.007 3.361 1.729 2.18-.822.821.275-1.346 1.192-1.436 1.128.041 1.938.758.224 6.615-3.714 2.932-1.541.461.1-.043.733-6.761 5.206-3.017 1.473-.551.652 1.33 1.355 1.852-.123 2-.039 3.608-1.611zm179.779 5.22-1.789-1.625-4.288-2.987-3.024-1.41-4.462-1.742-6.008-1.464-1.868-.406-5.68-.659-6.185-.358-10.249-.705-1.11.498-.608 1.24-.121 1.053 2.137 5.222 1.188 1.222 2.904-.482.39.192.193.827-1.161 1.532 5.735 3.99 8.115-2.981.573.842-6.581 3.451-2.446.304-.911.866 1.866 1.367 6.771-.675 2.58-.96 3.013-.69 1.116-1.159 6.185-2.418.418.796-.26.396-7.672 3.874-4.03 1.516-3.292.461-1.421-.057-1.324.504-.26.381.106.345 3.364 1.754 3.555.815 1.773.178.867 2.143.309.931 3.341 2.02 4.443.184 3.398-1.168 1.764.486.71 1.393.785 1.309 2.74 1.01 3.766-.476 4.312-1.814 4.085-1.963 2.856-2.746-.365-.954-4.147-2.283-4.213-.77-1.9-.053-4.699.708-1.296.182-.169-1.228 5.607-1.329 8.417 1.436.758-.119-1.364-1.807-1.114-1.986-2.346-1.954-2.208-.755-4.128-.854.485-1.596zm37.505-41.509 6.978-3.131 1.941-.105 3.957-1.405 1.154.176.792.458-3.537 1.04-5.206 2.124-2.298.275-5.022 3.497-2.133 3.36-.175.45.233.719.461.014 1.853-1.44 2.201-.749.11 1.207-2.298 1.509-3.417 4.817.371.203 5.028-2.647 1.311-.148 7.239-2.907 6.566-.651 3.326-.3 4.231-1.942 3.279-3.648 1.649-4.603-1.287-2.68-1.793-.396-.717-2.036 2.065-5.27-.176-5.633-2.266-.287-1.595-2.058.176-1.432-2.116.804-3.557 3.154-4.275 2.139-2.211.924-8.204 3.945.019.624 6.107-2.32 1.419.063 3.634-.973-.189 1.4-3.699.833-3.914 1.563-2.384.487-2.902 2.429-.358 1.67 2.674-.816 3.136-1.088.942.193.363.3-.279.729-6.408 3.101-3.363 5.184 1.293.592zm.642-27.855 1.334-2.336 2.852-2.505 1.429-.34-.443 1.55-1.488 1.114-.998 2.028 1.837-.31.698.476-.58 1.16-2.439 2.248-1.869 3.298-.514.794-.092 1.883 1.169-.104 2.364-2.321 2.517-2.771 2.74-1.054.475.055-.376.801-2.742 2.602-3.355 3.356-1.579 2.322.868.532 1.258-.524 5.887-2.995 5.593-2.328 1.577-1.024 3.742-2.91 1.996-2.676 1.946-3.227.573-4.317-.738-1.428-3.053-.774-.602-1.761.541-7.104-2.64-4.904-1.688.725-3.63 4.433-2.314 1.661-2.311 1.641-1.253.682-5.813 5.613-1.451 3.475.033 4.739zm20.973 95.714.7-3.057 2.261.548.107-.738-2.452-1.423-2.413-1.432-1.118.069-1.252 1.374-1.595-.575.493-.786.064-1.457-3.751-1.55-3.386-1.72-4.129-1.166-3.926-1.298-7.756-.69-4.684-.229-.16.433 3.449 3.876-.602 1.229-1.608-1.694-1.894-1.529-3.972-1.434-5.352 2.888.875 2.139 7.172 6.914.274.386 2.574 2.02 3.454 1.036 3.784-.404 1.415-1.36 2.314.808 5.696 2.37.895-.212.241-.384-.1-.41-1.522-1.087-4.399-2.825-2.55-2.144-.304-.358-.015-.882.76-.363 2.119 1.916 6.953 4.103 1.327.344 3.779-.708.02-.868-1.908-2.089-1.946-2.66.303-.787.853-.035 4.581 4.712.586.347 2.557.646zm-84.079 104.274 3.109 1.357 2.875-.164 2.537-4.814-.138-2.994-1.151-5.102-.419-2.328-.498-3.741-.92-.328-2.022 2.424-4.953 5.784-1.851 2.122-2.241 2.441-7.461 9.22-2.733 3.284-2.041 4.254.21.484 1.622.342 4.068-1.788 3.164-2.762.265-1.904 2.021-.025.91-.987 4.073-3.224zm74.524-124.278-3.897-2.871-6.629-.347-2.011 1.555-2.452-1.226-.879-1.035-2.971.046-7.687 3.619-1.952 1.897-.063 2.449.461.121 3.748-.438 4.252.307 3.297.302 3.278.414 3.585.221 5.249 1.481 4.759 2.086.902.306 6.506 2.961 3.03 1.231.449-.006.397-.182.079-.415-2.318-2.999-2.602-3.34-5.236-1.538-.877-2.188zm104.634 18.212-4.235-.438-4.665.769-6.196 2.53-2.917 1.627-3.101 2.139-.233.405.449.658 2.724.747 4.067-1.647 3.954-1.517.392.881-.61.734-4.264 2.158-.525.751.653.835 3.212-.243 2.29-.631.786.43-.471 1.119-1.034.067-.463.092-.182 1.532 2.375 1.09 3.203-.061 5.789-2.598 2.444-.065 2.946-1.651-.18-.87-3.734-3.039-2.604-1.036-.613-2.385 1.089-1.476zm-146.106-20.538.437-1.325-.66-1.083-.072-3.903-.41-2.808-1.304-3.379-4.952-4.134-3.017 1.109-3.513-1.41-5.835-1.427-1.749 1.555-1.982-.122-2.284-.666-5.891-.863-3.509 1.942-.033.289.458.106 10.303 1.716.938.115 4.922 1.829.455.142 5.599 2.598 4.77 3.844.363.307 6.15 5.261zm-210.77-40.398 5.132.793 5.098 1.144.948-.025 8.948 1.016 1.875.171 4.75.015.788-.436-.03-.924-.832-1.69-2.928-4.179-1.912-1.686-2.57-.874-2.82-.055-3.014 1.612 1.065 1.828-.611.655-3.726-.221-2.825.395-5.545 1.293-.898.304-.779.513zm218.415 29.291-.528-2.763-.78-3.204-2.045-3.174-1.012-1.602-3.25-4.038-6.274-5.088-6.907-4.178-6.505-3.912-.156.694.415.839 6.136 5.905 2.202 1.813 7.495 6.531 4.328 3.624 3.985 4.03 2.596 4.506zm-4.887-4.598-2.166-2.006-8.833-7.196-2.157-1.864-4.71-4.673-5.078-4.319-.866 2.218 1.425 2.642 8.392 5.807 1.665.93 4.329 2.964 4.18 3.88 3.536 3.143 2.566 5.163.428.337.152-2.338-.622-1.739zm131.302 29.526-1.123.502-3.96 1.683-3.937 2.628-1.647.967-6.614 2.747-3.352 1.079 6.169.925 4.314-1.862 2.046-1.203 3.998-2.547 7.375-3.397.428-.212.275-.374-.458-.611zm-130.736-12.327.826 2.309 1.332.7.307.864-.897 1.602 1.775 1.4 1.898-1.979.591-2.323 1.386-4.506 1.115-1.509.261-1.992-2.723.208-1.705 1.465-.835-.392-.814-.451zm22.784 72.148.643 1.096 2.893 2.455 2.98 3.032 4.55 4.808 2.898 3.709 1.717 2.237 1.863 2.033-1.858-4.271-.892-1.096-2.744-3.837-3.186-4.117-3.451-3.885-2.292-2.374-2.702-2.613zm13.985-5.904-2.483-6.032-.575-2.291-.354-1.855-.724-3.707-.377-2.812-1.418-3.427-.421-.109.186 2.345 1.137 7.958 1.411 4.038.418 1.841.434 1.83 2.391 5.197.61.472zm-123.886 168.774 8.152-3.783 1.488-1.933-2.649-.407-7.398 3.324-3.375 2.617-1.185 1.085 1.701-.305 1.808-.513zm32.64-190.973-2.774 3.247-2.912 3.079-2.731 2.593-3.246 2.716-3.416 2.996 4.603-1.939 1.363-1.34 3.326-2.637 5.214-4.793 1.356-2.946zm88.367-159.833-3.221 1.881-5.852 6.807-.467 1.331.398.151 5.421-4.463 3.921-4.683zm105.278 130.992-4.756.269-3.556 1.844-4.158 2.43.581.067 8.138-3.294zm-338.227-52.405-3.452 1.326-2.183 1.757-3.833 1.816-1.054.964.997.099 8.97-4.212.996-.884zm109.854 280.168-.765-.144-4.348 1.977-1.203.751-2.382 2.272.284.182 4.566-2.351 2.335-1.595zm.677-183.71-2.262.074-4.556.848-.245.378.682.479 6.467-.2.368-.735zm46.843-46.383 2.503-.651-2.507-.509-3.54 1.561-2.073.35-1.2 1.942zm-54.275 227.805.891.045 4.335-1.841 4.245-2.043.497-.657-.462-.059-2.207.784-6.878 3.041zm242.216-200.952 4.871-2.286-2.033-.751-4.241 2.145zm-5.001-6.111-1.608.301.711 1.048 5.997-2.555.161-.456-4.059.496zm-351.206-67.394 3.48-1.575 3.142-1.957-.481-.086-7.676 3.545.528 1.135zm1.965-4.408-1.683-.63-4.061 2.876.399.86 1.23-.196 2.216-1.651zm106.943 96.426.71-2.295-.681-.329-2.539 1.025-.675 1.734zm253.486-18.786-3.269 1.751.356.32 3.796-.848.138-.422-.22-.412zm-369.307-77.267.776.478.426.167 1.057-.496-.091-1.699-2.555-.438zm158.6 93.252 3.094-1.25.627-1.47-.846-.901zm205.187-20.364-4.645 1.729-.007.291 3.507-1.106zm-121.104-158.559-1.698 2.799.525.394 2.036-2.452zm-32.885 171.757-1.784.431-1.795 2.113.637.226 1.208-.656zm43.518 24.705-.59-1.676-1.168-.103-.128 1.177zm-135.089 178.362.876.142 2.222-1.649-2.587.771zm74.062-299.963-.27-1.214-.738-.214-.523.644.618 1.033zm-48.246 106.373.918.019 1.718-.818.232-.6-.462-.069zm-131.043-88.405 1.962-.939zm357.628 74.105-.879.023-.208.548.421.009zm-148.751-54.409.01.886.408.203-.013-.87zm-6.025-1.441-.064.464.148.419.381.232.059-.687zm31.203 69.35.044-.467-.533-.677.002.727zm-75.545-76.008-.46.214-.234.405.88.005.288-.303zm-10.035 76.705.341-.23.096-.328-.388-.121-.603.52zm-8.303.537.697-.573-.757-.036-.366.546zm-9.34 9.882-.25.39.452.111.757-.444-.091-.24zm-21.922.582-.831.07-.186.379.723.072zm-1.18 175.275-1.106.483.407.12zm131.261-190.39-.289-.099.095.339zm3.62 18.329.295.084-.102-.325zm-38.879-80.05.076-.351-.289-.23-.07.361zm40.796 91.048.153-.345-.337-.187-.142.344zm-9.191-14.002-.325-.081.094.328zm-56.354-111.137.109-.37-.431.159zm8.118 124.287.352.017-.084-.247zm165.776-47.002-.342-.103.143.427zm-225.565-56.344.047-.303-.267.082zm59.02 140.87.197-.401-.407-.148-.195.374zm-46.634-56.999.224-.371-.382-.114-.204.328zm86.64-189.228.18-.388-.392-.151-.153.36zm-102.861 188.183.169-.3-.48.153zm-12.992 4.424.37.016-.077-.254zm138.15-72.684-.076.3.316-.097zm-1.236 6.06-.379-.017.095.267zm-4.803-2.816.174-.318-.505.169zm-244.044-26.568-.407-.009.09.271zm120.59 268.886-.331-.039.081.259zm-9.712 9.433-.08.27.289-.085z"/><path d="m257.439 225.174.283.85-.585.702-1.647.931-2.467 1.37-3.691 2.897-3.535 2.275-.892-.284.364-1.317 1.582-1.734.725-.591 5.072-3.383 3.874-1.742z"/><path d="m192.746 233.075 1.861-2.079 3.649-3.048 3.389-3.319 1.735-.423.31.938-.823 1.104-.917 1.098-1.486 1.195-1.001 1.02-1.114.9-1.02 1.001-1.636.989-1.209.772-1.114.645z"/><path d="m233.122 189.243-5.376 1.49-4.552 1.224 5.045-2.419 1.36.098 2.825-.775.652.522z"/><path d="m237.033 240.728.446.788-2.142 2.416-1.71.39-.497-.93 1.786-2.048z"/><path d="m160.725 238.381-1.967.694-.384 1.177 3.073-1.336z"/><path d="m245.958 244.966-2.04 3.017.726.199 1.861-2.546z"/><path d="m172.368 205.989-1.365.765.497 1.389.843-.195.559-.735z"/><path d="m177.42 225.472-.921.003-.741 1.623 1.181-.361z"/><path d="m167.577 225.31-.78.968.908.617.544-1.112z"/><path d="m153.392 216.972-.744 1.522.645.755.834-.791z"/><path d="m240.987 212.649-.804.055-.24.727.613.559.923-.672z"/><path d="m226.072 217.069.014 1.175.858.825z"/><path d="m179.417 200.718-.63 1.054.185.427.747.014 1.186-1.395z"/><path d="m259.108 210.282-.982-.431-.392.61.738.429.67-.205z"/><path d="m245.917 207.169-1.09.497.592 1.065z"/><path d="m214.69 196.016-.748 1.361.435.105z"/><path d="m245.729 222.451-.588-.43-.152.709.637.509z"/></g><path d="m230.194 228.87.808.162-.153.763-.808-.162z"/><path d="m206.373 201.841 1.301-.542z" fill-rule="nonzero"/><path d="m191.77 198.312-.611-.126.034.804.634.079z" fill-rule="nonzero"/><path d="m191.179 212.508-.714.412.004.7.672-.28zm-.71 1.112-.165.071.173.058z" fill-rule="nonzero"/><path d="m211.482 261.483-.428-.185-.568.917.441.119.437-.149z" fill-rule="nonzero"/><path d="m176.35 218.561-.544-.399-.835.867 1.2-.075z" fill-rule="nonzero"/><path d="m168.014 232.586-.39-.14-.515.825.391.064.389-.148z" fill-rule="nonzero"/><path d="m170.676 240.881-.842.047-.181.675.405.123.419-.2.26-.343z" fill-rule="nonzero"/><path d="m197.385 207.975.232-.447.398.207-.231.447z"/><path d="m190.304 213.961-.298.381.3.097zm.001-.273-.001.273.172-.21z" fill-rule="nonzero"/><path d="m183.428 220.312.163.481.188-.332z" fill-rule="nonzero"/><path d="m180.169 233.556-.572.23.4.169z" fill-rule="nonzero"/><path d="m158.568 212.324.485.03-.036.562-.484-.03z"/><path d="m288.987 385.451 1.333.216.694.761 1.872 4.395-.235.84-.846.211z" fill-rule="nonzero"/><path d="m354.406 300.738-2.408-1.624-1.718.027-.108.506 2.68 3.2 1.283.145z" fill-rule="nonzero"/><path d="m298.102 400.088-2.595-2.065-.886.967.809 1.783 1.869 1.324 1.115-1.128z" fill-rule="nonzero"/><path d="m322.585 347.838-1.821-1.522-.331-1.799-.237-1.18.757-.423.835.391.342.314.95 3.042z" fill-rule="nonzero"/><path d="m276.58 432.708-.806.359-1.627-2.181-.561-2.613 1.302.229z" fill-rule="nonzero"/><path d="m297.337 422.449-.805-.543-.154-.432-.122-3.761.358-.874.593.377 1.007 4.124z" fill-rule="nonzero"/><path d="m335.145 340.539-.572 1.223.086.387.439.096z" fill-rule="nonzero"/><path d="m301.986 376.153-.592-.356-.413.741.205.685.408-.038.514-.618z" fill-rule="nonzero"/><path d="m277.466 398.76-.662-.516-.732.452.02.358.769.472.447-.031z" fill-rule="nonzero"/><path d="m315.573 352.052-.679-.21.053.845.681.204z" fill-rule="nonzero"/><path d="m318.075 367.285-.767-1.03-.173.927.171.375.66.112z" fill-rule="nonzero"/><path d="m312.152 357.158.54 1.275z" fill-rule="nonzero"/><path d="m312.532 382.055-.378.236-.207.386.672.194.321-.64z" fill-rule="nonzero"/><path d="m307.2 372.201.957.771-.264.328-.958-.771z"/><path d="m290.07 370.265-.799-.935.015 1.241.643.087z" fill-rule="nonzero"/><path d="m281.574 386.563-.674-.551-.089.84.622.474z" fill-rule="nonzero"/><path d="m283.531 405.557-.041.679.355.161.909-.759z" fill-rule="nonzero"/><path d="m277.074 407.779-.979.391.069.278.811-.035.192-.341z" fill-rule="nonzero"/><path d="m338.71 355.782.532.11-.088.426-.532-.11z"/><path d="m304.717 385.676.399.03-.036.486-.4-.03z"/><path d="m277.049 391.651.51.197-.151.39-.51-.197z"/><path d="m243.596 300.149-4.132 1.236-2.737.568-.467-.715.157-.406 2.054-1.155 5.498-1.522.75.22-.113.904-.271.376z" fill-rule="nonzero"/><path d="m236.267 282.42-3.682-.139-.559.686.435.825 3.269-.098 1.244-.67z" fill-rule="nonzero"/><path d="m216.53 305.552-.868-.094-1.674.754-.392.734 3.382-.66z" fill-rule="nonzero"/><path d="m222.125 336.467-1.778 2.319 3.002-1.442z" fill-rule="nonzero"/><path d="m230.294 332.003 1.915-1.072.587 1.048-1.915 1.072z"/><g fill-rule="nonzero"><path d="m215.981 327.666-.514-.651-1.151.496-.323 1.282 1.712-.338z"/><path d="m246.473 407.153-.805-.277-1.559 1.101 1.625.614.577-.27z"/><path d="m240.138 400.138-2.287 1.12.824.957.831-.385z"/><path d="m244.555 325.877-1.665.187-.381.746.475.685 1.178-.372z"/><path d="m257.181 382.178-.863.014-.415.73.994 1.442.85-1.503z"/><path d="m254.611 403.344-.431-.142-1.125.864 1.721.441.571-.615z"/><path d="m248.017 394.6-1.182.329.081.837.712.489.425-.196.477-.732z"/><path d="m233.585 406.686-1.205-.031.183 1.22.422.197.407-.219z"/><path d="m233.937 413.209-.699.98.643.584.945-.756z"/><path d="m252.212 300.906-1.263-.363-.113.904.749 1.012.787-.81z"/><path d="m251.084 286.846.018.883 1.09.364.575-.668z"/><path d="m240.411 305.362.451 1.085 1.037-.554z"/><path d="m227.665 300.559-.472.769.201.693.431.011.56-.621z"/><path d="m246.1 347.67-.323.66.293.301 1.233.134z"/><path d="m234.927 377.248-1.122.326-.162.4.798.82z"/><path d="m242.146 313.228-.559-.403-1.077 1.07 1.5-.293z"/><path d="m227.838 319.404.506 1.297z"/><path d="m251.101 386.868-.178-.384-.303-.265-.321-.003-.011.776.655.238z"/><path d="m230.841 355.546-.421.597.701.148.513-.608z"/><path d="m232.913 361.932-.554.622.651.319.575-.609z"/><path d="m244.654 391.444-.181.36.596.237.375-.593z"/></g><path d="m222.091 372.07.988-.043.029.671-.988.044z"/><path d="m252.687 170.31-.714 1.647-1.387-1.839-1.024-2.272-2.786-2.332-.891-2.537 1.673.55 3.294 2.682z" fill-rule="nonzero"/><path d="m206.017 155.584-.396.639.709 1.19.842.135.552-.662z" fill-rule="nonzero"/><path d="m214.41 165.372.871 1.943.866.075.454-.688z" fill-rule="nonzero"/><path d="m209.203 148.193-1.71-.66.746 1.988.861-.094z" fill-rule="nonzero"/><path d="m208.675 142.794-.789.11-.279.736 1.659 1.221.421-.641z" fill-rule="nonzero"/><path d="m287.342 168.466-.935.785.892.819.643-.995z" fill-rule="nonzero"/><path d="m240.78 146.095-.999-.556-.406.133-.101.813.587.565.79-.201z" fill-rule="nonzero"/><path d="m230.596 165.601-.219-.429-1.429-.085.327 1.151 1.151-.254z" fill-rule="nonzero"/><path d="m198.383 147.572-1.282-.009.62 1.466 1.052-.602z" fill-rule="nonzero"/><path d="m197.548 153.057-.793-.392-.764.606 1.016 1.325z" fill-rule="nonzero"/><path d="m263.156 144.185-.298-.283-.579.397.163 1.014.73-.329z" fill-rule="nonzero"/><path d="m263.762 160.191-.439 1.518 1.052-.477z" fill-rule="nonzero"/><path d="m233.073 158.942-1.865.127 1.255.635.68-.349z" fill-rule="nonzero"/><path d="m286.678 158.895-.609-.136.052.795.617.092z" fill-rule="nonzero"/><path d="m268.068 156.328.691-.907.327.25-.691.907z"/><path d="m255.39 141.416 1.001-.031.022.698-1.001.031z"/><path d="m247.238 155.243-.71-.004.149.831.391.227.271-.207z" fill-rule="nonzero"/><path d="m242.552 173.895-.789-.028-.407.686.783.194.534-.553z" fill-rule="nonzero"/><path d="m215.318 156.305-.532.692.838.137.426-.652z" fill-rule="nonzero"/><path d="m187.497 139.436-.351.667.435.134.408-.226.202-.392z" fill-rule="nonzero"/><path d="m187.477 170.103-.612-.59-.192.317.358.726.329-.045z" fill-rule="nonzero"/><path d="m178.621 158.7.524-.216.297.722-.524.216z"/><path d="m204.15 139.501-.505.38.397.139.241-.252z" fill-rule="nonzero"/><path d="m393.086 243.911.13 2.419-.187.434-.792-.396-2.621-6.34.585-1.98.369.278z" fill-rule="nonzero"/><path d="m404.869 247.141.82-.328.694.57 2.601 3.811.135.533-.681 1.037-.988.051-.408-.214z" fill-rule="nonzero"/><path d="m401.927 230.373.831.113 4.088 5.717 1.753 2.171-.078 1.245-1.133-.411-1.551-2.515-1.81-2.153-2.069-4.239z" fill-rule="nonzero"/><path d="m372.137 255.152 1.402 3.869-.368 1.772-2.182-1.206-.442-4.15 1.03-.577z" fill-rule="nonzero"/><path d="m426.41 240.45.83.151 1.021 1.555.827 1.518 1.849.498-.56 1.782-.89.098-.384-.255-2.631-5.487z" fill-rule="nonzero"/><path d="m464.473 257.367-1.21-1.433-.109.456.522 1.243.682.143z" fill-rule="nonzero"/><path d="m452.059 273.006-1.222-.312.809 1.388.709-.424z" fill-rule="nonzero"/><path d="m428.234 252.511.391 1.35.986-.584z" fill-rule="nonzero"/><path d="m421.384 236.82-.846-.017-.446.943.602.569z" fill-rule="nonzero"/><path d="m392.015 253.38-.675.272-.235.847.663.237.505-1.016z" fill-rule="nonzero"/><path d="m389.102 258.333-1.005-1.45.224 1.72.68.17z" fill-rule="nonzero"/><path d="m399.061 257.013-.259-.344-.36-.094.012.836.374.197z" fill-rule="nonzero"/><path d="m390.113 265.309-.155-.433-.39-.212-.265.618.677.476z" fill-rule="nonzero"/><path d="m360.62 267.789.967.023-.016.691-.967-.022z"/><path d="m366.323 280.253-.188-.407-.372-.207-.202.623.631.42z" fill-rule="nonzero"/><path d="m360.867 255.675.354-.455.32.249-.354.455z"/><path d="m371.845 283.995.464.233-.175.348-.464-.233z"/><path d="m434.014 242.407.559.024-.014.338-.56-.024z"/><path d="m434.23 254.036-.165.305.315.146z" fill-rule="nonzero"/><path d="m407.07 271.453.51.099-.075.381-.509-.1z"/><path d="m306.579 251.944-4.883 2.145-1.552-.506-.078-.296.293-.325 2.4-.316 1.424-.978 3.576-2.049.462.084z" fill-rule="nonzero"/><path d="m303.561 260.334-.943.868-3.929 1.158-.37-.818.534-.757 2.544-1.181z" fill-rule="nonzero"/><path d="m290.506 296.71-3.1 1.817-1.809.213-.336-.751.239-.426 3.364-1.467z" fill-rule="nonzero"/><path d="m303.366 237.779-2.028.911.696 1.736 3.211-1.706z" fill-rule="nonzero"/><path d="m295.064 262.227-.844-.233-2.111.764.594 1.792 2.506-1.089z" fill-rule="nonzero"/><path d="m293.99 268.061-2.836.936.518 1.155 2.496-1.094.279-.356z" fill-rule="nonzero"/><path d="m283.278 306.211-1.652-.519-.542.867-.071.727 2.448-.117z" fill-rule="nonzero"/><path d="m282.534 255.94-1.019.555.718.506.767-.014z" fill-rule="nonzero"/><path d="m281.669 276.842-.252-.351-.84.007-.285.331.405.635.903.174z" fill-rule="nonzero"/><path d="m277.089 304.193-.658-.494-.713.447.038.329.779.407.438.017z" fill-rule="nonzero"/><path d="m293.534 231.197-.744-.172-.27.636.422.138.434-.172z" fill-rule="nonzero"/><path d="m287.7 236.24-.611-.462-.152.744.669.538z" fill-rule="nonzero"/><path d="m291.015 251.216-.671-.196-.357.629.414.127.438-.152z" fill-rule="nonzero"/><path d="m300.48 278.687-.35-.211-.28.103-.147.397.556.616.27-.066z" fill-rule="nonzero"/><path d="m287.552 280.348-.642-.228-.002.742.64.313z" fill-rule="nonzero"/><path d="m289.26 306.495.811.133-.126.772-.811-.133z"/><g fill-rule="nonzero"><path d="m293.565 274.692-.262-.01-.364-.304-.137.296.501.008.199.178z"/><path d="m296.563 295.437h-.262l-.42-.333-.087.329.507.004.204.16z"/><path d="m332.809 103.959 2.663 1.862-.08.439-3.498-.463-3.061-3.429-.153-.436.329-.747.856-.085z"/><path d="m320.867 110.289 1.134-.614 4.648 4.679.221.418.013.446-.701.27-2.605-2.049-.614-.712z"/><path d="m332.664 123.212-1.034-.853-2.901-1.577-.775.197.034.908.218.415 3.446 2.429.498-.089z"/><path d="m315.067 175.98-3.643-2.181-.453-.034.053 1.173 3.753 2.889 1.347.302.692-.651z"/><path d="m324.101 176.916-.216-.507-1.818-1.396-1.309-.522-.811.304-.074.85 2.817 2.457 1.284-.295z"/><path d="m315.022 168.802-1.39-1.263-1.249.097 2.138 2.737z"/><path d="m329.611 150.941-.768-1.058-1.103-.263-.92.021-.372.239.024.893 2.461 1.351.764-.285z"/><path d="m327.3 162.459-.478-.804-1.23.058-.026.872.616.665 1.184.121z"/><path d="m330.309 158.02-1.689-.734.727 2.007.868-.059z"/><path d="m332.867 140.596-1.519-1.144-.641 1.47 1.725.651.435-.189z"/><path d="m319.674 155.863-.53.236-.417.719.946.728.565-.597z"/><path d="m309.799 153.1-.77.925 1.001.66.57-.612z"/><path d="m336.622 117.848-.986-.774-.43.18.066.729 1.238.424z"/><path d="m324.897 136.174-.472-.033.641 1.406.689-.587z"/><path d="m327.209 142.222.922 1.85z"/><path d="m334.07 133.386-.6-.259-.11.407.202.414.399.179z"/></g><path d="m328.354 129.285.59-.223.289.767-.589.223z"/><path d="m325.191 132.442-.547-.583-.126.683.578.305z" fill-rule="nonzero"/><path d="m319.944 128.938.662-.944.37.26-.663.944z"/><path d="m317.46 139.238-.752.049-.196.609.781-.035z" fill-rule="nonzero"/><path d="m322.991 153.614-.36.621.61.59.35-.602z" fill-rule="nonzero"/><path d="m310.854 159.194-.562.214.388.167z" fill-rule="nonzero"/><path d="m338.347 137.103.527.128-.106.436-.527-.128z"/><path d="m381.312 193.599-.914-.793-3.897 4.217.417.799.871-.051 2.798-2.406z" fill-rule="nonzero"/><path d="m389.709 211.336-1.571-.806.511-1.228.302-.344 2.844-2.364 1.31-.206.396.882z" fill-rule="nonzero"/><path d="m421.069 224.154-.577.84-4.28 2.023-1.966-.705.294-.373 5.748-2.59z" fill-rule="nonzero"/><path d="m419.136 215.967.188-1.595 2.502-2.028 1.931-.04.422.189.289.85z" fill-rule="nonzero"/><path d="m418.119 205.868-2.552 2.17 2.693-1.343z" fill-rule="nonzero"/><path d="m399.838 202.522-.833-.256-1.307.556.835 1.647 1.226-.685z" fill-rule="nonzero"/><path d="m428.799 218.094-1.198-.09.112 1.232h.84z" fill-rule="nonzero"/><path d="m426.014 227.082-1.25.508-.24.726 2.276.005z" fill-rule="nonzero"/><path d="m407.833 189.356-.669.348.213.85 1.137-.021.063-.04.208-.395z" fill-rule="nonzero"/><path d="m400.236 193.942-.372-.142-.436.52.854.753z" fill-rule="nonzero"/><path d="m390.452 197.976-.237-.392-.384-.202-.16.702.64.313z" fill-rule="nonzero"/><path d="m347.423 248.18-.254-.237-1.004.579.558 1.035.694-.933z" fill-rule="nonzero"/><path d="m332.649 241.553-.121-.759-1.111.376.439 1.11.357.034.282-.347z" fill-rule="nonzero"/><path d="m325.043 264.182.694-.688.46.465-.694.688z"/><path d="m328.017 257.361.53-.005.004.523-.529.005z"/><path d="m317.4 289.595.573.105-.08.434-.573-.105z"/><path d="m166.818 184.915.119.903-.629.671-3.441 1.632-3.509 2.381-1.164.801-3.015 2.251-2.06 1.11-.453-.104-.08-.304 5.172-4.764 1.938-1.348 1.89-1.415 4.803-1.944z" fill-rule="nonzero"/><path d="m139.1 187.061-1.675-.619.511-.692 3.873-2.603 2.163-1.026.982 1.014-4.16 2.574-1.247 1.146z" fill-rule="nonzero"/><path d="m172.976 183.926-.581.6.78.916.774-.854z" fill-rule="nonzero"/><path d="m158.304 196.586-1.497.073 1.208.551.293-.173z" fill-rule="nonzero"/><path d="m136.249 184.686-.6-.654-.566.589-.019.866.455.098.432-.159z" fill-rule="nonzero"/><path d="m151.951 202.633-.589.579.625.345.569-.596z" fill-rule="nonzero"/><path d="m143.945 207.57-.819.169.232.59.697-.472z" fill-rule="nonzero"/><path d="m280.513 202.115-.273.628.525.535.314-.577z" fill-rule="nonzero"/><path d="m352.405 167.768-.386-.2-1.961.119.434 1.588 1.706-.8z" fill-rule="nonzero"/><path d="m356.984 165.989-.321-.03.039.851.409.159.222-.241z" fill-rule="nonzero"/><path d="m357.631 155.667-.193.392.633.286.416-.668z" fill-rule="nonzero"/><path d="m364.802 153.471.504.193-.147.382-.504-.193z"/><path d="m237.936 428.381-1.154-.535.505 2.075z" fill-rule="nonzero"/><path d="m232.93 426.1-1.069-.313-.343 1.097.727.531.906-.827z" fill-rule="nonzero"/><path d="m244.262 430.42-.307-.301-.649.378.174 1.078.77-.313z" fill-rule="nonzero"/><path d="m248.009 427.42-.489-.442-1.199.926 1.555-.094z" fill-rule="nonzero"/><path d="m360.476 135.143.529-1.035 1.001.512-.528 1.034z"/><path d="m360.45 122.201-1.098 1.268.384.226.309-.185z" fill-rule="nonzero"/><path d="m361.502 126.579-.246-.341-.341-.099-.149.403.523.604z" fill-rule="nonzero"/><path d="m359.708 141.132-.157.552.384.036.344-.186.189-.35z" fill-rule="nonzero"/><path d="m355.493 132.514.413.215-.194.373-.413-.215z"/><path d="m352.007 127.649.487.028-.033.572-.487-.028z"/><path d="m352.132 185.433-.618-.396-.294.314.014 1.075.796-.215z" fill-rule="nonzero"/><path d="m365.354 176.747.168-.369.46.209-.168.369z"/><path d="m359.333 182.736-.533.191.379.214z" fill-rule="nonzero"/><path d="m347.569 224.157-.641-.172.075.82.644.122z" fill-rule="nonzero"/><path d="m300.589 313.065-.576 1.248.192.859.401.197.88-1.458z" fill-rule="nonzero"/><path d="m145.827 164.17-1.134-.139-.022 1.217.838.048.325-.279z" fill-rule="nonzero"/><path d="m134.204 162.628.39 1.104 1.063-.572z" fill-rule="nonzero"/><path d="m283.537 334.076-.564.577.619.285.568-.55z" fill-rule="nonzero"/><path d="m277.813 337.678.676-.004.002.403-.676.004z"/><path d="m342.494 212.48-1.354.15-.304.759.532.636 1.757-.213z" fill-rule="nonzero"/><path d="m351.824 114.273-.548-.18-1.564.968.562 1.369.835-.252z" fill-rule="nonzero"/><path d="m356.742 112.086-.067.31.281-.074z" fill-rule="nonzero"/><path d="m124.344 167.237-.684.202-.015.419.612.534.842-.69z" fill-rule="nonzero"/><path d="m323.539 212.352 1.358-.612z" fill-rule="nonzero"/></g></svg>