<svg clip-rule="evenodd" fill-rule="evenodd" stroke-linejoin="round" stroke-miterlimit="1.414" viewBox="0 0 768 768" xmlns="http://www.w3.org/2000/svg"><g fill="#060505" fill-rule="nonzero"><path d="m0-14.233c.284.999.444 1.965.483 2.889.037.928.086 1.892.162 2.891.067.714.229 1.443.479 2.195.248.748.444 1.48.59 2.193v.589c0 .322.015.66.051 1.018.036.356.054.677.054.962v.534c0 .214.071.715.215 1.498.145.787.286 1.589.426 2.407.145.823.288 1.573.43 2.251.14.678.251 1.013.321 1.013.217 0 .605-.157 1.179-.479.571-.322 1.156-.696 1.765-1.124.605-.428 1.159-.838 1.658-1.233.5-.39.818-.658.962-.802.213-.283.411-.588.59-.907.179-.321.374-.592.59-.805.355-.356.837-.764 1.443-1.23.605-.465.979-.982 1.124-1.551.357-1 .59-1.836.695-2.517.107-.675.162-1.621.162-2.836 0-1.782-.429-3.477-1.286-5.083-.857-1.607-1.945-2.997-3.262-4.176-1.324-1.175-2.838-2.119-4.55-2.836-1.71-.709-3.424-1.068-5.137-1.068v3.853c0 .144.125.534.377 1.175.248.643.408 1.037.479 1.179" transform="matrix(1.58318 0 0 1.73697 398.634 305.388)"/><path d="m0 23.866c1.498 2.357 3.655 4.549 6.474 6.581 2.817 2.034 6.652 3.264 11.505 3.695 0 .143.071.23.214.266.141.039.284.09.43.162l3.53-1.072c.071-.072.231-.124.481-.161.251-.035.445-.051.591-.051.999-1.001 1.855-2.035 2.568-3.105.712-1.07 1.424-2.212 2.139-3.424.358-.571.713-1.141 1.07-1.713.357-.571.68-1.143.965-1.712.998-2.285 1.765-4.673 2.301-7.172.534-2.497.801-4.994.801-7.492 0-.856-.09-1.836-.267-2.945-.178-1.103-.338-2.942-.482-5.511v-.321c0-.569-.251-1.443-.748-2.621-.499-1.177-1.303-2.353-2.41-3.531-1.106-1.179-2.496-2.21-4.173-3.106-1.676-.889-3.69-1.337-6.046-1.337-1.356 0-2.696.054-4.015.162-1.321.105-2.693.304-4.119.588l-5.243 2.032c-.787.287-1.43.696-1.927 1.233-.501.534-.929 1.124-1.285 1.763-.213.359-.374.751-.482 1.179s-.268.821-.481 1.178c-1.498 2.712-2.747 5.422-3.746 8.135-1 2.71-1.499 5.634-1.499 8.772.072.146.357 1.179.856 3.106.498 1.926 1.5 4.067 2.998 6.422" transform="matrix(1.58318 0 0 1.73697 282.909 300.559)"/><path d="m0 22.128c-.047.095-.072.165-.072.213 0 .047-.023.12-.069.213.236-.38.449-.76.641-1.141.191-.38.382-.785.574-1.213.236-.524.485-1.047.744-1.57.261-.523.512-1.046.752-1.57.239-.524.475-1.023.715-1.499.236-.475.472-.975.711-1.5.429-.807.835-1.616 1.214-2.424.241-.382.452-.774.641-1.179.191-.403.382-.797.574-1.177.188-.381.369-.761.536-1.142.164-.38.345-.76.533-1.141.095-.239.202-.466.323-.679.117-.214.224-.439.319-.678.096-.238.18-.44.249-.607.071-.167.155-.344.252-.534.427-.666.782-1.429 1.07-2.285.047-.094.072-.166.072-.214s.023-.119.069-.215c.146-.38.239-.714.286-.999.048-.284-.069-.545-.355-.784-.192-.095-.239-.239-.144-.429-.095 0-.153.012-.176.037-.024.023-.06.036-.109.036-1.097.666-1.856 1.544-2.285 2.64-.047.095-.069.19-.069.285 0 .096-.026.189-.072.285-.047.144-.07.286-.07.428 0 .144-.049.262-.144.359-.144.332-.285.652-.431.963-.14.31-.281.606-.428.892-.331.617-.592 1.214-.783 1.784-.332.761-.655 1.499-.963 2.211-.311.714-.608 1.454-.892 2.213-.191.524-.311.976-.357 1.356-.094.334-.191.668-.286.998-.096.334-.216.644-.36.93-.236.524-.427 1.033-.568 1.533-.141.501-.287 1.012-.427 1.535l-.072.428-.643 2.141c-.096.239-.18.489-.249.75-.072.261-.156.512-.251.75" transform="matrix(1.58318 0 0 1.73697 306.319 432.172)"/><path d="m0 12.489c-.051.525-.098 1.047-.145 1.57-.046.525-.094 1.046-.141 1.57h.214c.239-.618.487-1.224.751-1.82.259-.594.508-1.176.749-1.749.663-1.615 1.27-3.235 1.817-4.852.549-1.617.964-3.259 1.251-4.924.143-.761.272-1.499.391-2.211.121-.715.252-1.452.392-2.213.097-.714-.236-1-.999-.858-.095.049-.191.072-.284.072-.099 0-.191.023-.287.072-.096.239-.176.499-.248.784-.071.285-.156.548-.251.786-.141.523-.272 1.046-.392 1.57-.12.523-.276 1.047-.464 1.571-.192.666-.392 1.319-.607 1.961-.213.643-.416 1.298-.607 1.963-.237 1.095-.461 2.201-.676 3.319-.216 1.119-.37 2.248-.464 3.389" transform="matrix(1.58318 0 0 1.73697 405.978 430.937)"/><path d="m0 12.514c-.048.526-.096 1.05-.145 1.573-.047.526-.095 1.048-.141 1.573h.214c.236-.619.487-1.227.752-1.823.26-.595.511-1.179.75-1.753.667-1.619 1.276-3.241 1.824-4.861.547-1.621.966-3.266 1.251-4.934.142-.762.274-1.502.394-2.215.119-.717.248-1.456.39-2.218.097-.715-.239-1.002-1.001-.86-.097.05-.188.073-.285.073-.095 0-.191.023-.284.072-.097.239-.179.5-.251.786-.072.285-.157.549-.249.787-.145.525-.277 1.048-.393 1.573-.12.524-.276 1.049-.468 1.574-.192.668-.393 1.321-.604 1.965-.217.644-.421 1.301-.609 1.967-.24 1.097-.465 2.205-.68 3.325-.217 1.122-.37 2.253-.465 3.396" transform="matrix(1.58318 0 0 1.73697 440.997 430.915)"/><path d="m0 25.934c-6.3 0-11.407-5.106-11.407-11.405 0-6.301 5.107-11.407 11.407-11.407s11.408 5.106 11.408 11.407c0 6.299-5.108 11.405-11.408 11.405m-145.71 48.639c-.049.094-.177.488-.392 1.177-.212.69-.5 1.573-.854 2.641-.357 1.069-.763 2.285-1.214 3.641-.455 1.357-.893 2.722-1.319 4.103l-3.57 11.134c-.048.286-.176.57-.393.856-.213.286-.37.57-.463.857-.191.331-.336.687-.43 1.069-.095.38-.26.713-.499 1.001-.335.473-.584.974-.75 1.496-.168.524-.368 1.024-.604 1.501-.239.427-.479.867-.715 1.318-.24.454-.523.868-.858 1.25-.521.618-1.083 1.204-1.676 1.75-.594.546-1.157 1.13-1.677 1.747-.428.523-.929.929-1.497 1.216-.573.283-1.17.545-1.785.784-1.24.428-2.464.653-3.678.678-1.211.023-2.416-.443-3.604-1.393-1.713-1.33-3.021-2.949-3.925-4.854-.284-.712-.501-1.45-.642-2.213-.141-.76-.309-1.546-.499-2.354-.096-.283-.119-.582-.07-.892.014-.093.011-.194.02-.289-.054.086-.1.176-.166.255-.332.473-.583.974-.747 1.496-.168.524-.369 1.024-.609 1.501-.238.427-.474.867-.711 1.318-.237.454-.525.868-.856 1.25-.525.618-1.083 1.204-1.678 1.75-.598.546-1.154 1.13-1.679 1.747-.429.523-.927.929-1.498 1.216-.569.283-1.166.545-1.784.784-1.237.428-2.46.653-3.675.678-1.214.023-2.414-.443-3.604-1.393-1.713-1.33-3.021-2.949-3.926-4.854-.286-.712-.498-1.45-.64-2.213-.145-.76-.31-1.546-.503-2.354-.093-.283-.116-.582-.07-.892.047-.311.07-.63.07-.963-.044-.428-.081-.871-.106-1.319-.024-.453-.057-.92-.108-1.393 0-.095.014-.179.037-.25.026-.073.036-.155.036-.251.097-.618.154-1.224.176-1.818.025-.597.062-1.202.111-1.822.095-.664.154-1.353.176-2.069.027-.712.155-1.402.393-2.069.132-.464.226-.936.301-1.412-.249.389-.495.769-.729 1.125-1.094 1.667-1.997 2.963-2.713 3.891-.714.928-1.092 1.414-1.141 1.462l-.43.428c-.378.477-.772.954-1.174 1.429-.406.474-.847.905-1.32 1.284-.478.378-.966.749-1.465 1.107-.499.359-1.084.582-1.748.676-.523.05-1.047.027-1.569-.07-.526-.096-1.048-.141-1.572-.141-1.046.045-1.937-.156-2.676-.609-.736-.452-1.416-1.032-2.035-1.748-.54-.648-.96-1.313-1.286-1.992-.54.823-1.085 1.625-1.638 2.385-1.476 2.02-2.856 3.627-4.142 4.817-.189.19-.379.359-.568.501-.191.142-.383.283-.57.427-.099.095-.205.19-.324.284s-.224.19-.322.287l-.642.645c-.334.379-.784.614-1.354.712h-.071c-.146.095-.287.189-.428.285-.145.094-.287.188-.428.284-.098.046-.217.144-.357.287-.381.285-.692.452-.929.5-.19.096-.381.166-.572.213-.19.046-.404.118-.642.215-.477.236-.977.428-1.498.57-.524.142-1.07.238-1.643.287-.522.045-1.059.071-1.605.071-.547 0-1.106-.12-1.675-.358-1.145-.383-2.023-1.073-2.641-2.069-.098-.096-.155-.216-.178-.357-.026-.143-.061-.261-.109-.357-.096-.238-.177-.462-.249-.677s-.226-.372-.465-.463c-.238-.098-.44-.25-.607-.466-.168-.212-.296-.416-.392-.606-.097-.143-.131-.299-.107-.462.025-.169.059-.325.107-.466v-.287c.047-.046.071-.142.071-.284l.072-.142c-.24-.286-.344-.56-.321-.822.022-.263.081-.51.178-.749.047-.095.071-.262.071-.5.047-1.094.19-2.164.429-3.21.237-1.049.499-2.072.783-3.072v-.212c.097-.285.19-.572.287-.856.094-.285.191-.546.285-.784.145-.38.275-.739.393-1.073.119-.331.224-.663.321-.997 0-.097.012-.19.035-.287.023-.094.036-.19.036-.284.097-.478.202-.928.322-1.356.119-.429.297-.834.534-1.213.19-.239.31-.475.357-.716.049-.235.096-.474.143-.712.096-.238.166-.452.216-.644.044-.19.117-.402.212-.644.19-.379.358-.758.5-1.141.144-.378.286-.761.427-1.14 0-.046.013-.084.037-.106.025-.027.036-.06.036-.109-.095.049-.192.169-.285.359-.287.38-.476.689-.571.925-.095.143-.179.299-.25.465-.072.166-.156.322-.25.462-.096.098-.191.193-.284.285-.098.098-.191.193-.288.288-.094.095-.168.155-.212.177-.049.027-.097.084-.144.179-.19.241-.358.454-.5.644-.141.189-.285.379-.429.572-.426.617-.903 1.235-1.427 1.852l-.141.217c-.048.048-.119.117-.216.212-.094.098-.166.192-.212.285l.141.143-.213.216c-.096.094-.405.569-.927 1.428-.525.857-1.096 1.781-1.714 2.781s-1.178 1.929-1.679 2.785c-.497.856-.772 1.356-.819 1.499-.048.095-.285.428-.715.997-.425.573-.915 1.179-1.462 1.819-.549.644-1.048 1.227-1.498 1.751-.453.522-.725.807-.821.856-.143.094-.478.223-1 .393-.524.164-1.105.273-1.748.319-.643.048-1.308-.012-1.998-.175-.69-.169-1.272-.537-1.748-1.107-.428-.476-.701-1.131-.822-1.965-.06-.421-.11-.821-.152-1.201-.167.259-.297.441-.382.526-.476.615-.845 1.106-1.108 1.462-.261.357-.509.702-.746 1.034-.24.331-.359.524-.359.57-.096.094-.26.265-.497.5-.239.238-.479.477-.716.715-.238.235-.476.463-.714.678-.237.214-.381.344-.427.395-.381.329-.775.639-1.177.925-.408.287-.797.571-1.18.856-.522.333-1.01.655-1.461.965-.453.308-.941.606-1.462.89-.383.239-.764.467-1.144.679-.38.213-.76.414-1.141.606-.571.239-1.143.466-1.713.678-.57.216-1.144.44-1.713.678-.049.049-.098.072-.143.072-.047 0-.096.024-.143.069-.809.526-1.652.848-2.532.965-.882.118-1.774.274-2.677.467-.952.139-1.88.2-2.784.178-.903-.027-1.833-.205-2.785-.539-1.38-.522-2.557-1.234-3.532-2.14-.973-.905-1.795-1.997-2.462-3.281-.951-1.811-1.545-3.808-1.782-5.997-.049-.382-.17-.75-.359-1.106-.19-.356-.38-.724-.57-1.106 0-.096-.023-.156-.07-.178-.049-.027-.074-.061-.074-.106.144-.572.131-1.133-.035-1.679-.165-.546-.13-1.103.109-1.679.19-.424.344-.867.463-1.317.119-.452.227-.895.321-1.32.094-.239.154-.477.178-.715.025-.238.084-.474.178-.712.191-.668.381-1.311.572-1.929.19-.618.381-1.258.571-1.926.096-.428.19-.867.285-1.321.094-.451.19-.914.284-1.39.049-.19.121-.368.215-.536.096-.166.191-.371.286-.609.189-.428.356-.856.498-1.281.143-.431.31-.86.499-1.287.145-.38.357-.736.644-1.069.286-.334.309-.762.071-1.287.429-.663.703-1.365.822-2.104.118-.738.368-1.44.749-2.107.094-.139.18-.283.249-.427.07-.143.154-.285.249-.429.191-.284.285-.45.285-.498.144-.38.275-.702.393-.964.12-.262.226-.534.323-.821.095-.141.177-.297.25-.463.069-.167.153-.323.249-.465.238-.38.487-.748.751-1.107.26-.356.486-.747.676-1.178.047-.046.179-.284.393-.712.213-.428.44-.914.678-1.463.237-.547.487-1.057.748-1.534.261-.475.441-.831.537-1.07.523-.904 1.044-1.715 1.571-2.427.237-.38.497-.701.786-.967.282-.257.542-.557.783-.89.143-.189.273-.391.391-.606.12-.213.252-.416.392-.606.191-.238.369-.488.537-.75.167-.262.369-.534.608-.819.092-.098.153-.193.176-.288.024-.095.084-.19.18-.286.236-.237.428-.404.57-.498.046-.048.084-.095.108-.144.022-.046.059-.094.106-.141.239-.287.477-.571.715-.856.237-.287.475-.595.713-.929.143-.142.261-.295.355-.464.097-.164.191-.323.289-.462.189-.19.366-.371.533-.539.168-.166.322-.344.464-.534l3.212-3.638c.095-.097.167-.215.214-.359.047-.143.118-.26.214-.356.144-.19.582-.523 1.32-1.001.736-.473 1.523-.95 2.356-1.424.833-.478 1.617-.883 2.355-1.215.739-.331 1.203-.5 1.392-.5.286.048.583.025.892-.069.309-.099.631-.145.964-.145.617-.045 1.235-.084 1.855-.109.617-.023 1.237.038 1.856.179.904.238 1.687.644 2.355 1.215.664.569 1.189 1.33 1.569 2.285.524 1.33.785 2.807.785 4.425-.046.808-.097 1.628-.142 2.463-.048.832-.119 1.652-.215 2.461-.142 1.236-.808 2.188-1.997 2.854-.62.333-1.24.121-1.857-.641-.333.285-.607.334-.818.141-.217-.19-.42-.38-.609-.57-.19-.189-.392-.488-.605-.893-.215-.405-.418-.822-.608-1.25s-.334-.868-.426-1.318c-.098-.452-.098-.82 0-1.106.092-.289.163-.584.212-.895.048-.31.095-.606.144-.89.046-.238-.049-.417-.286-.534-.238-.118-.499-.111-.786.034-.333.189-.654.394-.963.606-.309.216-.583.44-.821.678-1.474 1.477-2.711 3.141-3.71 4.998-.429.76-.847 1.534-1.249 2.319-.407.784-.798 1.583-1.181 2.39-.188.382-.343.738-.462 1.071-.12.334-.225.69-.32 1.07-.239.525-.453 1.025-.643 1.499-.19.475-.381.973-.571 1.497-.236.713-.463 1.42-.678 2.107-.213.689-.441 1.393-.677 2.105-.335.955-.656 1.869-.963 2.747-.311.88-.632 1.797-.964 2.748-.24.667-.43 1.345-.572 2.034-.143.69-.333 1.371-.569 2.034l-.858 2.997c-.143.527-.286 1.037-.429 1.535-.142.5-.285 1.012-.428 1.534-.238.811-.478 1.595-.713 2.357-.238.76-.475 1.546-.714 2.352-.097.289-.142.587-.142.895 0 .31-.048.582-.145.82-.282.858-.427 1.711-.427 2.571 0 .856-.095 1.712-.285 2.569-.095.522-.201 1.022-.322 1.499-.119.473-.203.974-.248 1.497-.096 1.477-.096 2.925 0 4.357 0 .424.07.685.214.781.14.097.402.097.786 0 1.377-.38 2.71-.88 3.996-1.498 1.284-.618 2.545-1.333 3.781-2.141 1.761-1.143 3.498-2.496 5.212-4.067.949-1.049 1.96-2.297 3.031-3.748s2.13-3.114 3.176-4.994c.234-.421.466-.858.697-1.303.006-.065-.006-.137.016-.196.096-.263.191-.489.285-.679.049-.095.096-.178.144-.25.047-.072.071-.154.071-.25.381-1.664.832-3.379 1.355-5.137.097-.334.204-.655.323-.966.118-.307.226-.604.32-.891.095-.238.167-.45.215-.643.048-.19.119-.38.213-.569.144-.428.285-.845.429-1.251.143-.401.262-.818.355-1.249.24-.666.465-1.331.681-1.998.212-.666.437-1.33.675-1.996.334-.955.691-1.939 1.073-2.963.379-1.023.759-2.057 1.14-3.106.287-.666.561-1.33.822-1.998.261-.666.535-1.33.82-1.996.24-.666.5-1.311.787-1.929.284-.616.543-1.261.784-1.927.331-.856.7-1.689 1.106-2.5.402-.807.796-1.592 1.178-2.354l.213-.497c.381-.62.713-1.249.999-1.893.287-.643.525-1.296.715-1.963.092-.238.189-.428.285-.572.096-.143.188-.308.286-.499.095-.237.202-.437.32-.606.119-.165.153-.368.107-.607 0-.189.07-.333.214-.429.144-.094.262-.19.356-.283l.216-.215c.046 0 .094-.024.141-.072.049 0 .094-.024.143-.073.096-.141.237-.391.43-.747.188-.359.404-.761.643-1.212.235-.455.463-.917.678-1.393.213-.479.413-.88.606-1.214.141-.333.26-.594.356-.787.094-.187.166-.33.213-.428.096-.187.227-.319.393-.39.167-.072.368-.129.606-.18.049-.045.121-.07.216-.07.523-.239 1.01-.489 1.463-.751.45-.261.891-.581 1.321-.961 1.377-1.143 2.758-1.001 4.137.427 0 .049.049.118.144.215.285.284.546.428.784.428.333-.048.667.07 1 .353.191.242.308.515.355.823.049.31.025.609-.07.893-.142.382-.249.75-.32 1.106-.073.358-.157.725-.252 1.107l-.068.428c-.24.951-.514 1.88-.823 2.782-.309.904-.653 1.764-1.035 2.571-.333.808-.677 1.607-1.036 2.388-.355.787-.748 1.631-1.174 2.538-.144.284-.287.557-.43.817-.144.263-.285.538-.428.823-.383.667-.715 1.284-.999 1.854-.142.332-.275.655-.394.965-.118.311-.249.632-.391.962-.143.383-.288.739-.429 1.073-.142.332-.308.688-.498 1.071-.24.473-.465.928-.678 1.353-.214.431-.443.859-.679 1.285l-.856 1.5c-.191.333-.356.655-.5.962-.144.311-.286.633-.43.965-.19.334-.367.654-.534.964-.166.309-.346.655-.535 1.034-.143.284-.297.571-.465.859-.168.285-.344.568-.534.854-.19.381-.358.669-.499.856-.097.238-.203.453-.322.643-.12.193-.226.382-.321.572-.24.428-.476.853-.713 1.281-.239.432-.477.836-.715 1.216-.19.334-.367.666-.534.997-.168.333-.346.667-.536 1.001-.095.189-.178.37-.25.534-.072.169-.155.322-.249.465-.428.856-.799 1.727-1.108 2.607-.31.878-.604 1.772-.892 2.674-.095.238-.177.489-.247.751-.074.261-.158.534-.252.819l-.212.571c-.383 1-.668 1.998-.856 2.997-.049.098-.074.189-.074.288 0 .094-.023.19-.071.284-.048.382-.12.772-.215 1.178-.096.405-.307.773-.641 1.107v.643c-.095.379-.168.69-.215.925.142-.235.274-.437.393-.606.118-.163.25-.368.393-.606.285-.38.571-.784.856-1.213.284-.427.571-.856.855-1.284.191-.383.359-.666.502-.859.094-.187.188-.355.284-.497.097-.144.19-.311.286-.5l.57-.857c.381-.618.787-1.224 1.214-1.818.429-.596.831-1.179 1.215-1.751l2.354-2.997c.238-.334.487-.643.75-.928.262-.284.509-.595.747-.928.239-.333.477-.643.715-.929.241-.284.476-.594.714-.927.712-.951 1.474-1.925 2.285-2.926.332-.379.652-.738.963-1.071.309-.331.63-.687.964-1.07.237-.238.463-.476.677-.714.215-.236.44-.474.678-.712.096-.096.273-.311.534-.645.26-.331.537-.69.821-1.069.381-.477.725-.905 1.034-1.288.309-.378.512-.636.609-.781.808-.856 1.971-1.287 3.498-1.287.235 0 .463.015.677.038.214.025.439.061.676.106.382.094.69.144.931.144.425.094.784.178 1.068.249.288.072.475.228.57.463.189.523.226 1.035.108 1.535s-.25.988-.39 1.462c-.241.618-.384 1.166-.429 1.641l-.143.358c-.097.19-.192.479-.285.857-.097.382-.193.713-.287.997-.239 1-.405 1.621-.498 1.86-.714 1.329-1.097 2.614-1.143 3.853v.144l-.215.425c-.095.193-.167.356-.215.5-.047.143-.093.309-.142.499-.094.239-.238.702-.428 1.392-.189.691-.381 1.369-.57 2.033-.191.713-.31 1.19-.357 1.429-.049.238-.097.406-.142.5-.098.094-.239.428-.429.997-.189.574-.335 1.026-.43 1.357h.073l-.073.359c-.095.283-.224.7-.39 1.249-.168.546-.334 1.081-.501 1.603-.167.524-.309 1.001-.428 1.429s-.178.666-.178.712c-.095.241-.154.503-.179.787-.024.285-.059.547-.106.786-.096.332-.19.784-.286 1.356 0 .045-.012.106-.037.178-.023.071-.107.224-.248.462-.096.238-.25.572-.465 1-.213.428-.404.879-.571 1.357-.168.474-.321.914-.465 1.318-.141.406-.19.702-.141.894.047.285.082.571.106.857.024.284.059.618.109.998 0 .19.024.356.07.498.096-.094.286-.235.571-.428.381-.238.739-.462 1.071-.678.333-.212.643-.44.927-.676.524-.476 1.095-1.01 1.713-1.606.618-.597 1.235-1.227 1.855-1.891 1.999-2.665 3.878-5.352 5.639-8.065.761-1.143 1.522-2.357 2.285-3.641.375-.635.705-1.281 1.058-1.921.097-.359.172-.729.296-1.075.43-1.236.87-2.475 1.322-3.713.453-1.236.916-2.471 1.391-3.709.381-.952.75-1.914 1.106-2.891.355-.974.724-1.963 1.107-2.963l.071-.14c.048-.144.214-.325.499-.539.287-.211.608-.425.964-.64.357-.216.726-.405 1.107-.572.38-.166.688-.295.929-.392.187-.048.473-.073.855-.073.667.097 1.342.181 2.032.254.69.067 1.368.151 2.034.247.525.048 1.061.32 1.607.821.545.5.845 1.012.893 1.534.044.524-.048 1.167-.287 1.926-.142.525-.31 1.037-.5 1.534-.189.5-.38 1.011-.571 1.538-.094.188-.152.389-.178.606-.023.212-.084.416-.176.606-.24.382-.455.916-.646 1.607-.189.688-.354 1.413-.497 2.174-.143.762-.286 1.451-.43 2.071-.141.618-.238 1.024-.282 1.214-.24.667-.467 1.295-.682 1.891-.211.594-.439 1.2-.676 1.821-.239.666-.524 1.281-.855 1.854-.336.57-.621 1.188-.857 1.854-.238.527-.394 1.037-.464 1.535-.072.5-.203 1.012-.393 1.535-.097.285-.214.572-.357.856-.142.285-.286.595-.43.928.43.096.761.035 1-.178.238-.215.452-.44.644-.678.142-.143.285-.287.428-.428.14-.143.285-.311.429-.5 0-.094.355-.643 1.069-1.641.715-1 1.642-2.367 2.783-4.106 1.141-1.736 2.414-3.79 3.819-6.172 1.288-2.181 2.587-4.598 3.894-7.224.14-.61.28-1.248.423-1.911.094-.238.152-.499.177-.787.024-.284.085-.546.18-.781.378-1.477.724-2.94 1.037-4.39.309-1.453.653-2.891 1.032-4.32.239-.902.512-1.796.822-2.675.308-.879.606-1.769.892-2.679.237-.757.438-1.534.605-2.315.168-.787.371-1.56.608-2.321.665-1.903 1.345-3.808 2.034-5.71.689-1.903 1.417-3.808 2.176-5.71.331-.761.715-1.511 1.144-2.249.427-.736.831-1.487 1.21-2.247.239-.524.407-1.118.5-1.785.049-.379.215-.738.503-1.072.283-.329.473-.688.57-1.068.807-.38 1.629-.75 2.46-1.107.834-.356 1.678-.677 2.535-.962.57-.19 1.166-.3 1.784-.322.618-.023 1.215-.109 1.784-.25.667-.19 1.237-.166 1.713.072.474.239.973.477 1.498.712.43.19.725.455.893.787.166.334.273.69.322 1.07.093.666.142 1.344.142 2.034 0 .689-.025 1.367-.072 2.034-.096 1.046-.226 2.08-.392 3.104-.168 1.022-.344 2.035-.535 3.033-.142.714-.296 1.403-.464 2.071-.168.666-.37 1.332-.605 1.996-.384 1-.763 1.999-1.144 3-.38.997-.759 1.974-1.144 2.925-.189.428-.401.845-.64 1.25-.24.404-.478.819-.714 1.25-.241.568-.474 1.152-.714 1.747-.237.597-.475 1.178-.713 1.749-.098.24-.214.44-.36.608-.139.166-.26.367-.353.605-.286.478-.573.989-.856 1.535-.287.546-.476.917-.574 1.107-.141.332-.26.654-.354.962-.096.31-.287.582-.572.822-.094.094-.143.261-.143.496 0 .241-.047.431-.142.575-.383.712-.752 1.426-1.109 2.138-.356.713-.724 1.431-1.103 2.143-.239.524-.463 1.081-.679 1.676-.214.594-.367 1.178-.466 1.749-.095.38-.117.774-.068 1.176.046.407.046.799 0 1.181-.049.667-.098 1.345-.144 2.035-.047.685-.144 1.363-.286 2.031-.238 1.238-.499 2.462-.786 3.675-.282 1.216-.619 2.44-.997 3.678-.289.807-.499 1.592-.642 2.353-.144.762-.313 1.549-.499 2.356-.097.478-.132.939-.108 1.391s-.015.895-.108 1.319c-.049.333-.105.632-.177.893-.072.263-.131.561-.18.894-.098.523-.168 1.023-.212 1.497-.05.477-.098.974-.146 1.498 0 .574.013 1.143.038 1.715.023.571.058 1.141.108 1.713 0 .238-.014.45-.037.643-.025.186-.035.452-.035.784.38-.332.592-.522.641-.571.523-.952 1.024-1.89 1.497-2.819.478-.928.954-1.868 1.431-2.818.235-.479.463-.941.677-1.395.215-.451.441-.914.677-1.391l4.426-10.274c.571-1.288 1.115-2.547 1.641-3.786.523-1.234.997-2.34 1.427-3.317.016-.039.029-.068.046-.106.081-.335.155-.663.24-1 .189-.665.357-1.308.499-1.929.14-.615.286-1.258.428-1.926.097-.238.156-.499.181-.787.024-.284.08-.546.176-.781.381-1.477.726-2.94 1.034-4.39.311-1.453.653-2.891 1.037-4.32.235-.902.509-1.796.819-2.675.308-.879.607-1.769.891-2.679.238-.757.443-1.534.61-2.315.164-.787.367-1.56.604-2.321.668-1.903 1.345-3.808 2.036-5.71.69-1.903 1.414-3.808 2.178-5.71.33-.761.711-1.511 1.14-2.249.427-.736.831-1.487 1.213-2.247.239-.524.404-1.118.5-1.785.044-.379.212-.738.499-1.072.287-.329.477-.688.57-1.068.808-.38 1.63-.75 2.464-1.107.831-.356 1.678-.677 2.53-.962.574-.19 1.167-.3 1.786-.322.618-.023 1.214-.109 1.783-.25.667-.19 1.238-.166 1.714.072.477.239.976.477 1.502.712.427.19.724.455.892.787.163.334.269.69.318 1.07.097.666.147 1.344.147 2.034 0 .689-.028 1.367-.073 2.034-.096 1.046-.229 2.08-.392 3.104-.168 1.022-.349 2.035-.538 3.033-.142.714-.296 1.403-.464 2.071-.167.666-.367 1.332-.606 1.996-.38 1-.76 1.999-1.14 3-.383.997-.762 1.974-1.143 2.925-.19.428-.406.845-.642 1.25-.241.404-.475.819-.714 1.25-.238.568-.476 1.152-.716 1.747-.237.597-.475 1.178-.71 1.749-.098.24-.217.44-.358.608-.141.166-.26.367-.357.605-.289.478-.571.989-.856 1.535s-.479.917-.572 1.107c-.142.332-.26.654-.357.962-.096.31-.287.582-.57.822-.096.094-.142.261-.142.496 0 .241-.049.431-.145.575-.379.712-.747 1.426-1.104 2.138-.358.713-.729 1.431-1.108 2.143-.238.524-.463 1.081-.676 1.676-.217.594-.371 1.178-.466 1.749-.095.38-.117.774-.068 1.176.043.407.043.799 0 1.181-.049.667-.098 1.345-.146 2.035-.049.685-.142 1.363-.282 2.031-.243 1.238-.504 2.462-.788 3.675-.285 1.216-.617 2.44-.999 3.678-.285.807-.501 1.592-.643 2.353-.142.762-.308 1.549-.498 2.356-.098.478-.133.939-.107 1.391.023.452-.014.895-.107 1.319-.047.333-.108.632-.179.893-.073.263-.132.561-.178.894-.096.523-.168 1.023-.216 1.497-.049.477-.094.974-.142 1.498 0 .574.009 1.143.036 1.715.022.571.057 1.141.106 1.713 0 .238-.012.45-.036.643-.022.186-.035.452-.035.784.382-.332.597-.522.644-.571.523-.952 1.022-1.89 1.498-2.819.474-.928.948-1.868 1.427-2.818.236-.479.463-.941.678-1.395.214-.451.438-.914.676-1.391l4.426-10.274c.572-1.288 1.118-2.547 1.644-3.786.52-1.234.999-2.34 1.426-3.317.428-.976.773-1.771 1.034-2.391.262-.618.392-.952.392-1.001.24-.569.62-.985 1.144-1.247.521-.262 1.069-.298 1.64-.109.572.242 1.002.621 1.286 1.144.285.523.307 1.069.069 1.641m-152.726 0c0 .049-.119.356-.359.927-.238.572-.558 1.308-.962 2.213-.405.906-.893 1.926-1.463 3.069-.572 1.141-1.165 2.311-1.784 3.497-1.855 3.475-3.569 5.996-5.138 7.566-1.571 1.568-3.093 2.304-4.569 2.213-.19 0-.428-.049-.712-.145-1.24-.283-2.238-1-2.998-2.14-.571-.618-.962-1.308-1.179-2.068-.212-.763-.344-1.573-.393-2.43 0-1.522.261-3.114.786-4.781.238-.761.44-1.511.608-2.247.164-.738.344-1.488.535-2.246.094-.241.189-.488.284-.753.097-.259.19-.509.285-.748.286-.81.584-1.594.893-2.355.311-.762.607-1.546.894-2.357.092-.425.021-.971-.215-1.64-.285.382-.573.739-.856 1.071-.286.334-.548.69-.785 1.069-.666 1.046-1.311 2.238-1.927 3.569-.285.572-.559 1.167-.822 1.785-.262.617-.535 1.212-.82 1.783-.238.524-.476 1.046-.715 1.57-.238.525-.476 1.049-.714 1.571-.285.667-.572 1.32-.854 1.963-.287.644-.596 1.296-.93 1.962-.143.286-.321.534-.534.751-.215.212-.369.462-.465.747-.284.667-.594 1.321-.928 1.966-.331.64-.737 1.246-1.212 1.818-.381.428-.763.845-1.142 1.25-.383.402-.761.822-1.142 1.246-.239.334-.476.667-.714 1.001-.238.332-.476.666-.714 1-.239.236-.403.356-.499.356-.619.143-1.225.236-1.82.284-.595.049-1.176-.094-1.749-.428-.331-.19-.665-.332-.998-.428-.332-.094-.642-.238-.927-.428-.38-.238-.751-.512-1.109-.819-.356-.312-.651-.658-.891-1.038-.284-.377-.489-.817-.606-1.318-.12-.5-.25-.989-.393-1.462-.093-.144-.177-.288-.25-.429-.071-.144-.178-.334-.319-.572 0-.045.023-.094.07-.144.049-.045.071-.118.071-.212-.141-.617-.108-1.2.107-1.747.214-.546.392-1.083.534-1.606.144-.428.312-.848.502-1.25.19-.405.379-.796.569-1.178.141-.284.215-.595.215-.929 0-.856.143-1.677.428-2.461.285-.786.548-1.582.784-2.391.381-1.236.786-2.449 1.215-3.638.427-1.19.857-2.402 1.285-3.644.237-.664.474-1.318.713-1.96.236-.643.476-1.296.712-1.962.049-.049.181-.133.395-.25.213-.121.462-.25.747-.393.286-.144.573-.286.858-.428.285-.145.524-.262.713-.357.239-.144.534-.201.893-.177.358.022.7.082 1.033.177.525.095 1.024.201 1.501.321.474.118.972.225 1.497.32.952.192 1.701.704 2.249 1.534.547.834.703 1.704.463 2.607-.142.381-.333.772-.569 1.177-.239.403-.455.796-.644 1.178-.285.667-.583 1.354-.891 2.069-.31.713-.608 1.428-.892 2.141-.241.526-.452 1.024-.642 1.5-.19.474-.383.974-.571 1.498-.143.287-.168.738-.072 1.355.095-.189.201-.345.32-.462.118-.118.226-.274.323-.462.428-.668.842-1.323 1.249-1.966.403-.641.822-1.296 1.247-1.962.809-1.187 1.618-2.285 2.428-3.286.095-.139.154-.283.179-.425.024-.144.081-.262.178-.356.094-.097.202-.181.321-.25.116-.072.2-.132.249-.181.143-.235.26-.425.357-.569.094-.143.191-.287.285-.431.858-.996 1.761-1.972 2.713-2.925.333-.38.654-.736.964-1.07.309-.332.653-.594 1.033-.786.667-.236 1.332-.474 1.999-.713.665-.238 1.356-.286 2.07-.144.667.099 1.153.42 1.463.967.308.546.345 1.177.108 1.89-.097.428-.228.868-.393 1.322-.167.451-.298.891-.392 1.319-.097.332-.19.655-.287.962-.096.311-.19.609-.284.893-.239.811-.476 1.595-.715 2.357-.239.761-.499 1.546-.784 2.354-.192.525-.381 1.059-.571 1.605-.191.546-.383 1.084-.571 1.607 0 .095-.013.177-.035.25-.027.072-.035.154-.035.25-.192.618-.385 1.318-.575 2.104-.188.787-.331 1.583-.427 2.39-.095.809-.13 1.56-.107 2.25.024.69.155 1.247.393 1.676.141.191.261.286.358.286.474-.144 1.105-.69 1.892-1.643.784-.949 1.629-2.198 2.533-3.744.903-1.546 1.831-3.296 2.782-5.248.95-1.951 1.857-3.974 2.713-6.065.238-.523.642-.902 1.214-1.144.569-.235 1.118-.235 1.642 0 .57.242.974.633 1.212 1.179.238.549.238 1.083 0 1.606m-41.074-12.703c-.212.045-.427.094-.642.143-.213.045-.416.106-.606.177-.193.07-.285.157-.285.25-.098 0-.19-.048-.287-.142-.094-.096-.19-.141-.283-.141-.097 0-.251.057-.466.175-.213.12-.416.178-.606.178-.286 0-.559-.236-.821-.712-.261-.475-.476-1.085-.641-1.82-.168-.739-.297-1.58-.393-2.534-.098-.951-.142-1.902-.142-2.857 0-.757.058-1.496.177-2.212.119-.712.178-1.424.178-2.141 0-.094-.024-.163-.069-.212 0-.952.023-1.821.069-2.607.047-.784.072-1.652.072-2.605 0-1.854.072-3.271.213-4.245.143-.973.394-1.772.751-2.393.357-.615.822-1.213 1.392-1.782.569-.571 1.259-1.405 2.071-2.499.187-.332.45-.5.784-.5.286 0 .571.108.855.322.287.212.561.488.821.821.26.334.488.69.68 1.069.188.383.307.715.354 1 .43 1.189.678 2.5.751 3.926.07 1.427.107 2.761.107 3.997v2.072c0 3.473-.059 6.159-.18 8.062-.119 1.905-.248 3.333-.393 4.284 0 .238-.132.488-.392.747-.261.262-.559.527-.892.787-.331.262-.667.498-.997.713-.333.212-.598.39-.788.535-.047.048-.176.097-.392.144m-12.534-49.691c-2.532.963-5.296 1.445-8.292 1.445-1.214 0-2.447-.16-3.694-.482-1.249-.32-2.481-.73-3.692-1.23-.427-.215-.785-.339-1.07-.377-.286-.031-.679-.194-1.177-.48-.501-.356-1.036-.729-1.605-1.122-.572-.392-1.108-.765-1.607-1.124l-.105-.216-.109-.106c-1-.571-2.015-1.086-3.049-1.551-1.037-.463-2.018-1.087-2.943-1.872-.145-.144-.392-.413-.751-.804-.356-.39-.606-.658-.748-.802-.144-.143-.251-.304-.321-.482-.073-.179-.18-.336-.321-.483-1.214-2.066-2.072-4.082-2.569-6.045-.501-1.963-.748-4.121-.748-6.475v-2.249c.07-.642.161-1.567.267-2.783.107-1.212.195-1.924.267-2.14l.214-1.713c.285-1.924.553-3.816.803-5.671.249-1.857.696-3.675 1.336-5.46l.107-.107c.071-.07.109-.124.109-.16 0-.034.034-.089.108-.161l.211-.425c.143-.285.377-.75.696-1.395.323-.639.645-1.335.964-2.086.322-.749.644-1.444.964-2.086.322-.643.551-1.071.695-1.287.142-.14.392-.568.75-1.281s.605-1.213.75-1.499c1.64-2.855 3.37-5.153 5.19-6.904 1.818-1.746 4.082-3.548 6.797-5.403.067 0 .515-.09 1.337-.268.818-.178 1.302-.34 1.445-.482.355-.214.696-.48 1.017-.805.32-.32.659-.621 1.016-.908 1.286-.856 2.71-1.57 4.28-2.141.141-.141.482-.267 1.02-.373.533-.106 1.512-.162 2.94-.162.143.144.284.268.428.376.145.108.286.232.43.374l.642.429.213.641v.106c0 .214.125.464.375.75.248.287.516.428.802.428h3.532c2.213.643 3.976 1.996 5.296 4.068 1.322 2.07 2.302 5.279 2.944 9.629l-.106.538c0 .143.016.305.053.483s.053.338.053.48c0 .287-.016.482-.053.588-.037.107-.197.305-.481.59-.143.143-.802.428-1.98.856-1.175.428-3.015 1.604-5.511 3.531 0 .216.035.428.107.645.069.211.108.425.108.64-.361 0-.555-.179-.59-.534-.037-.356-.199-.535-.481-.535-.358 0-.534.124-.534.372 0 .251-.108.482-.324.697-.071-.145-.176-.357-.319-.64-.145-.286-.321-.429-.536-.429-.143 0-.287.068-.428.212-.142.144-.215.25-.215.323-.213-.217-.357-.323-.428-.323-.07.073-.143.106-.215.106s-.141.018-.213.054-.144.057-.214.057c-.214 0-.321-.073-.321-.217-.214-.997-.448-1.98-.695-2.942-.252-.963-.554-1.908-.911-2.837-.144-.214-.357-.32-.641-.32-.43 0-.642.106-.642.32-2.355 1.285-4.282 2.854-5.78 4.711-1.497 1.855-2.783 3.993-3.853 6.419l-.213.428c-.074.072-.109.127-.109.161 0 .038-.035.089-.106.161l-.107.106-.856 1.713v.643c-.071.425-.196.747-.373.963-.181.215-.341.534-.484.963l-.856 4.28c-.141.145-.233.501-.268 1.07-.035.574-.05 1.215-.05 1.927 0 .717-.02 1.392-.056 2.035-.036.642-.125 1.069-.267 1.281v2.678c0 1.642.123 3.192.373 4.656.252 1.463.872 2.907 1.874 4.336.357.428.642.73.858.907.212.179.569.269 1.068.269.856 0 1.639-.214 2.354-.642.714-.431 1.408-.925 2.088-1.499.677-.569 1.353-1.193 2.034-1.875.677-.675 1.337-1.229 1.979-1.657.357-.215.804-.411 1.337-.589.538-.175 1.017-.337 1.445-.48.285-.071.516-.216.696-.428.178-.216.409-.391.696-.535l3.212-1.391c.569-.216 1.193-.338 1.871-.376.678-.037 1.302-.089 1.874-.16 0 .211-.035.32-.108.32.429 0 .82-.214 1.178-.643v1.073c.855 0 1.284.284 1.284.856 0 .568-.162 1.427-.479 2.569-.324 1.14-.554 2.711-.696 4.709 0 .069.016.142.051.212.035.072.055.181.055.322 0 .072-.02.124-.055.16s-.051.09-.051.159v.215l-.323.641c0 .288.142.432.429.432.354 0 .676-.144.963-.432.142.076.214.254.214.535 0 .288-.197.503-.587.644-.393.143-.662.321-.805.534-.072.072-.143.253-.214.537-.071.286-.106.463-.106.536-.145.356-.411.711-.804 1.07-.391.357-.696.679-.91.963-.357.357-.641.747-.857 1.175-.212.428-.499.787-.853 1.07-2.357 1.643-4.801 2.945-7.334 3.907m-9.494 101.177h-2.375v-9.144l-4.106 5.473h-.467l-4.015-5.491v9.162h-2.375v-12.6h2.736l3.943 5.419 3.941-5.419h2.718zm-15.143-10.457h-3.997v10.44h-2.376v-10.44h-3.995v-2.161h10.368zm46.204-151.349c.142-.284.214-.57.214-.856v-.428c0-.07.016-.284.053-.642.035-.359.088-.732.162-1.125.07-.392.141-.748.211-1.07.072-.322.108-.552.108-.694.144-1.07.41-2.141.803-3.214.39-1.069.59-2.209.59-3.421.284-.359.587-.645.908-.856.322-.217.659-.501 1.019-.86.64-.425 1.174-.781 1.604-1.069.356-.284.694-.534 1.018-.751.319-.212.515-.318.587-.318h1.177c.569 0 1.212-.177 1.926-.535.713-.356 1.354-.537 1.927-.537.499 0 .856.287 1.071.856.069.645.122 1.302.159 1.981.037.678.054 1.372.054 2.089 0 .425-.017.874-.054 1.335-.037.465-.052.949-.052 1.445.14.144.214.361.214.641.07.288.142.806.215 1.553.07.749.105 1.197.105 1.339.071.358.124 1.284.161 2.783.035 1.498.054 3.605.054 6.313.143.144.213.34.213.59v1.98c.072.287.161.962.268 2.033.106 1.07.215 2.213.323 3.425.105 1.214.247 2.336.426 3.371.178 1.035.337 1.59.481 1.658.144 0 .964-.052 2.461-.161 1.501-.106 3.105-.211 4.819-.322 1.712-.103 3.995-.301 6.85-.586.141 0 .213-.144.213-.427 0-1.354-.055-2.768-.162-4.227-.107-1.463-.232-3.052-.374-4.764-.214-2.57-.322-5.567-.322-8.992v-2.514c0-.89.035-1.801.108-2.729v-1.285c0-.069.054-.336.161-.801.108-.464.159-.768.159-.911.071-.286.144-.696.217-1.23.069-.536.354-.802.854-.802h.215c0 .073-.037.212-.106.429-.072.211-.109.356-.109.428l-1.283 12.2c0 .143.017.444.053.908.034.465.053.769.053.91.142.357.233.785.267 1.285.037.5.056.928.056 1.284v.642l-.217.321.217.322-.323.535h.106c.071 0 .144.037.217.109.141.212.282.712.426 1.496.144.786.269 1.642.375 2.566.106.928.196 1.805.268 2.624.07.821.106 1.339.106 1.551 0 .359-.053.555-.161.59-.107.037-.232.199-.375.482h.536c.285 0 .661-.017 1.125-.054.462-.035.695-.229.695-.59 0-.14-.092-.338-.268-.588-.178-.248-.266-.48-.266-.696 0-.284.034-.462.106-.534.07-.072.107-.319.107-.75 0-.212-.072-.39-.213-.535l-.536-4.387c-.073-.569-.179-1.159-.322-1.768-.143-.603-.213-1.192-.213-1.764 0-.215.035-.428.107-.643.069-.213.106-.497.106-.856 0-.069-.071-.124-.213-.162-.145-.034-.215-.085-.215-.157v-.537c0-.069-.018-.392-.053-.964-.038-.568-.053-.925-.053-1.068-.215-.285-.322-.894-.322-1.82 0-.712.07-1.534.216-2.461.141-.929.282-1.836.427-2.73.142-.891.283-1.713.428-2.463.143-.748.213-1.336.213-1.765 0-.071-.019-.16-.053-.267-.036-.109-.053-.197-.053-.266l-.214-.322v-1.285c.141 0 .214-.072.214-.214l-.214-.43c0-.14.16-.281.482-.428.321-.141.856-.339 1.605-.586.749-.25 1.767-.606 3.05-1.071 1.283-.464 2.96-1.087 5.029-1.874.645 0 1.179.216 1.608.644.428.428.745.927.961 1.496.214.573.374 1.161.481 1.767.108.607.161 1.09.161 1.446 0 3.425.357 6.761 1.071 10.006.714 3.247 1.071 6.51 1.071 9.792 0 .143-.16.269-.482.374-.321.109-.482.341-.482.697s.071.714.214 1.07c.141.359.216.75.216 1.178v.749c-.287.144-.43.466-.43.963 0 .357.124.658.374.911.252.251.374.552.374.908 0 .213-.034.394-.106.534-.072.144-.106.357-.106.645 0 .071.034.142.106.211.072.075.106.178.106.323 0 .144-.071.286-.212.427 0 .073.053.217.161.429.107.213.195.356.267.428l.214 4.816c0 .071-.037.143-.108.212-.071.072-.106.148-.106.217v3.425c0 .142.035.479.106 1.016.071.534.108.874.108 1.018 0 3.209-.198 6.491-.589 9.844-.393 3.356-.589 6.638-.589 9.847v1.497c0 .075-.038.305-.107.696-.072.393-.108.695-.108.911-.071.142-.107.359-.107.643 0 .141-.035.25-.104.319h-.536v2.678l-.428-.109c-.072.287-.145.575-.216.856-.07.287-.233.661-.48 1.124-.251.465-.627 1.055-1.124 1.767-.502.712-1.179 1.603-2.034 2.675-.929 0-2.14-.302-3.639-.911-1.498-.604-3.391-1.62-5.672-3.048-.286-.217-.482-.713-.589-1.498-.108-.787-.159-1.785-.159-2.997 0-1.357.051-2.838.159-4.444.107-1.604.229-3.19.375-4.763.141-1.565.282-2.997.428-4.278.142-1.287.249-2.249.32-2.891 0-.143.019-.266.055-.377.034-.105.053-.229.053-.372v-.322c0-.069.017-.123.053-.159.034-.037.055-.088.055-.16l.106-.109c0-.069.017-.106.054-.106.035 0 .053-.035.053-.107 0-.284-.037-.552-.107-.805-.072-.247-.286-.408-.642-.48-.428.573-.68 1.251-.75 2.035-.071.784-.106 1.568-.106 2.354 0 .787-.055 1.534-.162 2.247-.106.714-.197 1.462-.268 2.246l-.856 11.133-.106-1.607c0-2.782.017-5.601.055-8.454.034-2.854.122-5.672.268-8.456 0-.069.033-.268.106-.587.07-.321.107-.516.107-.588 0-.215.035-.589.107-1.124.069-.538.106-.839.106-.911 0-.143-.037-.284-.106-.428-.072-.141-.107-.25-.107-.323h-.536c-1.713.214-3.423.323-5.137.323s-3.462.038-5.243.106c-.074 0-.358.02-.856.055-.502.035-.822.052-.964.052l-1.498.215.213 1.926v4.175c0 1.499.017 3.013.053 4.547.036 1.535.054 3.015.054 4.443 0 .356.035.642.107.854.07.216.108.431.108.644v.643l-.215.747c0 .075.035.339.107.805.07.462.108.733.108.802 0 1.356-.02 2.141-.054 2.352-.038.217-.054.359-.054.431-.358 2.782-.695 4.707-1.017 5.779-.321 1.073-.961 1.785-1.927 2.141-.962.356-2.406.606-4.333.747-1.927.148-4.639.681-8.136 1.607-.142-.142-.211-.302-.211-.483v-.481c0-.143.016-.305.053-.483.033-.177.052-.301.052-.373 0-.143.017-.571.055-1.284.034-.712.088-1.48.16-2.301.07-.82.124-1.587.159-2.303.036-.709.055-1.174.055-1.39 0-.569-.055-1.14-.161-1.713-.107-.569-.162-1.14-.162-1.712 0-.356.018-.658.055-.908.035-.25.124-.551.268-.91v-7.28c0-.212-.019-.73-.055-1.547-.035-.823-.089-1.679-.159-2.569-.072-.895-.126-1.73-.16-2.517-.038-.786-.055-1.285-.055-1.501v-1.819c0-.569-.145-1.175-.427-1.82v-12.518c-.071-.072-.106-.178-.106-.325-.074-.141-.109-.281-.109-.425l.109-.322c0-2.069-.074-4.103-.215-6.1-.143-1.998-.214-4.032-.214-6.101zm55.438 22.689c.997-2.925 2.317-5.779 3.96-8.563.783-1.425 1.57-2.905 2.355-4.44.782-1.534 1.745-2.908 2.889-4.12.07-.14.267-.377.589-.695.321-.322.677-.659 1.07-1.018.391-.356.75-.695 1.068-1.016.322-.323.555-.552.696-.697l2.355-1.818c.215-.216.462-.322.751-.322.783-.356 1.587-.802 2.408-1.339.818-.534 1.586-1.086 2.299-1.658l1.713-1.39c.072-.072.162-.162.269-.268.105-.109.196-.16.266-.16l.429.212c.356 0 .589-.086.695-.268.108-.175.268-.335.481-.48.857-.5 1.767-.911 2.729-1.23.964-.321 1.873-.732 2.728-1.233.216-.067.553-.194 1.02-.372.463-.18.963-.36 1.498-.538.533-.178 1.032-.336 1.497-.483.462-.139.803-.247 1.017-.319.785 0 1.589-.089 2.409-.266.819-.178 1.659-.34 2.516-.483.142 0 .462.019.962.055.499.036 1.035.072 1.604.105.571.037 1.108.055 1.606.055h1.5c.282 0 .498-.055.641-.16.143-.108.356-.162.643-.162.642 0 1.426.216 2.355.641.926.431 1.639.75 2.138.965 1.642.785 3.337 1.891 5.086 3.316 1.746 1.429 3.083 2.928 4.012 4.498.641 1.14 1.286 2.445 1.926 3.904.642 1.463 1.231 2.98 1.767 4.549.533 1.572 1.032 3.142 1.498 4.709.464 1.572.838 2.997 1.123 4.282.07.072.125.304.162.695.034.394.053.661.053.802.07.36.16.787.267 1.285.107.5.161.965.161 1.39 0 1.571-.106 3.072-.322 4.498-.211 1.426-.428 2.89-.64 4.386-.146 1.001-.233 1.946-.268 2.837-.038.893-.198 1.839-.484 2.837-.212.856-.694 2.016-1.441 3.479-.75 1.462-1.699 2.798-2.838 4.01-.071.072-.232.253-.483.539-.25.284-.518.625-.801 1.017-.287.391-.552.747-.802 1.069-.252.321-.414.516-.482.588-.715.854-1.465 1.319-2.248 1.391-.787.072-1.571.394-2.355.963-1 .787-1.998 1.605-2.997 2.462-1 .856-2.032 1.675-3.103 2.462-.642.425-1.322.82-2.034 1.176-.715.359-1.391.75-2.034 1.178-.571.428-1.106.893-1.606 1.391-.499.5-1.105.894-1.82 1.178-.284.144-.463.284-.534.428-.07.144-.179.287-.32.428-.642.428-1.338.747-2.088.962-.747.214-1.48.467-2.194.748-1.643.787-3.407 1.413-5.298 1.874-1.892.465-3.763.694-5.617.694-1.858 0-3.676-.298-5.459-.907-1.785-.604-3.39-1.661-4.817-3.158-.213-.141-.5-.302-.855-.481-.358-.177-.537-.444-.537-.804-.57 0-1.121-.246-1.656-.746-.537-.5-.981-.929-1.341-1.285-.997-.856-1.98-1.802-2.943-2.839-.963-1.031-1.801-2.12-2.515-3.265-1.64-2.78-3.014-5.58-4.119-8.399-1.108-2.818-1.658-5.939-1.658-9.364 0-3.282.499-6.385 1.498-9.312m69.13 76.818c.642-.406 1.225-.581 1.751-.536.903.047 1.748.205 2.53.464.787.261 1.56.582 2.32.965.618.334.737.831.356 1.498-.378.522-.675 1.048-.892 1.571-.212.524-.485 1.046-.82 1.57-.284.476-.583.916-.894 1.321-.307.401-.653.795-1.031 1.175-.334.383-.689.727-1.071 1.037-.382.308-.762.652-1.141 1.035-.429.425-.823.654-1.178.675-.358.026-.798-.178-1.32-.603-.192-.145-.368-.299-.537-.466-.167-.167-.345-.321-.534-.465-.096-.046-.168-.07-.214-.07 0-.284-.047-.654-.144-1.106-.095-.45-.19-.905-.286-1.356-.093-.451-.179-.869-.248-1.249-.072-.38-.133-.642-.178-.786-.095-.333.036-.806.391-1.424.357-.621.808-1.215 1.357-1.788.546-.569 1.141-1.058 1.783-1.462m5.09-106.035c.178-.357.322-.695.429-1.018.105-.322.161-.551.161-.695.071-.144.141-.535.216-1.178.068-.641.142-1.031.212-1.178.071-.356.282-.658.64-.908.359-.247.538-.59.538-1.018l1.07-1.39c.141 0 .247-.034.323-.106.14-.144.248-.216.319-.216.355-.212.588-.589.694-1.123.108-.538.446-.801 1.018-.801.214 0 .5.177.856.533 1-.784 2.139-1.462 3.425-2.034 1.284-.57 2.606-1.035 3.962-1.391 1.925-.5 3.852-.747 5.777-.747 3.21 0 6.206.606 8.988 1.816 2.784 1.216 5.283 2.928 7.496 5.138.569.574.979 1.071 1.229 1.499.249.429.658.963 1.232 1.604.282.359.659.681 1.124.965.464.287.766.642.908 1.07 1.783 1.643 3.227 3.551 4.335 5.726 1.105 2.178 1.658 4.477 1.658 6.903 0 1.927-.286 3.835-.857 5.726-.57 1.89-1.32 3.658-2.245 5.298l-1.177 2.247-2.248 3.425c-.36.288-.625.59-.804.91s-.412.66-.694 1.016l-3.962 4.281c-.213 1.07-1.033 2.017-2.461 2.837-1.426.821-2.98 1.571-4.654 2.249-1.678.675-3.23 1.282-4.658 1.818-1.426.536-2.177 1.052-2.248 1.55 0 .075.036.198.108.376.071.178.109.305.109.377 0 .212-.038.407-.109.585-.072.179-.108.377-.108.59 0 1.285.092 2.587.269 3.905.176 1.321.338 2.589.481 3.801l.964 15.198c.071.5.212 1 .429 1.498.213.5.319 1.037.319 1.605 0 .357-.016.839-.052 1.446-.038.606-.197 1.088-.484 1.444v2.248c-.141.14-.23.39-.268.746-.033.358-.125.645-.266.857 0-.071-.035-.143-.108-.212-.068-.072-.143-.178-.213-.322-.072-.143-.144-.25-.212-.323-.288 0-.414.09-.374.271.035.175-.091.265-.377.265-.213 0-.411-.036-.587-.105-.18-.073-.376-.108-.59-.108-.356 0-.735.123-1.124.373-.393.253-.802.537-1.23.86-.428.319-.841.605-1.23.853-.393.25-.805.376-1.23.376-.287 0-.502-.037-.644-.105-.07.139-.358.389-.858.747-.498.356-.786.534-.856.534-.356.431-.767 1.016-1.23 1.767-.463.75-.908 1.302-1.337 1.658-.287-.072-.448-.265-.483-.586-.035-.322-.052-.662-.052-1.018-.073-.144-.145-.393-.214-.75-.073-.359-.108-.606-.108-.749-.212-.144-.338-.34-.373-.587-.04-.253-.055-.483-.055-.698v-.427c-.213-1.142-.374-2.053-.479-2.731-.109-.679-.217-1.315-.322-1.926-.107-.603-.16-1.016-.16-1.228 0-.145-.038-.392-.108-.751-.071-.356-.144-.713-.217-1.069-.069-.356-.125-.698-.157-1.019-.038-.32-.055-.516-.055-.588-.07-.356-.195-.944-.373-1.766-.181-.819-.36-1.692-.539-2.621-.176-.928-.357-1.818-.534-2.674-.176-.857-.266-1.501-.266-1.929-.072-.64-.091-1.23-.053-1.764.037-.537-.019-1.089-.16-1.661-.076-.642-.201-1.209-.376-1.713-.177-.497-.268-1.139-.268-1.925v-.537c0-.57-.034-1.104-.106-1.604-.073-.5-.145-.997-.214-1.499-.074-.425-.144-1.281-.214-2.566-.071-1.284-.162-2.625-.269-4.015-.105-1.39-.211-2.638-.322-3.747-.105-1.103-.196-1.692-.266-1.764-.357-4.925-.893-9.847-1.605-14.769-.285-2-.607-3.997-.964-5.994-.357-1.998-.533-4.032-.533-6.101v-1.178c.142-.068.229-.284.267-.643.036-.353.123-.603.266-.748v-2.783c0-.497-.017-.978-.053-1.443s-.125-.874-.268-1.23c-.142-.287-.302-.606-.479-.965-.18-.356-.267-.642-.267-.856.212-.57.408-1.035.585-1.391m200.239 36.682c-7.404-1.184-18.666 2.075-33.778 5.632-15.114 3.557-32.3 3.259-32.3 3.259-42.736 0-48.647-30.06-49.286-45.853v-6.295c.006-.141.012-.221.012-.221l-.012.094v-4.206c0-23.045-18.68-41.724-41.723-41.724h-214.89c-23.044 0-41.723 18.679-41.723 41.724v157.704c0 23.045 18.679 41.726 41.723 41.726h214.89c23.043 0 41.723-18.681 41.723-41.726v-5.927c4.419-43.128 27.673-41.664 41.583-44.033 13.927-2.37 24.295-1.182 35.558.889 11.261 2.074 27.853 6.519 38.223 5.927 10.375-.591 28.449-12.743 28.449-34.667 0-21.931-21.04-31.114-28.449-32.303" transform="matrix(1.58318 0 0 1.73697 689.878 361.477)"/></g></svg>