<?xml version="1.0" encoding="UTF-8" standalone="no"?>
<!DOCTYPE svg PUBLIC "-//W3C//DTD SVG 1.1//EN" "http://www.w3.org/Graphics/SVG/1.1/DTD/svg11.dtd">
<svg width="100%" height="100%" viewBox="0 0 768 768" version="1.1" xmlns="http://www.w3.org/2000/svg" xmlns:xlink="http://www.w3.org/1999/xlink" xml:space="preserve" xmlns:serif="http://www.serif.com/" style="fill-rule:evenodd;clip-rule:evenodd;stroke-linejoin:round;stroke-miterlimit:1.41421;">
    <g transform="matrix(1.58318,0,0,1.73697,398.634,305.388)">
        <path d="M0,-14.233C0.284,-13.234 0.444,-12.268 0.483,-11.344C0.52,-10.416 0.569,-9.452 0.645,-8.453C0.712,-7.739 0.874,-7.01 1.124,-6.258C1.372,-5.51 1.568,-4.778 1.714,-4.065L1.714,-3.476C1.714,-3.154 1.729,-2.816 1.765,-2.458C1.801,-2.102 1.819,-1.781 1.819,-1.496L1.819,-0.962C1.819,-0.748 1.89,-0.247 2.034,0.536C2.179,1.323 2.32,2.125 2.46,2.943C2.605,3.766 2.748,4.516 2.89,5.194C3.03,5.872 3.141,6.207 3.211,6.207C3.428,6.207 3.816,6.05 4.39,5.728C4.961,5.406 5.546,5.032 6.155,4.604C6.76,4.176 7.314,3.766 7.813,3.371C8.313,2.981 8.631,2.713 8.775,2.569C8.988,2.286 9.186,1.981 9.365,1.662C9.544,1.341 9.739,1.07 9.955,0.857C10.31,0.501 10.792,0.093 11.398,-0.373C12.003,-0.838 12.377,-1.355 12.522,-1.924C12.879,-2.924 13.112,-3.76 13.217,-4.441C13.324,-5.116 13.379,-6.062 13.379,-7.277C13.379,-9.059 12.95,-10.754 12.093,-12.36C11.236,-13.967 10.148,-15.357 8.831,-16.536C7.507,-17.711 5.993,-18.655 4.281,-19.372C2.571,-20.081 0.857,-20.44 -0.856,-20.44L-0.856,-16.587C-0.856,-16.443 -0.731,-16.053 -0.479,-15.412C-0.231,-14.769 -0.071,-14.375 0,-14.233" style="fill:rgb(6,5,5);fill-rule:nonzero;"/>
    </g>
    <g transform="matrix(1.58318,0,0,1.73697,282.909,300.559)">
        <path d="M0,23.866C1.498,26.223 3.655,28.415 6.474,30.447C9.291,32.481 13.126,33.711 17.979,34.142C17.979,34.285 18.05,34.372 18.193,34.408C18.334,34.447 18.477,34.498 18.623,34.57L22.153,33.498C22.224,33.426 22.384,33.374 22.634,33.337C22.885,33.302 23.079,33.286 23.225,33.286C24.224,32.285 25.08,31.251 25.793,30.181C26.505,29.111 27.217,27.969 27.932,26.757C28.29,26.186 28.645,25.616 29.002,25.044C29.359,24.473 29.682,23.901 29.967,23.332C30.965,21.047 31.732,18.659 32.268,16.16C32.802,13.663 33.069,11.166 33.069,8.668C33.069,7.812 32.979,6.832 32.802,5.723C32.624,4.62 32.464,2.781 32.32,0.212L32.32,-0.109C32.32,-0.678 32.069,-1.552 31.572,-2.73C31.073,-3.907 30.269,-5.083 29.162,-6.261C28.056,-7.44 26.666,-8.471 24.989,-9.367C23.313,-10.256 21.299,-10.704 18.943,-10.704C17.587,-10.704 16.247,-10.65 14.928,-10.542C13.607,-10.437 12.235,-10.238 10.809,-9.954L5.566,-7.922C4.779,-7.635 4.136,-7.226 3.639,-6.689C3.138,-6.155 2.71,-5.565 2.354,-4.926C2.141,-4.567 1.98,-4.175 1.872,-3.747C1.764,-3.319 1.604,-2.926 1.391,-2.569C-0.107,0.143 -1.356,2.853 -2.355,5.566C-3.355,8.276 -3.854,11.2 -3.854,14.338C-3.782,14.484 -3.497,15.517 -2.998,17.444C-2.5,19.37 -1.498,21.511 0,23.866" style="fill:rgb(6,5,5);fill-rule:nonzero;"/>
    </g>
    <g transform="matrix(1.58318,0,0,1.73697,306.319,432.172)">
        <path d="M0,22.128C-0.047,22.223 -0.072,22.293 -0.072,22.341C-0.072,22.388 -0.095,22.461 -0.141,22.554C0.095,22.174 0.308,21.794 0.5,21.413C0.691,21.033 0.882,20.628 1.074,20.2C1.31,19.676 1.559,19.153 1.818,18.63C2.079,18.107 2.33,17.584 2.57,17.06C2.809,16.536 3.045,16.037 3.285,15.561C3.521,15.086 3.757,14.586 3.996,14.061C4.425,13.254 4.831,12.445 5.21,11.637C5.451,11.255 5.662,10.863 5.851,10.458C6.042,10.055 6.233,9.661 6.425,9.281C6.613,8.9 6.794,8.52 6.961,8.139C7.125,7.759 7.306,7.379 7.494,6.998C7.589,6.759 7.696,6.532 7.817,6.319C7.934,6.105 8.041,5.88 8.136,5.641C8.232,5.403 8.316,5.201 8.385,5.034C8.456,4.867 8.54,4.69 8.637,4.5C9.064,3.834 9.419,3.071 9.707,2.215C9.754,2.121 9.779,2.049 9.779,2.001C9.779,1.953 9.802,1.882 9.848,1.786C9.994,1.406 10.087,1.072 10.134,0.787C10.182,0.503 10.065,0.242 9.779,0.003C9.587,-0.092 9.54,-0.236 9.635,-0.426C9.54,-0.426 9.482,-0.414 9.459,-0.389C9.435,-0.366 9.399,-0.353 9.35,-0.353C8.253,0.313 7.494,1.191 7.065,2.287C7.018,2.382 6.996,2.477 6.996,2.572C6.996,2.668 6.97,2.761 6.924,2.857C6.877,3.001 6.854,3.143 6.854,3.285C6.854,3.429 6.805,3.547 6.71,3.644C6.566,3.976 6.425,4.296 6.279,4.607C6.139,4.917 5.998,5.213 5.851,5.499C5.52,6.116 5.259,6.713 5.068,7.283C4.736,8.044 4.413,8.782 4.105,9.494C3.794,10.208 3.497,10.948 3.213,11.707C3.022,12.231 2.902,12.683 2.856,13.063C2.762,13.397 2.665,13.731 2.57,14.061C2.474,14.395 2.354,14.705 2.21,14.991C1.974,15.515 1.783,16.024 1.642,16.524C1.501,17.025 1.355,17.536 1.215,18.059L1.143,18.487L0.5,20.628C0.404,20.867 0.32,21.117 0.251,21.378C0.179,21.639 0.095,21.89 0,22.128" style="fill:rgb(6,5,5);fill-rule:nonzero;"/>
    </g>
    <g transform="matrix(1.58318,0,0,1.73697,405.978,430.937)">
        <path d="M0,12.489C-0.051,13.014 -0.098,13.536 -0.145,14.059C-0.191,14.584 -0.239,15.105 -0.286,15.629L-0.072,15.629C0.167,15.011 0.415,14.405 0.679,13.809C0.938,13.215 1.187,12.633 1.428,12.06C2.091,10.445 2.698,8.825 3.245,7.208C3.794,5.591 4.209,3.949 4.496,2.284C4.639,1.523 4.768,0.785 4.887,0.073C5.008,-0.642 5.139,-1.379 5.279,-2.14C5.376,-2.854 5.043,-3.14 4.28,-2.998C4.185,-2.949 4.089,-2.926 3.996,-2.926C3.897,-2.926 3.805,-2.903 3.709,-2.854C3.613,-2.615 3.533,-2.355 3.461,-2.07C3.39,-1.785 3.305,-1.522 3.21,-1.284C3.069,-0.761 2.938,-0.238 2.818,0.286C2.698,0.809 2.542,1.333 2.354,1.857C2.162,2.523 1.962,3.176 1.747,3.818C1.534,4.461 1.331,5.116 1.14,5.781C0.903,6.876 0.679,7.982 0.464,9.1C0.248,10.219 0.094,11.348 0,12.489" style="fill:rgb(6,5,5);fill-rule:nonzero;"/>
    </g>
    <g transform="matrix(1.58318,0,0,1.73697,440.997,430.915)">
        <path d="M0,12.514C-0.048,13.04 -0.096,13.564 -0.145,14.087C-0.192,14.613 -0.24,15.135 -0.286,15.66L-0.072,15.66C0.164,15.041 0.415,14.433 0.68,13.837C0.94,13.242 1.191,12.658 1.43,12.084C2.097,10.465 2.706,8.843 3.254,7.223C3.801,5.602 4.22,3.957 4.505,2.289C4.647,1.527 4.779,0.787 4.899,0.074C5.018,-0.643 5.147,-1.382 5.289,-2.144C5.386,-2.859 5.05,-3.146 4.288,-3.004C4.191,-2.954 4.1,-2.931 4.003,-2.931C3.908,-2.931 3.812,-2.908 3.719,-2.859C3.622,-2.62 3.54,-2.359 3.468,-2.073C3.396,-1.788 3.311,-1.524 3.219,-1.286C3.074,-0.761 2.942,-0.238 2.826,0.287C2.706,0.811 2.55,1.336 2.358,1.861C2.166,2.529 1.965,3.182 1.754,3.826C1.537,4.47 1.333,5.127 1.145,5.793C0.905,6.89 0.68,7.998 0.465,9.118C0.248,10.24 0.095,11.371 0,12.514" style="fill:rgb(6,5,5);fill-rule:nonzero;"/>
    </g>
    <g transform="matrix(1.58318,0,0,1.73697,689.878,361.477)">
        <path d="M0,25.934C-6.3,25.934 -11.407,20.828 -11.407,14.529C-11.407,8.228 -6.3,3.122 0,3.122C6.3,3.122 11.408,8.228 11.408,14.529C11.408,20.828 6.3,25.934 0,25.934M-145.71,74.573C-145.759,74.667 -145.887,75.061 -146.102,75.75C-146.314,76.44 -146.602,77.323 -146.956,78.391C-147.313,79.46 -147.719,80.676 -148.17,82.032C-148.625,83.389 -149.063,84.754 -149.489,86.135L-153.059,97.269C-153.107,97.555 -153.235,97.839 -153.452,98.125C-153.665,98.411 -153.822,98.695 -153.915,98.982C-154.106,99.313 -154.251,99.669 -154.345,100.051C-154.44,100.431 -154.605,100.764 -154.844,101.052C-155.179,101.525 -155.428,102.026 -155.594,102.548C-155.762,103.072 -155.962,103.572 -156.198,104.049C-156.437,104.476 -156.677,104.916 -156.913,105.367C-157.153,105.821 -157.436,106.235 -157.771,106.617C-158.292,107.235 -158.854,107.821 -159.447,108.367C-160.041,108.913 -160.604,109.497 -161.124,110.114C-161.552,110.637 -162.053,111.043 -162.621,111.33C-163.194,111.613 -163.791,111.875 -164.406,112.114C-165.646,112.542 -166.87,112.767 -168.084,112.792C-169.295,112.815 -170.5,112.349 -171.688,111.399C-173.401,110.069 -174.709,108.45 -175.613,106.545C-175.897,105.833 -176.114,105.095 -176.255,104.332C-176.396,103.572 -176.564,102.786 -176.754,101.978C-176.85,101.695 -176.873,101.396 -176.824,101.086C-176.81,100.993 -176.813,100.892 -176.804,100.797C-176.858,100.883 -176.904,100.973 -176.97,101.052C-177.302,101.525 -177.553,102.026 -177.717,102.548C-177.885,103.072 -178.086,103.572 -178.326,104.049C-178.564,104.476 -178.8,104.916 -179.037,105.367C-179.274,105.821 -179.562,106.235 -179.893,106.617C-180.418,107.235 -180.976,107.821 -181.571,108.367C-182.169,108.913 -182.725,109.497 -183.25,110.114C-183.679,110.637 -184.177,111.043 -184.748,111.33C-185.317,111.613 -185.914,111.875 -186.532,112.114C-187.769,112.542 -188.992,112.767 -190.207,112.792C-191.421,112.815 -192.621,112.349 -193.811,111.399C-195.524,110.069 -196.832,108.45 -197.737,106.545C-198.023,105.833 -198.235,105.095 -198.377,104.332C-198.522,103.572 -198.687,102.786 -198.88,101.978C-198.973,101.695 -198.996,101.396 -198.95,101.086C-198.903,100.775 -198.88,100.456 -198.88,100.123C-198.924,99.695 -198.961,99.252 -198.986,98.804C-199.01,98.351 -199.043,97.884 -199.094,97.411C-199.094,97.316 -199.08,97.232 -199.057,97.161C-199.031,97.088 -199.021,97.006 -199.021,96.91C-198.924,96.292 -198.867,95.686 -198.845,95.092C-198.82,94.495 -198.783,93.89 -198.734,93.27C-198.639,92.606 -198.58,91.917 -198.558,91.201C-198.531,90.489 -198.403,89.799 -198.165,89.132C-198.033,88.668 -197.939,88.196 -197.864,87.72C-198.113,88.109 -198.359,88.489 -198.593,88.845C-199.687,90.512 -200.59,91.808 -201.306,92.736C-202.02,93.664 -202.398,94.15 -202.447,94.198L-202.877,94.626C-203.255,95.103 -203.649,95.58 -204.051,96.055C-204.457,96.529 -204.898,96.96 -205.371,97.339C-205.849,97.717 -206.337,98.088 -206.836,98.446C-207.335,98.805 -207.92,99.028 -208.584,99.122C-209.107,99.172 -209.631,99.149 -210.153,99.052C-210.679,98.956 -211.201,98.911 -211.725,98.911C-212.771,98.956 -213.662,98.755 -214.401,98.302C-215.137,97.85 -215.817,97.27 -216.436,96.554C-216.976,95.906 -217.396,95.241 -217.722,94.562C-218.262,95.385 -218.807,96.187 -219.36,96.947C-220.836,98.967 -222.216,100.574 -223.502,101.764C-223.691,101.954 -223.881,102.123 -224.07,102.265C-224.261,102.407 -224.453,102.548 -224.64,102.692C-224.739,102.787 -224.845,102.882 -224.964,102.976C-225.083,103.07 -225.188,103.166 -225.286,103.263L-225.928,103.908C-226.262,104.287 -226.712,104.522 -227.282,104.62L-227.353,104.62C-227.499,104.715 -227.64,104.809 -227.781,104.905C-227.926,104.999 -228.068,105.093 -228.209,105.189C-228.307,105.235 -228.426,105.333 -228.566,105.476C-228.947,105.761 -229.258,105.928 -229.495,105.976C-229.685,106.072 -229.876,106.142 -230.067,106.189C-230.257,106.235 -230.471,106.307 -230.709,106.404C-231.186,106.64 -231.686,106.832 -232.207,106.974C-232.731,107.116 -233.277,107.212 -233.85,107.261C-234.372,107.306 -234.909,107.332 -235.455,107.332C-236.002,107.332 -236.561,107.212 -237.13,106.974C-238.275,106.591 -239.153,105.901 -239.771,104.905C-239.869,104.809 -239.926,104.689 -239.949,104.548C-239.975,104.405 -240.01,104.287 -240.058,104.191C-240.154,103.953 -240.235,103.729 -240.307,103.514C-240.379,103.299 -240.533,103.142 -240.772,103.051C-241.01,102.953 -241.212,102.801 -241.379,102.585C-241.547,102.373 -241.675,102.169 -241.771,101.979C-241.868,101.836 -241.902,101.68 -241.878,101.517C-241.853,101.348 -241.819,101.192 -241.771,101.051L-241.771,100.764C-241.724,100.718 -241.7,100.622 -241.7,100.48L-241.628,100.338C-241.868,100.052 -241.972,99.778 -241.949,99.516C-241.927,99.253 -241.868,99.006 -241.771,98.767C-241.724,98.672 -241.7,98.505 -241.7,98.267C-241.653,97.173 -241.51,96.103 -241.271,95.057C-241.034,94.008 -240.772,92.985 -240.488,91.985L-240.488,91.773C-240.391,91.488 -240.298,91.201 -240.201,90.917C-240.107,90.632 -240.01,90.371 -239.916,90.133C-239.771,89.753 -239.641,89.394 -239.523,89.06C-239.404,88.729 -239.299,88.397 -239.202,88.063C-239.202,87.966 -239.19,87.873 -239.167,87.776C-239.144,87.682 -239.131,87.586 -239.131,87.492C-239.034,87.014 -238.929,86.564 -238.809,86.136C-238.69,85.707 -238.512,85.302 -238.275,84.923C-238.085,84.684 -237.965,84.448 -237.918,84.207C-237.869,83.972 -237.822,83.733 -237.775,83.495C-237.679,83.257 -237.609,83.043 -237.559,82.851C-237.515,82.661 -237.442,82.449 -237.347,82.207C-237.157,81.828 -236.989,81.449 -236.847,81.066C-236.703,80.688 -236.561,80.305 -236.42,79.926C-236.42,79.88 -236.407,79.842 -236.383,79.82C-236.358,79.793 -236.347,79.76 -236.347,79.711C-236.442,79.76 -236.539,79.88 -236.632,80.07C-236.919,80.45 -237.108,80.759 -237.203,80.995C-237.298,81.138 -237.382,81.294 -237.453,81.46C-237.525,81.626 -237.609,81.782 -237.703,81.922C-237.799,82.02 -237.894,82.115 -237.987,82.207C-238.085,82.305 -238.178,82.4 -238.275,82.495C-238.369,82.59 -238.443,82.65 -238.487,82.672C-238.536,82.699 -238.584,82.756 -238.631,82.851C-238.821,83.092 -238.989,83.305 -239.131,83.495C-239.272,83.684 -239.416,83.874 -239.56,84.067C-239.986,84.684 -240.463,85.302 -240.987,85.919L-241.128,86.136C-241.176,86.184 -241.247,86.253 -241.344,86.348C-241.438,86.446 -241.51,86.54 -241.556,86.633L-241.415,86.776L-241.628,86.992C-241.724,87.086 -242.033,87.561 -242.555,88.42C-243.08,89.277 -243.651,90.201 -244.269,91.201C-244.887,92.201 -245.447,93.13 -245.948,93.986C-246.445,94.842 -246.72,95.342 -246.767,95.485C-246.815,95.58 -247.052,95.913 -247.482,96.482C-247.907,97.055 -248.397,97.661 -248.944,98.301C-249.493,98.945 -249.992,99.528 -250.442,100.052C-250.895,100.574 -251.167,100.859 -251.263,100.908C-251.406,101.002 -251.741,101.131 -252.263,101.301C-252.787,101.465 -253.368,101.574 -254.011,101.62C-254.654,101.668 -255.319,101.608 -256.009,101.445C-256.699,101.276 -257.281,100.908 -257.757,100.338C-258.185,99.862 -258.458,99.207 -258.579,98.373C-258.639,97.952 -258.689,97.552 -258.731,97.172C-258.898,97.431 -259.028,97.613 -259.113,97.698C-259.589,98.313 -259.958,98.804 -260.221,99.16C-260.482,99.517 -260.73,99.862 -260.967,100.194C-261.207,100.525 -261.326,100.718 -261.326,100.764C-261.422,100.858 -261.586,101.029 -261.823,101.264C-262.062,101.502 -262.302,101.741 -262.539,101.979C-262.777,102.214 -263.015,102.442 -263.253,102.657C-263.49,102.871 -263.634,103.001 -263.68,103.052C-264.061,103.381 -264.455,103.691 -264.857,103.977C-265.265,104.264 -265.654,104.548 -266.037,104.833C-266.559,105.166 -267.047,105.488 -267.498,105.798C-267.951,106.106 -268.439,106.404 -268.96,106.688C-269.343,106.927 -269.724,107.155 -270.104,107.367C-270.484,107.58 -270.864,107.781 -271.245,107.973C-271.816,108.212 -272.388,108.439 -272.958,108.651C-273.528,108.867 -274.102,109.091 -274.671,109.329C-274.72,109.378 -274.769,109.401 -274.814,109.401C-274.861,109.401 -274.91,109.425 -274.957,109.47C-275.766,109.996 -276.609,110.318 -277.489,110.435C-278.371,110.553 -279.263,110.709 -280.166,110.902C-281.118,111.041 -282.046,111.102 -282.95,111.08C-283.853,111.053 -284.783,110.875 -285.735,110.541C-287.115,110.019 -288.292,109.307 -289.267,108.401C-290.24,107.496 -291.062,106.404 -291.729,105.12C-292.68,103.309 -293.274,101.312 -293.511,99.123C-293.56,98.741 -293.681,98.373 -293.87,98.017C-294.06,97.661 -294.25,97.293 -294.44,96.911C-294.44,96.815 -294.463,96.755 -294.51,96.733C-294.559,96.706 -294.584,96.672 -294.584,96.627C-294.44,96.055 -294.453,95.494 -294.619,94.948C-294.784,94.402 -294.749,93.845 -294.51,93.269C-294.32,92.845 -294.166,92.402 -294.047,91.952C-293.928,91.5 -293.82,91.057 -293.726,90.632C-293.632,90.393 -293.572,90.155 -293.548,89.917C-293.523,89.679 -293.464,89.443 -293.37,89.205C-293.179,88.537 -292.989,87.894 -292.798,87.276C-292.608,86.658 -292.417,86.018 -292.227,85.35C-292.131,84.922 -292.037,84.483 -291.942,84.029C-291.848,83.578 -291.752,83.115 -291.658,82.639C-291.609,82.449 -291.537,82.271 -291.443,82.103C-291.347,81.937 -291.252,81.732 -291.157,81.494C-290.968,81.066 -290.801,80.638 -290.659,80.213C-290.516,79.782 -290.349,79.353 -290.16,78.926C-290.015,78.546 -289.803,78.19 -289.516,77.857C-289.23,77.523 -289.207,77.095 -289.445,76.57C-289.016,75.907 -288.742,75.205 -288.623,74.466C-288.505,73.728 -288.255,73.026 -287.874,72.359C-287.78,72.22 -287.694,72.076 -287.625,71.932C-287.555,71.789 -287.471,71.647 -287.376,71.503C-287.185,71.219 -287.091,71.053 -287.091,71.005C-286.947,70.625 -286.816,70.303 -286.698,70.041C-286.578,69.779 -286.472,69.507 -286.375,69.22C-286.28,69.079 -286.198,68.923 -286.125,68.757C-286.056,68.59 -285.972,68.434 -285.876,68.292C-285.638,67.912 -285.389,67.544 -285.125,67.185C-284.865,66.829 -284.639,66.438 -284.449,66.007C-284.402,65.961 -284.27,65.723 -284.056,65.295C-283.843,64.867 -283.616,64.381 -283.378,63.832C-283.141,63.285 -282.891,62.775 -282.63,62.298C-282.369,61.823 -282.189,61.467 -282.093,61.228C-281.57,60.324 -281.049,59.513 -280.522,58.801C-280.285,58.421 -280.025,58.1 -279.736,57.834C-279.454,57.577 -279.194,57.277 -278.953,56.944C-278.81,56.755 -278.68,56.553 -278.562,56.338C-278.442,56.125 -278.31,55.922 -278.17,55.732C-277.979,55.494 -277.801,55.244 -277.633,54.982C-277.466,54.72 -277.264,54.448 -277.025,54.163C-276.933,54.065 -276.872,53.97 -276.849,53.875C-276.825,53.78 -276.765,53.685 -276.669,53.589C-276.433,53.352 -276.241,53.185 -276.099,53.091C-276.053,53.043 -276.015,52.996 -275.991,52.947C-275.969,52.901 -275.932,52.853 -275.885,52.806C-275.646,52.519 -275.408,52.235 -275.17,51.95C-274.933,51.663 -274.695,51.355 -274.457,51.021C-274.314,50.879 -274.196,50.726 -274.102,50.557C-274.005,50.393 -273.911,50.234 -273.813,50.095C-273.624,49.905 -273.447,49.724 -273.28,49.556C-273.112,49.39 -272.958,49.212 -272.816,49.022L-269.604,45.384C-269.509,45.287 -269.437,45.169 -269.39,45.025C-269.343,44.882 -269.272,44.765 -269.176,44.669C-269.032,44.479 -268.594,44.146 -267.856,43.668C-267.12,43.195 -266.333,42.718 -265.5,42.244C-264.667,41.766 -263.883,41.361 -263.145,41.029C-262.406,40.698 -261.942,40.529 -261.753,40.529C-261.467,40.577 -261.17,40.554 -260.861,40.46C-260.552,40.361 -260.23,40.315 -259.897,40.315C-259.28,40.27 -258.662,40.231 -258.042,40.206C-257.425,40.183 -256.805,40.244 -256.186,40.385C-255.282,40.623 -254.499,41.029 -253.831,41.6C-253.167,42.169 -252.642,42.93 -252.262,43.885C-251.738,45.215 -251.477,46.692 -251.477,48.31C-251.523,49.118 -251.574,49.938 -251.619,50.773C-251.667,51.605 -251.738,52.425 -251.834,53.234C-251.976,54.47 -252.642,55.422 -253.831,56.088C-254.451,56.421 -255.071,56.209 -255.688,55.447C-256.021,55.732 -256.295,55.781 -256.506,55.588C-256.723,55.398 -256.926,55.208 -257.115,55.018C-257.305,54.829 -257.507,54.53 -257.72,54.125C-257.935,53.72 -258.138,53.303 -258.328,52.875C-258.518,52.447 -258.662,52.007 -258.754,51.557C-258.852,51.105 -258.852,50.737 -258.754,50.451C-258.662,50.162 -258.591,49.867 -258.542,49.556C-258.494,49.246 -258.447,48.95 -258.398,48.666C-258.352,48.428 -258.447,48.249 -258.684,48.132C-258.922,48.014 -259.183,48.021 -259.47,48.166C-259.803,48.355 -260.124,48.56 -260.433,48.772C-260.742,48.988 -261.016,49.212 -261.254,49.45C-262.728,50.927 -263.965,52.591 -264.964,54.448C-265.393,55.208 -265.811,55.982 -266.213,56.767C-266.62,57.551 -267.011,58.35 -267.394,59.157C-267.582,59.539 -267.737,59.895 -267.856,60.228C-267.976,60.562 -268.081,60.918 -268.176,61.298C-268.415,61.823 -268.629,62.323 -268.819,62.797C-269.009,63.272 -269.2,63.77 -269.39,64.294C-269.626,65.007 -269.853,65.714 -270.068,66.401C-270.281,67.09 -270.509,67.794 -270.745,68.506C-271.08,69.461 -271.401,70.375 -271.708,71.253C-272.019,72.133 -272.34,73.05 -272.672,74.001C-272.912,74.668 -273.102,75.346 -273.244,76.035C-273.387,76.725 -273.577,77.406 -273.813,78.069L-274.671,81.066C-274.814,81.593 -274.957,82.103 -275.1,82.601C-275.242,83.101 -275.385,83.613 -275.528,84.135C-275.766,84.946 -276.006,85.73 -276.241,86.492C-276.479,87.252 -276.716,88.038 -276.955,88.844C-277.052,89.133 -277.097,89.431 -277.097,89.739C-277.097,90.049 -277.145,90.321 -277.242,90.559C-277.524,91.417 -277.669,92.27 -277.669,93.13C-277.669,93.986 -277.764,94.842 -277.954,95.699C-278.049,96.221 -278.155,96.721 -278.276,97.198C-278.395,97.671 -278.479,98.172 -278.524,98.695C-278.62,100.172 -278.62,101.62 -278.524,103.052C-278.524,103.476 -278.454,103.737 -278.31,103.833C-278.17,103.93 -277.908,103.93 -277.524,103.833C-276.147,103.453 -274.814,102.953 -273.528,102.335C-272.244,101.717 -270.983,101.002 -269.747,100.194C-267.986,99.051 -266.249,97.698 -264.535,96.127C-263.586,95.078 -262.575,93.83 -261.504,92.379C-260.433,90.928 -259.374,89.265 -258.328,87.385C-258.094,86.964 -257.862,86.527 -257.631,86.082C-257.625,86.017 -257.637,85.945 -257.615,85.886C-257.519,85.623 -257.424,85.397 -257.33,85.207C-257.281,85.112 -257.234,85.029 -257.186,84.957C-257.139,84.885 -257.115,84.803 -257.115,84.707C-256.734,83.043 -256.283,81.328 -255.76,79.57C-255.663,79.236 -255.556,78.915 -255.437,78.604C-255.319,78.297 -255.211,78 -255.117,77.713C-255.022,77.475 -254.95,77.263 -254.902,77.07C-254.854,76.88 -254.783,76.69 -254.689,76.501C-254.545,76.073 -254.404,75.656 -254.26,75.25C-254.117,74.849 -253.998,74.432 -253.905,74.001C-253.665,73.335 -253.44,72.67 -253.224,72.003C-253.012,71.337 -252.787,70.673 -252.549,70.007C-252.215,69.052 -251.858,68.068 -251.476,67.044C-251.097,66.021 -250.717,64.987 -250.336,63.938C-250.049,63.272 -249.775,62.608 -249.514,61.94C-249.253,61.274 -248.979,60.61 -248.694,59.944C-248.454,59.278 -248.194,58.633 -247.907,58.015C-247.623,57.399 -247.364,56.754 -247.123,56.088C-246.792,55.232 -246.423,54.399 -246.017,53.588C-245.615,52.781 -245.221,51.996 -244.839,51.234L-244.626,50.737C-244.245,50.117 -243.913,49.488 -243.627,48.844C-243.34,48.201 -243.102,47.548 -242.912,46.881C-242.82,46.643 -242.723,46.453 -242.627,46.309C-242.531,46.166 -242.439,46.001 -242.341,45.81C-242.246,45.573 -242.139,45.373 -242.021,45.204C-241.902,45.039 -241.868,44.836 -241.914,44.597C-241.914,44.408 -241.844,44.264 -241.7,44.168C-241.556,44.074 -241.438,43.978 -241.344,43.885L-241.128,43.67C-241.082,43.67 -241.034,43.646 -240.987,43.598C-240.938,43.598 -240.893,43.574 -240.844,43.525C-240.748,43.384 -240.607,43.134 -240.414,42.778C-240.226,42.419 -240.01,42.017 -239.771,41.566C-239.536,41.111 -239.308,40.649 -239.093,40.173C-238.88,39.694 -238.68,39.293 -238.487,38.959C-238.346,38.626 -238.227,38.365 -238.131,38.172C-238.037,37.985 -237.965,37.842 -237.918,37.744C-237.822,37.557 -237.691,37.425 -237.525,37.354C-237.358,37.282 -237.157,37.225 -236.919,37.174C-236.87,37.129 -236.798,37.104 -236.703,37.104C-236.18,36.865 -235.693,36.615 -235.24,36.353C-234.79,36.092 -234.349,35.772 -233.919,35.392C-232.542,34.249 -231.161,34.391 -229.782,35.819C-229.782,35.868 -229.733,35.937 -229.638,36.034C-229.353,36.318 -229.092,36.462 -228.854,36.462C-228.521,36.414 -228.187,36.532 -227.854,36.815C-227.663,37.057 -227.546,37.33 -227.499,37.638C-227.45,37.948 -227.474,38.247 -227.569,38.531C-227.711,38.913 -227.818,39.281 -227.889,39.637C-227.962,39.995 -228.046,40.362 -228.141,40.744L-228.209,41.172C-228.449,42.123 -228.723,43.052 -229.032,43.954C-229.341,44.858 -229.685,45.718 -230.067,46.525C-230.4,47.333 -230.744,48.132 -231.103,48.913C-231.458,49.7 -231.851,50.544 -232.277,51.451C-232.421,51.735 -232.564,52.008 -232.707,52.268C-232.851,52.531 -232.992,52.806 -233.135,53.091C-233.518,53.758 -233.85,54.375 -234.134,54.945C-234.276,55.277 -234.409,55.6 -234.528,55.91C-234.646,56.221 -234.777,56.542 -234.919,56.872C-235.062,57.255 -235.207,57.611 -235.348,57.945C-235.49,58.277 -235.656,58.633 -235.846,59.016C-236.086,59.489 -236.311,59.944 -236.524,60.369C-236.738,60.8 -236.967,61.228 -237.203,61.654L-238.059,63.154C-238.25,63.487 -238.415,63.809 -238.559,64.116C-238.703,64.427 -238.845,64.749 -238.989,65.081C-239.179,65.415 -239.356,65.735 -239.523,66.045C-239.689,66.354 -239.869,66.7 -240.058,67.079C-240.201,67.363 -240.355,67.65 -240.523,67.938C-240.691,68.223 -240.867,68.506 -241.057,68.792C-241.247,69.173 -241.415,69.461 -241.556,69.648C-241.653,69.886 -241.759,70.101 -241.878,70.291C-241.998,70.484 -242.104,70.673 -242.199,70.863C-242.439,71.291 -242.675,71.716 -242.912,72.144C-243.151,72.576 -243.389,72.98 -243.627,73.36C-243.817,73.694 -243.994,74.026 -244.161,74.357C-244.329,74.69 -244.507,75.024 -244.697,75.358C-244.792,75.547 -244.875,75.728 -244.947,75.892C-245.019,76.061 -245.102,76.214 -245.196,76.357C-245.624,77.213 -245.995,78.084 -246.304,78.964C-246.614,79.842 -246.908,80.736 -247.196,81.638C-247.291,81.876 -247.373,82.127 -247.443,82.389C-247.517,82.65 -247.601,82.923 -247.695,83.208L-247.907,83.779C-248.29,84.779 -248.575,85.777 -248.763,86.776C-248.812,86.874 -248.837,86.965 -248.837,87.064C-248.837,87.158 -248.86,87.254 -248.908,87.348C-248.956,87.73 -249.028,88.12 -249.123,88.526C-249.219,88.931 -249.43,89.299 -249.764,89.633L-249.764,90.276C-249.859,90.655 -249.932,90.966 -249.979,91.201C-249.837,90.966 -249.705,90.764 -249.586,90.595C-249.468,90.432 -249.336,90.227 -249.193,89.989C-248.908,89.609 -248.622,89.205 -248.337,88.776C-248.053,88.349 -247.766,87.92 -247.482,87.492C-247.291,87.109 -247.123,86.826 -246.98,86.633C-246.886,86.446 -246.792,86.278 -246.696,86.136C-246.599,85.992 -246.506,85.825 -246.41,85.636L-245.84,84.779C-245.459,84.161 -245.053,83.555 -244.626,82.961C-244.197,82.365 -243.795,81.782 -243.411,81.21L-241.057,78.213C-240.819,77.879 -240.57,77.57 -240.307,77.285C-240.045,77.001 -239.798,76.69 -239.56,76.357C-239.321,76.024 -239.083,75.714 -238.845,75.428C-238.604,75.144 -238.369,74.834 -238.131,74.501C-237.419,73.55 -236.657,72.576 -235.846,71.575C-235.514,71.196 -235.194,70.837 -234.883,70.504C-234.574,70.173 -234.253,69.817 -233.919,69.434C-233.682,69.196 -233.456,68.958 -233.242,68.72C-233.027,68.484 -232.802,68.246 -232.564,68.008C-232.468,67.912 -232.291,67.697 -232.03,67.363C-231.77,67.032 -231.493,66.673 -231.209,66.294C-230.828,65.817 -230.484,65.389 -230.175,65.006C-229.866,64.628 -229.663,64.37 -229.566,64.225C-228.758,63.369 -227.595,62.938 -226.068,62.938C-225.833,62.938 -225.605,62.953 -225.391,62.976C-225.177,63.001 -224.952,63.037 -224.715,63.082C-224.333,63.176 -224.025,63.226 -223.784,63.226C-223.359,63.32 -223,63.404 -222.716,63.475C-222.428,63.547 -222.241,63.703 -222.146,63.938C-221.957,64.461 -221.92,64.973 -222.038,65.473C-222.156,65.973 -222.288,66.461 -222.428,66.935C-222.669,67.553 -222.812,68.101 -222.857,68.576L-223,68.934C-223.097,69.124 -223.192,69.413 -223.285,69.791C-223.382,70.173 -223.478,70.504 -223.572,70.788C-223.811,71.788 -223.977,72.409 -224.07,72.648C-224.784,73.977 -225.167,75.262 -225.213,76.501L-225.213,76.645L-225.428,77.07C-225.523,77.263 -225.595,77.426 -225.643,77.57C-225.69,77.713 -225.736,77.879 -225.785,78.069C-225.879,78.308 -226.023,78.771 -226.213,79.461C-226.402,80.152 -226.594,80.83 -226.783,81.494C-226.974,82.207 -227.093,82.684 -227.14,82.923C-227.189,83.161 -227.237,83.329 -227.282,83.423C-227.38,83.517 -227.521,83.851 -227.711,84.42C-227.9,84.994 -228.046,85.446 -228.141,85.777L-228.068,85.777L-228.141,86.136C-228.236,86.419 -228.365,86.836 -228.531,87.385C-228.699,87.931 -228.865,88.466 -229.032,88.988C-229.199,89.512 -229.341,89.989 -229.46,90.417C-229.579,90.845 -229.638,91.083 -229.638,91.129C-229.733,91.37 -229.792,91.632 -229.817,91.916C-229.841,92.201 -229.876,92.463 -229.923,92.702C-230.019,93.034 -230.113,93.486 -230.209,94.058C-230.209,94.103 -230.221,94.164 -230.246,94.236C-230.269,94.307 -230.353,94.46 -230.494,94.698C-230.59,94.936 -230.744,95.27 -230.959,95.698C-231.172,96.126 -231.363,96.577 -231.53,97.055C-231.698,97.529 -231.851,97.969 -231.995,98.373C-232.136,98.779 -232.185,99.075 -232.136,99.267C-232.089,99.552 -232.054,99.838 -232.03,100.124C-232.006,100.408 -231.971,100.742 -231.921,101.122C-231.921,101.312 -231.897,101.478 -231.851,101.62C-231.755,101.526 -231.565,101.385 -231.28,101.192C-230.899,100.954 -230.541,100.73 -230.209,100.514C-229.876,100.302 -229.566,100.074 -229.282,99.838C-228.758,99.362 -228.187,98.828 -227.569,98.232C-226.951,97.635 -226.334,97.005 -225.714,96.341C-223.715,93.676 -221.836,90.989 -220.075,88.276C-219.314,87.133 -218.553,85.919 -217.79,84.635C-217.415,84 -217.085,83.354 -216.732,82.714C-216.635,82.355 -216.56,81.985 -216.436,81.639C-216.006,80.403 -215.566,79.164 -215.114,77.926C-214.661,76.69 -214.198,75.455 -213.723,74.217C-213.342,73.265 -212.973,72.303 -212.617,71.326C-212.262,70.352 -211.893,69.363 -211.51,68.363L-211.439,68.223C-211.391,68.079 -211.225,67.898 -210.94,67.684C-210.653,67.473 -210.332,67.259 -209.976,67.044C-209.619,66.828 -209.25,66.639 -208.869,66.472C-208.489,66.306 -208.181,66.177 -207.94,66.08C-207.753,66.032 -207.467,66.007 -207.085,66.007C-206.418,66.104 -205.743,66.188 -205.053,66.261C-204.363,66.328 -203.685,66.412 -203.019,66.508C-202.494,66.556 -201.958,66.828 -201.412,67.329C-200.867,67.829 -200.567,68.341 -200.519,68.863C-200.475,69.387 -200.567,70.03 -200.806,70.789C-200.948,71.314 -201.116,71.826 -201.306,72.323C-201.495,72.823 -201.686,73.334 -201.877,73.861C-201.971,74.049 -202.029,74.25 -202.055,74.467C-202.078,74.679 -202.139,74.883 -202.231,75.073C-202.471,75.455 -202.686,75.989 -202.877,76.68C-203.066,77.368 -203.231,78.093 -203.374,78.854C-203.517,79.616 -203.66,80.305 -203.804,80.925C-203.945,81.543 -204.042,81.949 -204.086,82.139C-204.326,82.806 -204.553,83.434 -204.768,84.03C-204.979,84.624 -205.207,85.23 -205.444,85.851C-205.683,86.517 -205.968,87.132 -206.299,87.705C-206.635,88.275 -206.92,88.893 -207.156,89.559C-207.394,90.086 -207.55,90.596 -207.62,91.094C-207.692,91.594 -207.823,92.106 -208.013,92.629C-208.11,92.914 -208.227,93.201 -208.37,93.485C-208.512,93.77 -208.656,94.08 -208.8,94.413C-208.37,94.509 -208.039,94.448 -207.8,94.235C-207.562,94.02 -207.348,93.795 -207.156,93.557C-207.014,93.414 -206.871,93.27 -206.728,93.129C-206.588,92.986 -206.443,92.818 -206.299,92.629C-206.299,92.535 -205.944,91.986 -205.23,90.988C-204.515,89.988 -203.588,88.621 -202.447,86.882C-201.306,85.146 -200.033,83.092 -198.628,80.71C-197.34,78.529 -196.041,76.112 -194.734,73.486C-194.594,72.876 -194.454,72.238 -194.311,71.575C-194.217,71.337 -194.159,71.076 -194.134,70.788C-194.11,70.504 -194.049,70.242 -193.954,70.007C-193.576,68.53 -193.23,67.067 -192.917,65.617C-192.608,64.164 -192.264,62.726 -191.885,61.297C-191.646,60.395 -191.373,59.501 -191.063,58.622C-190.755,57.743 -190.457,56.853 -190.171,55.943C-189.934,55.186 -189.733,54.409 -189.566,53.628C-189.398,52.841 -189.195,52.068 -188.958,51.307C-188.293,49.404 -187.613,47.499 -186.924,45.597C-186.235,43.694 -185.507,41.789 -184.748,39.887C-184.417,39.126 -184.033,38.376 -183.604,37.638C-183.177,36.902 -182.773,36.151 -182.394,35.391C-182.155,34.867 -181.987,34.273 -181.894,33.606C-181.845,33.227 -181.679,32.868 -181.391,32.534C-181.108,32.205 -180.918,31.846 -180.821,31.466C-180.014,31.086 -179.192,30.716 -178.361,30.359C-177.527,30.003 -176.683,29.682 -175.826,29.397C-175.256,29.207 -174.66,29.097 -174.042,29.075C-173.424,29.052 -172.827,28.966 -172.258,28.825C-171.591,28.635 -171.021,28.659 -170.545,28.897C-170.071,29.136 -169.572,29.374 -169.047,29.609C-168.617,29.799 -168.322,30.064 -168.154,30.396C-167.988,30.73 -167.881,31.086 -167.832,31.466C-167.739,32.132 -167.69,32.81 -167.69,33.5C-167.69,34.189 -167.715,34.867 -167.762,35.534C-167.858,36.58 -167.988,37.614 -168.154,38.638C-168.322,39.66 -168.498,40.673 -168.689,41.671C-168.831,42.385 -168.985,43.074 -169.153,43.742C-169.321,44.408 -169.523,45.074 -169.758,45.738C-170.142,46.738 -170.521,47.737 -170.902,48.738C-171.282,49.735 -171.661,50.712 -172.046,51.663C-172.235,52.091 -172.447,52.508 -172.686,52.913C-172.926,53.317 -173.164,53.732 -173.4,54.163C-173.641,54.731 -173.874,55.315 -174.114,55.91C-174.351,56.507 -174.589,57.088 -174.827,57.659C-174.925,57.899 -175.041,58.099 -175.187,58.267C-175.326,58.433 -175.447,58.634 -175.54,58.872C-175.826,59.35 -176.113,59.861 -176.396,60.407C-176.683,60.953 -176.872,61.324 -176.97,61.514C-177.111,61.846 -177.23,62.168 -177.324,62.476C-177.42,62.786 -177.611,63.058 -177.896,63.298C-177.99,63.392 -178.039,63.559 -178.039,63.794C-178.039,64.035 -178.086,64.225 -178.181,64.369C-178.564,65.081 -178.933,65.795 -179.29,66.507C-179.646,67.22 -180.014,67.938 -180.393,68.65C-180.632,69.174 -180.856,69.731 -181.072,70.326C-181.286,70.92 -181.439,71.504 -181.538,72.075C-181.633,72.455 -181.655,72.849 -181.606,73.251C-181.56,73.658 -181.56,74.05 -181.606,74.432C-181.655,75.099 -181.704,75.777 -181.75,76.467C-181.797,77.152 -181.894,77.83 -182.036,78.498C-182.274,79.736 -182.535,80.96 -182.822,82.173C-183.104,83.389 -183.441,84.613 -183.819,85.851C-184.108,86.658 -184.318,87.443 -184.461,88.204C-184.605,88.966 -184.774,89.753 -184.96,90.56C-185.057,91.038 -185.092,91.499 -185.068,91.951C-185.044,92.403 -185.083,92.846 -185.176,93.27C-185.225,93.603 -185.281,93.902 -185.353,94.163C-185.425,94.426 -185.484,94.724 -185.533,95.057C-185.631,95.58 -185.701,96.08 -185.745,96.554C-185.795,97.031 -185.843,97.528 -185.891,98.052C-185.891,98.626 -185.878,99.195 -185.853,99.767C-185.83,100.338 -185.795,100.908 -185.745,101.48C-185.745,101.718 -185.759,101.93 -185.782,102.123C-185.807,102.309 -185.817,102.575 -185.817,102.907C-185.437,102.575 -185.225,102.385 -185.176,102.336C-184.653,101.384 -184.152,100.446 -183.679,99.517C-183.201,98.589 -182.725,97.649 -182.248,96.699C-182.013,96.22 -181.785,95.758 -181.571,95.304C-181.356,94.853 -181.13,94.39 -180.894,93.913L-176.468,83.639C-175.897,82.351 -175.353,81.092 -174.827,79.853C-174.304,78.619 -173.83,77.513 -173.4,76.536C-173.384,76.497 -173.371,76.468 -173.354,76.43C-173.273,76.095 -173.199,75.767 -173.114,75.43C-172.925,74.765 -172.757,74.122 -172.615,73.501C-172.475,72.886 -172.329,72.243 -172.187,71.575C-172.09,71.337 -172.031,71.076 -172.006,70.788C-171.982,70.504 -171.926,70.242 -171.83,70.007C-171.449,68.53 -171.104,67.067 -170.796,65.617C-170.485,64.164 -170.143,62.726 -169.759,61.297C-169.524,60.395 -169.25,59.501 -168.94,58.622C-168.632,57.743 -168.333,56.853 -168.049,55.943C-167.811,55.186 -167.606,54.409 -167.439,53.628C-167.275,52.841 -167.072,52.068 -166.835,51.307C-166.167,49.404 -165.49,47.499 -164.799,45.597C-164.109,43.694 -163.385,41.789 -162.621,39.887C-162.291,39.126 -161.91,38.376 -161.481,37.638C-161.054,36.902 -160.65,36.151 -160.268,35.391C-160.029,34.867 -159.864,34.273 -159.768,33.606C-159.724,33.227 -159.556,32.868 -159.269,32.534C-158.982,32.205 -158.792,31.846 -158.699,31.466C-157.891,31.086 -157.069,30.716 -156.235,30.359C-155.404,30.003 -154.557,29.682 -153.705,29.397C-153.131,29.207 -152.538,29.097 -151.919,29.075C-151.301,29.052 -150.705,28.966 -150.136,28.825C-149.469,28.635 -148.898,28.659 -148.422,28.897C-147.945,29.136 -147.446,29.374 -146.92,29.609C-146.493,29.799 -146.196,30.064 -146.028,30.396C-145.865,30.73 -145.759,31.086 -145.71,31.466C-145.613,32.132 -145.563,32.81 -145.563,33.5C-145.563,34.189 -145.591,34.867 -145.636,35.534C-145.732,36.58 -145.865,37.614 -146.028,38.638C-146.196,39.66 -146.377,40.673 -146.566,41.671C-146.708,42.385 -146.862,43.074 -147.03,43.742C-147.197,44.408 -147.397,45.074 -147.636,45.738C-148.016,46.738 -148.396,47.737 -148.776,48.738C-149.159,49.735 -149.538,50.712 -149.919,51.663C-150.109,52.091 -150.325,52.508 -150.561,52.913C-150.802,53.317 -151.036,53.732 -151.275,54.163C-151.513,54.731 -151.751,55.315 -151.991,55.91C-152.228,56.507 -152.466,57.088 -152.701,57.659C-152.799,57.899 -152.918,58.099 -153.059,58.267C-153.2,58.433 -153.319,58.634 -153.416,58.872C-153.705,59.35 -153.987,59.861 -154.272,60.407C-154.557,60.953 -154.751,61.324 -154.844,61.514C-154.986,61.846 -155.104,62.168 -155.201,62.476C-155.297,62.786 -155.488,63.058 -155.771,63.298C-155.867,63.392 -155.913,63.559 -155.913,63.794C-155.913,64.035 -155.962,64.225 -156.058,64.369C-156.437,65.081 -156.805,65.795 -157.162,66.507C-157.52,67.22 -157.891,67.938 -158.27,68.65C-158.508,69.174 -158.733,69.731 -158.946,70.326C-159.163,70.92 -159.317,71.504 -159.412,72.075C-159.507,72.455 -159.529,72.849 -159.48,73.251C-159.437,73.658 -159.437,74.05 -159.48,74.432C-159.529,75.099 -159.578,75.777 -159.626,76.467C-159.675,77.152 -159.768,77.83 -159.908,78.498C-160.151,79.736 -160.412,80.96 -160.696,82.173C-160.981,83.389 -161.313,84.613 -161.695,85.851C-161.98,86.658 -162.196,87.443 -162.338,88.204C-162.48,88.966 -162.646,89.753 -162.836,90.56C-162.934,91.038 -162.969,91.499 -162.943,91.951C-162.92,92.403 -162.957,92.846 -163.05,93.27C-163.097,93.603 -163.158,93.902 -163.229,94.163C-163.302,94.426 -163.361,94.724 -163.407,95.057C-163.503,95.58 -163.575,96.08 -163.623,96.554C-163.672,97.031 -163.717,97.528 -163.765,98.052C-163.765,98.626 -163.756,99.195 -163.729,99.767C-163.707,100.338 -163.672,100.908 -163.623,101.48C-163.623,101.718 -163.635,101.93 -163.659,102.123C-163.681,102.309 -163.694,102.575 -163.694,102.907C-163.312,102.575 -163.097,102.385 -163.05,102.336C-162.527,101.384 -162.028,100.446 -161.552,99.517C-161.078,98.589 -160.604,97.649 -160.125,96.699C-159.889,96.22 -159.662,95.758 -159.447,95.304C-159.233,94.853 -159.009,94.39 -158.771,93.913L-154.345,83.639C-153.773,82.351 -153.227,81.092 -152.701,79.853C-152.181,78.619 -151.702,77.513 -151.275,76.536C-150.847,75.56 -150.502,74.765 -150.241,74.145C-149.979,73.527 -149.849,73.193 -149.849,73.144C-149.609,72.575 -149.229,72.159 -148.705,71.897C-148.184,71.635 -147.636,71.599 -147.065,71.788C-146.493,72.03 -146.063,72.409 -145.779,72.932C-145.494,73.455 -145.472,74.001 -145.71,74.573M-298.436,74.573C-298.436,74.622 -298.555,74.929 -298.795,75.5C-299.033,76.072 -299.353,76.808 -299.757,77.713C-300.162,78.619 -300.65,79.639 -301.22,80.782C-301.792,81.923 -302.385,83.093 -303.004,84.279C-304.859,87.754 -306.573,90.275 -308.142,91.845C-309.713,93.413 -311.235,94.149 -312.711,94.058C-312.901,94.058 -313.139,94.009 -313.423,93.913C-314.663,93.63 -315.661,92.913 -316.421,91.773C-316.992,91.155 -317.383,90.465 -317.6,89.705C-317.812,88.942 -317.944,88.132 -317.993,87.275C-317.993,85.753 -317.732,84.161 -317.207,82.494C-316.969,81.733 -316.767,80.983 -316.599,80.247C-316.435,79.509 -316.255,78.759 -316.064,78.001C-315.97,77.76 -315.875,77.513 -315.78,77.248C-315.683,76.989 -315.59,76.739 -315.495,76.5C-315.209,75.69 -314.911,74.906 -314.602,74.145C-314.291,73.383 -313.995,72.599 -313.708,71.788C-313.616,71.363 -313.687,70.817 -313.923,70.148C-314.208,70.53 -314.496,70.887 -314.779,71.219C-315.065,71.553 -315.327,71.909 -315.564,72.288C-316.23,73.334 -316.875,74.526 -317.491,75.857C-317.776,76.429 -318.05,77.024 -318.313,77.642C-318.575,78.259 -318.848,78.854 -319.133,79.425C-319.371,79.949 -319.609,80.471 -319.848,80.995C-320.086,81.52 -320.324,82.044 -320.562,82.566C-320.847,83.233 -321.134,83.886 -321.416,84.529C-321.703,85.173 -322.012,85.825 -322.346,86.491C-322.489,86.777 -322.667,87.025 -322.88,87.242C-323.095,87.454 -323.249,87.704 -323.345,87.989C-323.629,88.656 -323.939,89.31 -324.273,89.955C-324.604,90.595 -325.01,91.201 -325.485,91.773C-325.866,92.201 -326.248,92.618 -326.627,93.023C-327.01,93.425 -327.388,93.845 -327.769,94.269C-328.008,94.603 -328.245,94.936 -328.483,95.27C-328.721,95.602 -328.959,95.936 -329.197,96.27C-329.436,96.506 -329.6,96.626 -329.696,96.626C-330.315,96.769 -330.921,96.862 -331.516,96.91C-332.111,96.959 -332.692,96.816 -333.265,96.482C-333.596,96.292 -333.93,96.15 -334.263,96.054C-334.595,95.96 -334.905,95.816 -335.19,95.626C-335.57,95.388 -335.941,95.114 -336.299,94.807C-336.655,94.495 -336.95,94.149 -337.19,93.769C-337.474,93.392 -337.679,92.952 -337.796,92.451C-337.916,91.951 -338.046,91.462 -338.189,90.989C-338.282,90.845 -338.366,90.701 -338.439,90.56C-338.51,90.416 -338.617,90.226 -338.758,89.988C-338.758,89.943 -338.735,89.894 -338.688,89.844C-338.639,89.799 -338.617,89.726 -338.617,89.632C-338.758,89.015 -338.725,88.432 -338.51,87.885C-338.296,87.339 -338.118,86.802 -337.976,86.279C-337.832,85.851 -337.664,85.431 -337.474,85.029C-337.284,84.624 -337.095,84.233 -336.905,83.851C-336.764,83.567 -336.69,83.256 -336.69,82.922C-336.69,82.066 -336.547,81.245 -336.262,80.461C-335.977,79.675 -335.714,78.879 -335.478,78.07C-335.097,76.834 -334.692,75.621 -334.263,74.432C-333.836,73.242 -333.406,72.03 -332.978,70.788C-332.741,70.124 -332.504,69.47 -332.265,68.828C-332.029,68.185 -331.789,67.532 -331.553,66.866C-331.504,66.817 -331.372,66.733 -331.158,66.616C-330.945,66.495 -330.696,66.366 -330.411,66.223C-330.125,66.079 -329.838,65.937 -329.553,65.795C-329.268,65.65 -329.029,65.533 -328.84,65.438C-328.601,65.294 -328.306,65.237 -327.947,65.261C-327.589,65.283 -327.247,65.343 -326.914,65.438C-326.389,65.533 -325.89,65.639 -325.413,65.759C-324.939,65.877 -324.441,65.984 -323.916,66.079C-322.964,66.271 -322.215,66.783 -321.667,67.613C-321.12,68.447 -320.964,69.317 -321.204,70.22C-321.346,70.601 -321.537,70.992 -321.773,71.397C-322.012,71.8 -322.228,72.193 -322.417,72.575C-322.702,73.242 -323,73.929 -323.308,74.644C-323.618,75.357 -323.916,76.072 -324.2,76.785C-324.441,77.311 -324.652,77.809 -324.842,78.285C-325.032,78.759 -325.225,79.259 -325.413,79.783C-325.556,80.07 -325.581,80.521 -325.485,81.138C-325.39,80.949 -325.284,80.793 -325.165,80.676C-325.047,80.558 -324.939,80.402 -324.842,80.214C-324.414,79.546 -324,78.891 -323.593,78.248C-323.19,77.607 -322.771,76.952 -322.346,76.286C-321.537,75.099 -320.728,74.001 -319.918,73C-319.823,72.861 -319.764,72.717 -319.739,72.575C-319.715,72.431 -319.658,72.313 -319.561,72.219C-319.467,72.122 -319.359,72.038 -319.24,71.969C-319.124,71.897 -319.04,71.837 -318.991,71.788C-318.848,71.553 -318.731,71.363 -318.634,71.219C-318.54,71.076 -318.443,70.932 -318.349,70.788C-317.491,69.792 -316.588,68.816 -315.636,67.863C-315.303,67.483 -314.982,67.127 -314.672,66.793C-314.363,66.461 -314.019,66.199 -313.639,66.007C-312.972,65.771 -312.307,65.533 -311.64,65.294C-310.975,65.056 -310.284,65.008 -309.57,65.15C-308.903,65.249 -308.417,65.57 -308.107,66.117C-307.799,66.663 -307.762,67.294 -307.999,68.007C-308.096,68.435 -308.227,68.875 -308.392,69.329C-308.559,69.78 -308.69,70.22 -308.784,70.648C-308.881,70.98 -308.974,71.303 -309.071,71.61C-309.167,71.921 -309.261,72.219 -309.355,72.503C-309.594,73.314 -309.831,74.098 -310.07,74.86C-310.309,75.621 -310.569,76.406 -310.854,77.214C-311.046,77.739 -311.235,78.273 -311.425,78.819C-311.616,79.365 -311.808,79.903 -311.996,80.426C-311.996,80.521 -312.009,80.603 -312.031,80.676C-312.058,80.748 -312.066,80.83 -312.066,80.926C-312.258,81.544 -312.451,82.244 -312.641,83.03C-312.829,83.817 -312.972,84.613 -313.068,85.42C-313.163,86.229 -313.198,86.98 -313.175,87.67C-313.151,88.36 -313.02,88.917 -312.782,89.346C-312.641,89.537 -312.521,89.632 -312.424,89.632C-311.95,89.488 -311.319,88.942 -310.532,87.989C-309.748,87.04 -308.903,85.791 -307.999,84.245C-307.096,82.699 -306.168,80.949 -305.217,78.997C-304.267,77.046 -303.36,75.023 -302.504,72.932C-302.266,72.409 -301.862,72.03 -301.29,71.788C-300.721,71.553 -300.172,71.553 -299.648,71.788C-299.078,72.03 -298.674,72.421 -298.436,72.967C-298.198,73.516 -298.198,74.05 -298.436,74.573M-339.51,61.87C-339.722,61.915 -339.937,61.964 -340.152,62.013C-340.365,62.058 -340.568,62.119 -340.758,62.19C-340.951,62.26 -341.043,62.347 -341.043,62.44C-341.141,62.44 -341.233,62.392 -341.33,62.298C-341.424,62.202 -341.52,62.157 -341.613,62.157C-341.71,62.157 -341.864,62.214 -342.079,62.332C-342.292,62.452 -342.495,62.51 -342.685,62.51C-342.971,62.51 -343.244,62.274 -343.506,61.798C-343.767,61.323 -343.982,60.713 -344.147,59.978C-344.315,59.239 -344.444,58.398 -344.54,57.444C-344.638,56.493 -344.682,55.542 -344.682,54.587C-344.682,53.83 -344.624,53.091 -344.505,52.375C-344.386,51.663 -344.327,50.951 -344.327,50.234C-344.327,50.14 -344.351,50.071 -344.396,50.022C-344.396,49.07 -344.373,48.201 -344.327,47.415C-344.28,46.631 -344.255,45.763 -344.255,44.81C-344.255,42.956 -344.183,41.539 -344.042,40.565C-343.899,39.592 -343.648,38.793 -343.291,38.172C-342.934,37.557 -342.469,36.959 -341.899,36.39C-341.33,35.819 -340.64,34.985 -339.828,33.891C-339.641,33.559 -339.378,33.391 -339.044,33.391C-338.758,33.391 -338.473,33.499 -338.189,33.713C-337.902,33.925 -337.628,34.201 -337.368,34.534C-337.108,34.868 -336.88,35.224 -336.688,35.603C-336.5,35.986 -336.381,36.318 -336.334,36.603C-335.904,37.792 -335.656,39.103 -335.583,40.529C-335.513,41.956 -335.476,43.29 -335.476,44.526L-335.476,46.598C-335.476,50.071 -335.535,52.757 -335.656,54.66C-335.775,56.565 -335.904,57.993 -336.049,58.944C-336.049,59.182 -336.181,59.432 -336.441,59.691C-336.702,59.953 -337,60.218 -337.333,60.478C-337.664,60.74 -338,60.976 -338.33,61.191C-338.663,61.403 -338.928,61.581 -339.118,61.726C-339.165,61.774 -339.294,61.823 -339.51,61.87M-352.044,12.179C-354.576,13.142 -357.34,13.624 -360.336,13.624C-361.55,13.624 -362.783,13.464 -364.03,13.142C-365.279,12.822 -366.511,12.412 -367.722,11.912C-368.149,11.697 -368.507,11.573 -368.792,11.535C-369.078,11.504 -369.471,11.341 -369.969,11.055C-370.47,10.699 -371.005,10.326 -371.574,9.933C-372.146,9.541 -372.682,9.168 -373.181,8.809L-373.286,8.593L-373.395,8.487C-374.395,7.916 -375.41,7.401 -376.444,6.936C-377.481,6.473 -378.462,5.849 -379.387,5.064C-379.532,4.92 -379.779,4.651 -380.138,4.26C-380.494,3.87 -380.744,3.602 -380.886,3.458C-381.03,3.315 -381.137,3.154 -381.207,2.976C-381.28,2.797 -381.387,2.64 -381.528,2.493C-382.742,0.427 -383.6,-1.589 -384.097,-3.552C-384.598,-5.515 -384.845,-7.673 -384.845,-10.027L-384.845,-12.276C-384.775,-12.918 -384.684,-13.843 -384.578,-15.059C-384.471,-16.271 -384.383,-16.983 -384.311,-17.199L-384.097,-18.912C-383.812,-20.836 -383.544,-22.728 -383.294,-24.583C-383.045,-26.44 -382.598,-28.258 -381.958,-30.043L-381.851,-30.15C-381.78,-30.22 -381.742,-30.274 -381.742,-30.31C-381.742,-30.344 -381.708,-30.399 -381.634,-30.471L-381.423,-30.896C-381.28,-31.181 -381.046,-31.646 -380.727,-32.291C-380.404,-32.93 -380.082,-33.626 -379.763,-34.377C-379.441,-35.126 -379.119,-35.821 -378.799,-36.463C-378.477,-37.106 -378.248,-37.534 -378.104,-37.75C-377.962,-37.89 -377.712,-38.318 -377.354,-39.031C-376.996,-39.744 -376.749,-40.244 -376.604,-40.53C-374.964,-43.385 -373.234,-45.683 -371.414,-47.434C-369.596,-49.18 -367.332,-50.982 -364.617,-52.837C-364.55,-52.837 -364.102,-52.927 -363.28,-53.105C-362.462,-53.283 -361.978,-53.445 -361.835,-53.587C-361.48,-53.801 -361.139,-54.067 -360.818,-54.392C-360.498,-54.712 -360.159,-55.013 -359.802,-55.3C-358.516,-56.156 -357.092,-56.87 -355.522,-57.441C-355.381,-57.582 -355.04,-57.708 -354.502,-57.814C-353.969,-57.92 -352.99,-57.976 -351.562,-57.976C-351.419,-57.832 -351.278,-57.708 -351.134,-57.6C-350.989,-57.492 -350.848,-57.368 -350.704,-57.226L-350.062,-56.797L-349.849,-56.156L-349.849,-56.05C-349.849,-55.836 -349.724,-55.586 -349.474,-55.3C-349.226,-55.013 -348.958,-54.872 -348.672,-54.872L-345.14,-54.872C-342.927,-54.229 -341.164,-52.876 -339.844,-50.804C-338.522,-48.734 -337.542,-45.525 -336.9,-41.175L-337.006,-40.637C-337.006,-40.494 -336.99,-40.332 -336.953,-40.154C-336.916,-39.976 -336.9,-39.816 -336.9,-39.674C-336.9,-39.387 -336.916,-39.192 -336.953,-39.086C-336.99,-38.979 -337.15,-38.781 -337.434,-38.496C-337.577,-38.353 -338.236,-38.068 -339.414,-37.64C-340.589,-37.212 -342.429,-36.036 -344.925,-34.109C-344.925,-33.893 -344.89,-33.681 -344.818,-33.464C-344.749,-33.253 -344.71,-33.039 -344.71,-32.824C-345.071,-32.824 -345.265,-33.003 -345.3,-33.358C-345.337,-33.714 -345.499,-33.893 -345.781,-33.893C-346.139,-33.893 -346.315,-33.769 -346.315,-33.521C-346.315,-33.27 -346.423,-33.039 -346.639,-32.824C-346.71,-32.969 -346.815,-33.181 -346.958,-33.464C-347.103,-33.75 -347.279,-33.893 -347.494,-33.893C-347.637,-33.893 -347.781,-33.825 -347.922,-33.681C-348.064,-33.537 -348.137,-33.431 -348.137,-33.358C-348.35,-33.575 -348.494,-33.681 -348.565,-33.681C-348.635,-33.608 -348.708,-33.575 -348.78,-33.575C-348.852,-33.575 -348.921,-33.557 -348.993,-33.521C-349.065,-33.485 -349.137,-33.464 -349.207,-33.464C-349.421,-33.464 -349.528,-33.537 -349.528,-33.681C-349.742,-34.678 -349.976,-35.661 -350.223,-36.623C-350.475,-37.586 -350.777,-38.531 -351.134,-39.46C-351.278,-39.674 -351.491,-39.78 -351.775,-39.78C-352.205,-39.78 -352.417,-39.674 -352.417,-39.46C-354.772,-38.175 -356.699,-36.606 -358.197,-34.749C-359.694,-32.894 -360.98,-30.756 -362.05,-28.33L-362.263,-27.902C-362.337,-27.83 -362.372,-27.775 -362.372,-27.741C-362.372,-27.703 -362.407,-27.652 -362.478,-27.58L-362.585,-27.474L-363.441,-25.761L-363.441,-25.118C-363.512,-24.693 -363.637,-24.371 -363.814,-24.155C-363.995,-23.94 -364.155,-23.621 -364.298,-23.192L-365.154,-18.912C-365.295,-18.767 -365.387,-18.411 -365.422,-17.842C-365.457,-17.268 -365.472,-16.627 -365.472,-15.915C-365.472,-15.198 -365.492,-14.523 -365.528,-13.88C-365.564,-13.238 -365.653,-12.811 -365.795,-12.599L-365.795,-9.921C-365.795,-8.279 -365.672,-6.729 -365.422,-5.265C-365.17,-3.802 -364.55,-2.358 -363.548,-0.929C-363.191,-0.501 -362.906,-0.199 -362.69,-0.022C-362.478,0.157 -362.121,0.247 -361.622,0.247C-360.766,0.247 -359.983,0.033 -359.268,-0.395C-358.554,-0.826 -357.86,-1.32 -357.18,-1.894C-356.503,-2.463 -355.827,-3.087 -355.146,-3.769C-354.469,-4.444 -353.809,-4.998 -353.167,-5.426C-352.81,-5.641 -352.363,-5.837 -351.83,-6.015C-351.292,-6.19 -350.813,-6.352 -350.385,-6.495C-350.1,-6.566 -349.869,-6.711 -349.689,-6.923C-349.511,-7.139 -349.28,-7.314 -348.993,-7.458L-345.781,-8.849C-345.212,-9.065 -344.588,-9.187 -343.91,-9.225C-343.232,-9.262 -342.608,-9.314 -342.036,-9.385C-342.036,-9.174 -342.071,-9.065 -342.144,-9.065C-341.715,-9.065 -341.324,-9.279 -340.966,-9.708L-340.966,-8.635C-340.111,-8.635 -339.682,-8.351 -339.682,-7.779C-339.682,-7.211 -339.844,-6.352 -340.161,-5.21C-340.485,-4.07 -340.715,-2.499 -340.857,-0.501C-340.857,-0.432 -340.841,-0.359 -340.806,-0.289C-340.771,-0.217 -340.751,-0.108 -340.751,0.033C-340.751,0.105 -340.771,0.157 -340.806,0.193C-340.841,0.229 -340.857,0.283 -340.857,0.352L-340.857,0.567L-341.18,1.208C-341.18,1.496 -341.038,1.64 -340.751,1.64C-340.397,1.64 -340.075,1.496 -339.788,1.208C-339.646,1.284 -339.574,1.462 -339.574,1.743C-339.574,2.031 -339.771,2.246 -340.161,2.387C-340.554,2.53 -340.823,2.708 -340.966,2.921C-341.038,2.993 -341.109,3.174 -341.18,3.458C-341.251,3.744 -341.286,3.921 -341.286,3.994C-341.431,4.35 -341.697,4.705 -342.09,5.064C-342.481,5.421 -342.786,5.743 -343,6.027C-343.357,6.384 -343.641,6.774 -343.857,7.202C-344.069,7.63 -344.356,7.989 -344.71,8.272C-347.067,9.915 -349.511,11.217 -352.044,12.179M-361.538,113.356L-363.913,113.356L-363.913,104.212L-368.019,109.685L-368.486,109.685L-372.501,104.194L-372.501,113.356L-374.876,113.356L-374.876,100.756L-372.14,100.756L-368.197,106.175L-364.256,100.756L-361.538,100.756L-361.538,113.356ZM-376.681,102.899L-380.678,102.899L-380.678,113.339L-383.054,113.339L-383.054,102.899L-387.049,102.899L-387.049,100.738L-376.681,100.738L-376.681,102.899ZM-330.477,-48.45C-330.335,-48.734 -330.263,-49.02 -330.263,-49.306L-330.263,-49.734C-330.263,-49.804 -330.247,-50.018 -330.21,-50.376C-330.175,-50.735 -330.122,-51.108 -330.048,-51.501C-329.978,-51.893 -329.907,-52.249 -329.837,-52.571C-329.765,-52.893 -329.729,-53.123 -329.729,-53.265C-329.585,-54.335 -329.319,-55.406 -328.926,-56.479C-328.536,-57.548 -328.336,-58.688 -328.336,-59.9C-328.052,-60.259 -327.749,-60.545 -327.428,-60.756C-327.106,-60.973 -326.769,-61.257 -326.409,-61.616C-325.769,-62.041 -325.235,-62.397 -324.805,-62.685C-324.449,-62.969 -324.111,-63.219 -323.787,-63.436C-323.468,-63.648 -323.272,-63.754 -323.2,-63.754L-322.023,-63.754C-321.454,-63.754 -320.811,-63.931 -320.097,-64.289C-319.384,-64.645 -318.743,-64.826 -318.17,-64.826C-317.671,-64.826 -317.314,-64.539 -317.099,-63.97C-317.03,-63.325 -316.977,-62.668 -316.94,-61.989C-316.903,-61.311 -316.886,-60.617 -316.886,-59.9C-316.886,-59.475 -316.903,-59.026 -316.94,-58.565C-316.977,-58.1 -316.992,-57.616 -316.992,-57.12C-316.852,-56.976 -316.778,-56.759 -316.778,-56.479C-316.708,-56.191 -316.636,-55.673 -316.563,-54.926C-316.493,-54.177 -316.458,-53.729 -316.458,-53.587C-316.387,-53.229 -316.334,-52.303 -316.297,-50.804C-316.262,-49.306 -316.243,-47.199 -316.243,-44.491C-316.1,-44.347 -316.03,-44.151 -316.03,-43.901L-316.03,-41.921C-315.958,-41.634 -315.869,-40.959 -315.762,-39.888C-315.656,-38.818 -315.547,-37.675 -315.439,-36.463C-315.334,-35.249 -315.192,-34.127 -315.013,-33.092C-314.835,-32.057 -314.676,-31.502 -314.532,-31.434C-314.388,-31.434 -313.568,-31.486 -312.071,-31.595C-310.57,-31.701 -308.966,-31.806 -307.252,-31.917C-305.54,-32.02 -303.257,-32.218 -300.402,-32.503C-300.261,-32.503 -300.189,-32.647 -300.189,-32.93C-300.189,-34.284 -300.244,-35.698 -300.351,-37.157C-300.458,-38.62 -300.583,-40.209 -300.725,-41.921C-300.939,-44.491 -301.047,-47.488 -301.047,-50.913L-301.047,-53.427C-301.047,-54.317 -301.012,-55.228 -300.939,-56.156L-300.939,-57.441C-300.939,-57.51 -300.885,-57.777 -300.778,-58.242C-300.67,-58.706 -300.619,-59.01 -300.619,-59.153C-300.548,-59.439 -300.475,-59.849 -300.402,-60.383C-300.333,-60.919 -300.048,-61.185 -299.548,-61.185L-299.333,-61.185C-299.333,-61.112 -299.37,-60.973 -299.439,-60.756C-299.511,-60.545 -299.548,-60.4 -299.548,-60.328L-300.831,-48.128C-300.831,-47.985 -300.814,-47.684 -300.778,-47.22C-300.744,-46.755 -300.725,-46.451 -300.725,-46.31C-300.583,-45.953 -300.492,-45.525 -300.458,-45.025C-300.421,-44.525 -300.402,-44.097 -300.402,-43.741L-300.402,-43.099L-300.619,-42.778L-300.402,-42.456L-300.725,-41.921L-300.619,-41.921C-300.548,-41.921 -300.475,-41.884 -300.402,-41.812C-300.261,-41.6 -300.12,-41.1 -299.976,-40.316C-299.832,-39.53 -299.707,-38.674 -299.601,-37.75C-299.495,-36.822 -299.405,-35.945 -299.333,-35.126C-299.263,-34.305 -299.227,-33.787 -299.227,-33.575C-299.227,-33.216 -299.28,-33.02 -299.388,-32.985C-299.495,-32.948 -299.62,-32.786 -299.763,-32.503L-299.227,-32.503C-298.942,-32.503 -298.566,-32.52 -298.102,-32.557C-297.64,-32.592 -297.407,-32.786 -297.407,-33.147C-297.407,-33.287 -297.499,-33.485 -297.675,-33.735C-297.853,-33.983 -297.941,-34.215 -297.941,-34.431C-297.941,-34.715 -297.907,-34.893 -297.835,-34.965C-297.765,-35.037 -297.728,-35.284 -297.728,-35.715C-297.728,-35.927 -297.8,-36.105 -297.941,-36.25L-298.477,-40.637C-298.55,-41.206 -298.656,-41.796 -298.799,-42.405C-298.942,-43.008 -299.012,-43.597 -299.012,-44.169C-299.012,-44.384 -298.977,-44.597 -298.905,-44.812C-298.836,-45.025 -298.799,-45.309 -298.799,-45.668C-298.799,-45.737 -298.87,-45.792 -299.012,-45.83C-299.157,-45.864 -299.227,-45.915 -299.227,-45.987L-299.227,-46.524C-299.227,-46.593 -299.245,-46.916 -299.28,-47.488C-299.318,-48.056 -299.333,-48.413 -299.333,-48.556C-299.548,-48.841 -299.655,-49.45 -299.655,-50.376C-299.655,-51.088 -299.585,-51.91 -299.439,-52.837C-299.298,-53.766 -299.157,-54.673 -299.012,-55.567C-298.87,-56.458 -298.729,-57.28 -298.584,-58.03C-298.441,-58.778 -298.371,-59.366 -298.371,-59.795C-298.371,-59.866 -298.39,-59.955 -298.424,-60.062C-298.46,-60.171 -298.477,-60.259 -298.477,-60.328L-298.691,-60.65L-298.691,-61.935C-298.55,-61.935 -298.477,-62.007 -298.477,-62.149L-298.691,-62.579C-298.691,-62.719 -298.531,-62.86 -298.209,-63.007C-297.888,-63.148 -297.353,-63.346 -296.604,-63.593C-295.855,-63.843 -294.837,-64.199 -293.554,-64.664C-292.271,-65.128 -290.594,-65.751 -288.525,-66.538C-287.88,-66.538 -287.346,-66.322 -286.917,-65.894C-286.489,-65.466 -286.172,-64.967 -285.956,-64.398C-285.742,-63.825 -285.582,-63.237 -285.475,-62.631C-285.367,-62.024 -285.314,-61.541 -285.314,-61.185C-285.314,-57.76 -284.957,-54.424 -284.243,-51.179C-283.529,-47.932 -283.172,-44.669 -283.172,-41.387C-283.172,-41.244 -283.332,-41.118 -283.654,-41.013C-283.975,-40.904 -284.136,-40.672 -284.136,-40.316C-284.136,-39.96 -284.065,-39.602 -283.922,-39.246C-283.781,-38.887 -283.706,-38.496 -283.706,-38.068L-283.706,-37.319C-283.993,-37.175 -284.136,-36.853 -284.136,-36.356C-284.136,-35.999 -284.012,-35.698 -283.762,-35.445C-283.51,-35.194 -283.388,-34.893 -283.388,-34.537C-283.388,-34.324 -283.422,-34.143 -283.494,-34.003C-283.566,-33.859 -283.6,-33.646 -283.6,-33.358C-283.6,-33.287 -283.566,-33.216 -283.494,-33.147C-283.422,-33.072 -283.388,-32.969 -283.388,-32.824C-283.388,-32.68 -283.459,-32.538 -283.6,-32.397C-283.6,-32.324 -283.547,-32.18 -283.439,-31.968C-283.332,-31.755 -283.244,-31.612 -283.172,-31.54L-282.958,-26.724C-282.958,-26.653 -282.995,-26.581 -283.066,-26.512C-283.137,-26.44 -283.172,-26.364 -283.172,-26.295L-283.172,-22.87C-283.172,-22.728 -283.137,-22.391 -283.066,-21.854C-282.995,-21.32 -282.958,-20.98 -282.958,-20.836C-282.958,-17.627 -283.156,-14.345 -283.547,-10.992C-283.94,-7.636 -284.136,-4.354 -284.136,-1.145L-284.136,0.352C-284.136,0.427 -284.174,0.657 -284.243,1.048C-284.315,1.441 -284.351,1.743 -284.351,1.959C-284.422,2.101 -284.458,2.318 -284.458,2.602C-284.458,2.743 -284.493,2.852 -284.562,2.921L-285.098,2.921L-285.098,5.599L-285.526,5.49C-285.598,5.777 -285.671,6.065 -285.742,6.346C-285.812,6.633 -285.975,7.007 -286.222,7.47C-286.473,7.935 -286.849,8.525 -287.346,9.237C-287.848,9.949 -288.525,10.84 -289.38,11.912C-290.309,11.912 -291.52,11.61 -293.019,11.001C-294.517,10.397 -296.41,9.381 -298.691,7.953C-298.977,7.736 -299.173,7.24 -299.28,6.455C-299.388,5.668 -299.439,4.67 -299.439,3.458C-299.439,2.101 -299.388,0.62 -299.28,-0.986C-299.173,-2.59 -299.051,-4.176 -298.905,-5.749C-298.764,-7.314 -298.623,-8.746 -298.477,-10.027C-298.335,-11.314 -298.228,-12.276 -298.157,-12.918C-298.157,-13.061 -298.138,-13.184 -298.102,-13.295C-298.068,-13.4 -298.049,-13.524 -298.049,-13.667L-298.049,-13.989C-298.049,-14.058 -298.032,-14.112 -297.996,-14.148C-297.962,-14.185 -297.941,-14.236 -297.941,-14.308L-297.835,-14.417C-297.835,-14.486 -297.818,-14.523 -297.781,-14.523C-297.746,-14.523 -297.728,-14.558 -297.728,-14.63C-297.728,-14.914 -297.765,-15.182 -297.835,-15.435C-297.907,-15.682 -298.121,-15.843 -298.477,-15.915C-298.905,-15.342 -299.157,-14.664 -299.227,-13.88C-299.298,-13.096 -299.333,-12.312 -299.333,-11.526C-299.333,-10.739 -299.388,-9.992 -299.495,-9.279C-299.601,-8.565 -299.692,-7.817 -299.763,-7.033L-300.619,4.1L-300.725,2.493C-300.725,-0.289 -300.708,-3.108 -300.67,-5.961C-300.636,-8.815 -300.548,-11.633 -300.402,-14.417C-300.402,-14.486 -300.369,-14.685 -300.296,-15.004C-300.226,-15.325 -300.189,-15.52 -300.189,-15.592C-300.189,-15.807 -300.154,-16.181 -300.082,-16.716C-300.013,-17.254 -299.976,-17.555 -299.976,-17.627C-299.976,-17.77 -300.013,-17.911 -300.082,-18.055C-300.154,-18.196 -300.189,-18.305 -300.189,-18.378L-300.725,-18.378C-302.438,-18.164 -304.148,-18.055 -305.862,-18.055C-307.576,-18.055 -309.324,-18.017 -311.105,-17.949C-311.179,-17.949 -311.463,-17.929 -311.961,-17.894C-312.463,-17.859 -312.783,-17.842 -312.925,-17.842L-314.423,-17.627L-314.21,-15.701L-314.21,-11.526C-314.21,-10.027 -314.193,-8.513 -314.157,-6.979C-314.121,-5.444 -314.103,-3.964 -314.103,-2.536C-314.103,-2.18 -314.068,-1.894 -313.996,-1.682C-313.926,-1.466 -313.888,-1.251 -313.888,-1.038L-313.888,-0.395L-314.103,0.352C-314.103,0.427 -314.068,0.691 -313.996,1.157C-313.926,1.619 -313.888,1.89 -313.888,1.959C-313.888,3.315 -313.908,4.1 -313.942,4.311C-313.98,4.528 -313.996,4.67 -313.996,4.742C-314.354,7.524 -314.691,9.449 -315.013,10.521C-315.334,11.594 -315.974,12.306 -316.94,12.662C-317.902,13.018 -319.346,13.268 -321.273,13.409C-323.2,13.557 -325.912,14.09 -329.409,15.016C-329.551,14.874 -329.62,14.714 -329.62,14.533L-329.62,14.052C-329.62,13.909 -329.604,13.747 -329.567,13.569C-329.534,13.392 -329.515,13.268 -329.515,13.196C-329.515,13.053 -329.498,12.625 -329.46,11.912C-329.426,11.2 -329.372,10.432 -329.3,9.611C-329.23,8.791 -329.176,8.024 -329.141,7.308C-329.105,6.599 -329.086,6.134 -329.086,5.918C-329.086,5.349 -329.141,4.778 -329.247,4.205C-329.354,3.636 -329.409,3.065 -329.409,2.493C-329.409,2.137 -329.391,1.835 -329.354,1.585C-329.319,1.335 -329.23,1.034 -329.086,0.675L-329.086,-6.605C-329.086,-6.817 -329.105,-7.335 -329.141,-8.152C-329.176,-8.975 -329.23,-9.831 -329.3,-10.721C-329.372,-11.616 -329.426,-12.451 -329.46,-13.238C-329.498,-14.024 -329.515,-14.523 -329.515,-14.739L-329.515,-16.558C-329.515,-17.127 -329.66,-17.733 -329.942,-18.378L-329.942,-30.896C-330.013,-30.968 -330.048,-31.074 -330.048,-31.221C-330.122,-31.362 -330.157,-31.502 -330.157,-31.646L-330.048,-31.968C-330.048,-34.037 -330.122,-36.071 -330.263,-38.068C-330.406,-40.066 -330.477,-42.1 -330.477,-44.169L-330.477,-48.45ZM-275.039,-25.761C-274.042,-28.686 -272.722,-31.54 -271.079,-34.324C-270.296,-35.749 -269.509,-37.229 -268.724,-38.764C-267.942,-40.298 -266.979,-41.672 -265.835,-42.884C-265.765,-43.024 -265.568,-43.261 -265.246,-43.579C-264.925,-43.901 -264.569,-44.238 -264.176,-44.597C-263.785,-44.953 -263.426,-45.292 -263.108,-45.613C-262.786,-45.936 -262.553,-46.165 -262.412,-46.31L-260.057,-48.128C-259.842,-48.344 -259.595,-48.45 -259.306,-48.45C-258.523,-48.806 -257.719,-49.252 -256.898,-49.789C-256.08,-50.323 -255.312,-50.875 -254.599,-51.447L-252.886,-52.837C-252.814,-52.909 -252.724,-52.999 -252.617,-53.105C-252.512,-53.214 -252.421,-53.265 -252.351,-53.265L-251.922,-53.053C-251.566,-53.053 -251.333,-53.139 -251.227,-53.321C-251.119,-53.496 -250.959,-53.656 -250.746,-53.801C-249.889,-54.301 -248.979,-54.712 -248.017,-55.031C-247.053,-55.352 -246.144,-55.763 -245.289,-56.264C-245.073,-56.331 -244.736,-56.458 -244.269,-56.636C-243.806,-56.816 -243.306,-56.996 -242.771,-57.174C-242.238,-57.352 -241.739,-57.51 -241.274,-57.657C-240.812,-57.796 -240.471,-57.904 -240.257,-57.976C-239.472,-57.976 -238.668,-58.065 -237.848,-58.242C-237.029,-58.42 -236.189,-58.582 -235.332,-58.725C-235.19,-58.725 -234.87,-58.706 -234.37,-58.67C-233.871,-58.634 -233.335,-58.598 -232.766,-58.565C-232.195,-58.528 -231.658,-58.51 -231.16,-58.51L-229.66,-58.51C-229.378,-58.51 -229.162,-58.565 -229.019,-58.67C-228.876,-58.778 -228.663,-58.832 -228.376,-58.832C-227.734,-58.832 -226.95,-58.616 -226.021,-58.191C-225.095,-57.76 -224.382,-57.441 -223.883,-57.226C-222.241,-56.441 -220.546,-55.335 -218.797,-53.91C-217.051,-52.481 -215.714,-50.982 -214.785,-49.412C-214.144,-48.272 -213.499,-46.967 -212.859,-45.508C-212.217,-44.045 -211.628,-42.528 -211.092,-40.959C-210.559,-39.387 -210.06,-37.817 -209.594,-36.25C-209.13,-34.678 -208.756,-33.253 -208.471,-31.968C-208.401,-31.896 -208.346,-31.664 -208.309,-31.273C-208.275,-30.879 -208.256,-30.612 -208.256,-30.471C-208.186,-30.111 -208.096,-29.684 -207.989,-29.186C-207.882,-28.686 -207.828,-28.221 -207.828,-27.796C-207.828,-26.225 -207.934,-24.724 -208.15,-23.298C-208.361,-21.872 -208.578,-20.408 -208.79,-18.912C-208.936,-17.911 -209.023,-16.966 -209.058,-16.075C-209.096,-15.182 -209.256,-14.236 -209.542,-13.238C-209.754,-12.382 -210.236,-11.222 -210.983,-9.759C-211.733,-8.297 -212.682,-6.961 -213.821,-5.749C-213.892,-5.677 -214.053,-5.496 -214.304,-5.21C-214.554,-4.926 -214.822,-4.585 -215.105,-4.193C-215.392,-3.802 -215.657,-3.446 -215.907,-3.124C-216.159,-2.803 -216.321,-2.608 -216.389,-2.536C-217.104,-1.682 -217.854,-1.217 -218.637,-1.145C-219.424,-1.073 -220.208,-0.751 -220.992,-0.182C-221.992,0.605 -222.99,1.423 -223.989,2.28C-224.989,3.136 -226.021,3.955 -227.092,4.742C-227.734,5.167 -228.414,5.562 -229.126,5.918C-229.841,6.277 -230.517,6.668 -231.16,7.096C-231.731,7.524 -232.266,7.989 -232.766,8.487C-233.265,8.987 -233.871,9.381 -234.586,9.665C-234.87,9.809 -235.049,9.949 -235.12,10.093C-235.19,10.237 -235.299,10.38 -235.44,10.521C-236.082,10.949 -236.778,11.268 -237.528,11.483C-238.275,11.697 -239.008,11.95 -239.722,12.231C-241.365,13.018 -243.129,13.644 -245.02,14.105C-246.912,14.57 -248.783,14.799 -250.637,14.799C-252.495,14.799 -254.313,14.501 -256.096,13.892C-257.881,13.288 -259.486,12.231 -260.913,10.734C-261.126,10.593 -261.413,10.432 -261.768,10.253C-262.126,10.076 -262.305,9.809 -262.305,9.449C-262.875,9.449 -263.426,9.203 -263.961,8.703C-264.498,8.203 -264.942,7.774 -265.302,7.418C-266.299,6.562 -267.282,5.616 -268.245,4.579C-269.208,3.548 -270.046,2.459 -270.76,1.314C-272.4,-1.466 -273.774,-4.266 -274.879,-7.085C-275.987,-9.903 -276.537,-13.024 -276.537,-16.449C-276.537,-19.731 -276.038,-22.834 -275.039,-25.761M-205.909,51.057C-205.267,50.651 -204.684,50.476 -204.158,50.521C-203.255,50.568 -202.41,50.726 -201.628,50.985C-200.841,51.246 -200.068,51.567 -199.308,51.95C-198.69,52.284 -198.571,52.781 -198.952,53.448C-199.33,53.97 -199.627,54.496 -199.844,55.019C-200.056,55.543 -200.329,56.065 -200.664,56.589C-200.948,57.065 -201.247,57.505 -201.558,57.91C-201.865,58.311 -202.211,58.705 -202.589,59.085C-202.923,59.468 -203.278,59.812 -203.66,60.122C-204.042,60.43 -204.422,60.774 -204.801,61.157C-205.23,61.582 -205.624,61.811 -205.979,61.832C-206.337,61.858 -206.777,61.654 -207.299,61.229C-207.491,61.084 -207.667,60.93 -207.836,60.763C-208.003,60.596 -208.181,60.442 -208.37,60.298C-208.466,60.252 -208.538,60.228 -208.584,60.228C-208.584,59.944 -208.631,59.574 -208.728,59.122C-208.823,58.672 -208.918,58.217 -209.014,57.766C-209.107,57.315 -209.193,56.897 -209.262,56.517C-209.334,56.137 -209.395,55.875 -209.44,55.731C-209.535,55.398 -209.404,54.925 -209.049,54.307C-208.692,53.686 -208.241,53.092 -207.692,52.519C-207.146,51.95 -206.551,51.461 -205.909,51.057M-200.819,-54.978C-200.641,-55.335 -200.497,-55.673 -200.39,-55.996C-200.285,-56.318 -200.229,-56.547 -200.229,-56.691C-200.158,-56.835 -200.088,-57.226 -200.013,-57.869C-199.945,-58.51 -199.871,-58.9 -199.801,-59.047C-199.73,-59.403 -199.519,-59.705 -199.161,-59.955C-198.802,-60.202 -198.623,-60.545 -198.623,-60.973L-197.553,-62.363C-197.412,-62.363 -197.306,-62.397 -197.23,-62.469C-197.09,-62.613 -196.982,-62.685 -196.911,-62.685C-196.556,-62.897 -196.323,-63.274 -196.217,-63.808C-196.109,-64.346 -195.771,-64.609 -195.199,-64.609C-194.985,-64.609 -194.699,-64.432 -194.343,-64.076C-193.343,-64.86 -192.204,-65.538 -190.918,-66.11C-189.634,-66.68 -188.312,-67.145 -186.956,-67.501C-185.031,-68.001 -183.104,-68.248 -181.179,-68.248C-177.969,-68.248 -174.973,-67.642 -172.191,-66.432C-169.407,-65.216 -166.908,-63.504 -164.695,-61.294C-164.126,-60.72 -163.716,-60.223 -163.466,-59.795C-163.217,-59.366 -162.808,-58.832 -162.234,-58.191C-161.952,-57.832 -161.575,-57.51 -161.11,-57.226C-160.646,-56.939 -160.344,-56.584 -160.202,-56.156C-158.419,-54.513 -156.975,-52.605 -155.867,-50.43C-154.762,-48.252 -154.209,-45.953 -154.209,-43.527C-154.209,-41.6 -154.495,-39.692 -155.066,-37.801C-155.636,-35.911 -156.386,-34.143 -157.311,-32.503L-158.488,-30.256L-160.736,-26.831C-161.096,-26.543 -161.361,-26.241 -161.54,-25.921C-161.719,-25.601 -161.952,-25.261 -162.234,-24.905L-166.196,-20.624C-166.409,-19.554 -167.229,-18.607 -168.657,-17.787C-170.083,-16.966 -171.637,-16.216 -173.311,-15.538C-174.989,-14.863 -176.541,-14.256 -177.969,-13.72C-179.395,-13.184 -180.146,-12.668 -180.217,-12.17C-180.217,-12.095 -180.181,-11.972 -180.109,-11.794C-180.038,-11.616 -180,-11.489 -180,-11.417C-180,-11.205 -180.038,-11.01 -180.109,-10.832C-180.181,-10.653 -180.217,-10.455 -180.217,-10.242C-180.217,-8.957 -180.125,-7.655 -179.948,-6.337C-179.772,-5.016 -179.61,-3.748 -179.467,-2.536L-178.503,12.662C-178.432,13.162 -178.291,13.662 -178.074,14.16C-177.861,14.66 -177.755,15.197 -177.755,15.765C-177.755,16.122 -177.771,16.604 -177.807,17.211C-177.845,17.817 -178.004,18.299 -178.291,18.655L-178.291,20.903C-178.432,21.043 -178.521,21.293 -178.559,21.649C-178.592,22.007 -178.684,22.294 -178.825,22.506C-178.825,22.435 -178.86,22.363 -178.933,22.294C-179.001,22.222 -179.076,22.116 -179.146,21.972C-179.218,21.829 -179.29,21.722 -179.358,21.649C-179.646,21.649 -179.772,21.739 -179.732,21.92C-179.697,22.095 -179.823,22.185 -180.109,22.185C-180.322,22.185 -180.52,22.149 -180.696,22.08C-180.876,22.007 -181.072,21.972 -181.286,21.972C-181.642,21.972 -182.021,22.095 -182.41,22.345C-182.803,22.598 -183.212,22.882 -183.64,23.205C-184.068,23.524 -184.481,23.81 -184.87,24.058C-185.263,24.308 -185.675,24.434 -186.1,24.434C-186.387,24.434 -186.602,24.397 -186.744,24.329C-186.814,24.468 -187.102,24.718 -187.602,25.076C-188.1,25.432 -188.388,25.61 -188.458,25.61C-188.814,26.041 -189.225,26.626 -189.688,27.377C-190.151,28.127 -190.596,28.679 -191.025,29.035C-191.312,28.963 -191.473,28.77 -191.508,28.449C-191.543,28.127 -191.56,27.787 -191.56,27.431C-191.633,27.287 -191.705,27.038 -191.774,26.681C-191.847,26.322 -191.882,26.075 -191.882,25.932C-192.094,25.788 -192.22,25.592 -192.255,25.345C-192.295,25.092 -192.31,24.862 -192.31,24.647L-192.31,24.22C-192.523,23.078 -192.684,22.167 -192.789,21.489C-192.898,20.81 -193.006,20.174 -193.111,19.563C-193.218,18.96 -193.271,18.547 -193.271,18.335C-193.271,18.19 -193.309,17.943 -193.379,17.584C-193.45,17.228 -193.523,16.871 -193.596,16.515C-193.665,16.159 -193.721,15.817 -193.753,15.496C-193.791,15.176 -193.808,14.98 -193.808,14.908C-193.878,14.552 -194.003,13.964 -194.181,13.142C-194.362,12.323 -194.541,11.45 -194.72,10.521C-194.896,9.593 -195.077,8.703 -195.254,7.847C-195.43,6.99 -195.52,6.346 -195.52,5.918C-195.592,5.278 -195.611,4.688 -195.573,4.154C-195.536,3.617 -195.592,3.065 -195.733,2.493C-195.809,1.851 -195.934,1.284 -196.109,0.78C-196.286,0.283 -196.377,-0.359 -196.377,-1.145L-196.377,-1.682C-196.377,-2.252 -196.411,-2.786 -196.483,-3.286C-196.556,-3.786 -196.628,-4.283 -196.697,-4.785C-196.771,-5.21 -196.841,-6.066 -196.911,-7.351C-196.982,-8.635 -197.073,-9.976 -197.18,-11.366C-197.285,-12.756 -197.391,-14.004 -197.502,-15.113C-197.607,-16.216 -197.698,-16.805 -197.768,-16.877C-198.125,-21.802 -198.661,-26.724 -199.373,-31.646C-199.658,-33.646 -199.98,-35.643 -200.337,-37.64C-200.694,-39.638 -200.87,-41.672 -200.87,-43.741L-200.87,-44.919C-200.728,-44.987 -200.641,-45.203 -200.603,-45.562C-200.567,-45.915 -200.48,-46.165 -200.337,-46.31L-200.337,-49.093C-200.337,-49.59 -200.354,-50.071 -200.39,-50.536C-200.426,-51.001 -200.515,-51.41 -200.658,-51.766C-200.8,-52.053 -200.96,-52.372 -201.137,-52.731C-201.317,-53.087 -201.404,-53.373 -201.404,-53.587C-201.192,-54.157 -200.996,-54.622 -200.819,-54.978M-0.58,-18.296C-7.984,-19.48 -19.246,-16.221 -34.358,-12.664C-49.472,-9.107 -66.658,-9.405 -66.658,-9.405C-109.394,-9.405 -115.305,-39.465 -115.944,-55.258L-115.944,-61.553C-115.938,-61.694 -115.932,-61.774 -115.932,-61.774L-115.944,-61.68L-115.944,-65.886C-115.944,-88.931 -134.624,-107.61 -157.667,-107.61L-372.557,-107.61C-395.601,-107.61 -414.28,-88.931 -414.28,-65.886L-414.28,91.818C-414.28,114.863 -395.601,133.544 -372.557,133.544L-157.667,133.544C-134.624,133.544 -115.944,114.863 -115.944,91.818L-115.944,85.891C-111.525,42.763 -88.271,44.227 -74.361,41.858C-60.434,39.488 -50.066,40.676 -38.803,42.747C-27.542,44.821 -10.95,49.266 -0.58,48.674C9.795,48.083 27.869,35.931 27.869,14.007C27.869,-7.924 6.829,-17.107 -0.58,-18.296" style="fill:rgb(6,5,5);fill-rule:nonzero;"/>
    </g>
</svg>
