<svg clip-rule="evenodd" fill-rule="evenodd" stroke-linejoin="round" stroke-miterlimit="1.414" viewBox="0 0 1435 1092" xmlns="http://www.w3.org/2000/svg"><g fill-rule="nonzero"><path d="m0-78.988c-1.819-2.856-4.253-4.729-7.305-5.612h-4.872c-.393 0-.765-.196-1.107-.594-.347-.388-.52-.735-.52-1.033v-.143l-.291-.888-.888-.591c-.194-.197-.393-.37-.592-.516-.196-.148-.39-.321-.589-.518-1.969 0-3.321.072-4.061.222-.733.148-1.209.321-1.403.516-2.166.788-4.131 1.775-5.906 2.951-.49.398-.957.816-1.403 1.258-.441.444-.913.813-1.403 1.105-.199.198-.862.423-1.988.665-1.135.247-1.754.372-1.849.372-3.744 2.561-6.867 5.042-9.377 7.454-2.508 2.415-4.898 5.587-7.161 9.524-.196.395-.538 1.083-1.035 2.068-.49.985-.837 1.574-1.031 1.771-.199.296-.52.885-.957 1.773-.446.883-.892 1.844-1.334 2.88-.441 1.033-.883 1.994-1.329 2.879-.441.886-.763 1.524-.961 1.921l-.289.585c-.104.102-.153.174-.153.224 0 .051-.049.123-.148.222l-.145.146c-.888 2.462-1.503 4.972-1.845 7.533-.347 2.56-.714 5.168-1.109 7.824l-.298 2.362c-.095.298-.218 1.281-.368 2.956-.143 1.676-.266 2.95-.366 3.837v3.102c0 3.247.343 6.225 1.032 8.931.689 2.711 1.87 5.49 3.545 8.342.193.199.342.421.446.668.093.243.243.467.442.661.192.199.534.568 1.031 1.109.494.541.832.909 1.035 1.106 1.276 1.086 2.629 1.943 4.057 2.584 1.428.642 2.831 1.354 4.209 2.142l.15.148.148.296c.684.492 1.424 1.01 2.212 1.549.788.544 1.526 1.058 2.216 1.548.689.396 1.23.618 1.621.666.397.051.892.22 1.481.518 1.672.688 3.368 1.255 5.088 1.696 1.726.447 3.428.664 5.103.664 4.131 0 7.943-.664 11.439-1.993 3.491-1.329 6.868-3.125 10.115-5.39.49-.39.888-.883 1.179-1.472.298-.592.689-1.131 1.181-1.627.298-.391.714-.833 1.26-1.329.534-.49.906-.981 1.105-1.477 0-.095.048-.343.148-.738.094-.393.194-.638.293-.739.194-.294.567-.539 1.11-.738.536-.196.809-.488.809-.885 0-.391-.1-.638-.296-.738-.393.392-.835.59-1.325.59-.397 0-.591-.198-.591-.59l.441-.886v-.294c0-.098.021-.174.072-.222.049-.049.078-.121.078-.223 0-.196-.029-.343-.078-.443-.051-.095-.072-.196-.072-.292.199-2.757.516-4.925.962-6.501.437-1.572.661-2.751.661-3.541 0-.786-.59-1.18-1.771-1.18v-1.476c-.494.59-1.031.885-1.622.885.095 0 .145-.152.145-.444-.788.1-1.648.174-2.584.222-.936.051-1.794.222-2.584.515l-4.427 1.921c-.397.197-.718.442-.961.738-.247.296-.566.495-.962.589-.591.199-1.25.423-1.99.666-.737.248-1.352.515-1.848.811-.884.592-1.794 1.355-2.733 2.288-.931.937-1.869 1.797-2.802 2.587-.936.788-1.897 1.475-2.879 2.065-.987.59-2.069.886-3.248.886-.689 0-1.181-.122-1.479-.367-.296-.245-.688-.664-1.179-1.257-1.382-1.966-2.238-3.96-2.584-5.982-.346-2.016-.52-4.156-.52-6.421v-3.693c.199-.294.322-.884.372-1.771.049-.886.074-1.819.074-2.806 0-.983.025-1.868.074-2.656.046-.786.169-1.276.367-1.477l1.182-5.906c.192-.592.416-1.033.663-1.327.247-.296.421-.742.52-1.333v-.883l1.181-2.364.148-.144c.095-.1.144-.173.144-.224 0-.049.05-.123.15-.222l.296-.59c1.474-3.344 3.249-6.298 5.311-8.861 2.073-2.559 4.729-4.725 7.977-6.496 0-.293.293-.443.883-.443.393 0 .691.15.887.443.493 1.281.909 2.585 1.256 3.914.342 1.329.665 2.683.961 4.059 0 .198.146.297.441.297.1 0 .199-.024.298-.073.096-.049.195-.074.292-.074.099 0 .199-.051.298-.15.095 0 .294.15.59.443 0-.095.099-.245.297-.443.195-.195.393-.292.59-.292.294 0 .541.199.739.589.199.394.343.689.442.884.298-.294.442-.611.442-.957 0-.343.242-.516.737-.516.393 0 .615.245.666.735.048.495.317.738.813.738 0-.294-.051-.59-.15-.884-.097-.297-.143-.589-.143-.887 3.442-2.658 5.975-4.282 7.602-4.87 1.625-.594 2.533-.985 2.732-1.183.386-.394.61-.666.663-.814.047-.143.07-.416.07-.809 0-.197-.023-.418-.07-.664-.053-.245-.074-.466-.074-.665l.144-.74c-.883-6.002-2.235-10.433-4.061-13.286" transform="matrix(4.16667 0 0 4.16667 258.679 481.789)"/><path d="m0-2.067c.099-.095.15-.194.15-.293l-.294-6.646c-.099-.099-.224-.295-.372-.589-.148-.298-.221-.491-.221-.592.196-.196.296-.391.296-.594 0-.192-.049-.342-.148-.441-.1-.095-.148-.193-.148-.294 0-.395.048-.687.148-.885.099-.199.148-.444.148-.74 0-.49-.174-.906-.516-1.253-.347-.348-.516-.765-.516-1.255 0-.689.195-1.13.59-1.329v-1.035c0-.592-.102-1.133-.296-1.623-.198-.494-.294-.987-.294-1.477 0-.492.22-.813.661-.961.444-.146.668-.319.668-.516 0-4.528-.494-9.031-1.477-13.512-.986-4.475-1.477-9.079-1.477-13.804 0-.492-.076-1.156-.224-1.993-.147-.834-.371-1.647-.663-2.438-.298-.786-.735-1.475-1.325-2.064-.596-.592-1.329-.888-2.22-.888-2.857 1.084-5.167 1.944-6.937 2.582-1.771.645-3.174 1.135-4.211 1.479-1.031.345-1.769.616-2.215.812-.441.199-.661.395-.661.592l.294.589c0 .199-.1.298-.294.298v1.768l.294.442c0 .099.021.224.073.372.045.146.075.27.075.368 0 .589-.1 1.402-.298 2.438-.197 1.033-.391 2.166-.59 3.393-.198 1.235-.391 2.489-.589 3.768-.199 1.28-.298 2.41-.298 3.395 0 1.28.15 2.117.446 2.51 0 .199.021.689.073 1.478.047.788.072 1.231.072 1.326v.742c0 .097.097.169.296.218.199.052.298.124.298.223 0 .493-.05.888-.15 1.179-.097.298-.148.592-.148.888 0 .788.1 1.602.298 2.436.194.837.342 1.651.442 2.439l.737 6.053c.194.199.298.442.298.737 0 .592-.053.934-.148 1.034-.099.099-.15.346-.15.737 0 .294.125.617.372.96.243.346.368.618.368.811 0 .496-.321.765-.962.811-.64.053-1.155.076-1.551.076h-.735c.195-.391.367-.615.515-.663.148-.051.22-.319.22-.814 0-.296-.05-1.007-.145-2.142-.1-1.129-.223-2.337-.368-3.615-.148-1.279-.321-2.46-.52-3.544-.196-1.082-.391-1.775-.585-2.068-.104-.097-.203-.148-.302-.148h-.144c.194 2.36.368 4.555.511 6.571.152 2.016.224 3.963.224 5.834 0 .393-.095.589-.289.589-3.941.393-7.091.666-9.456.81-2.364.149-4.576.297-6.643.445-2.069.146-3.199.22-3.397.22-.197-.095-.417-.86-.659-2.286-.252-1.428-.446-2.977-.594-4.653-.15-1.671-.298-3.249-.442-4.725-.15-1.477-.272-2.41-.368-2.805v-1.771-.959c0-.345-.099-.615-.298-.814 0-3.737-.025-6.645-.073-8.709-.049-2.069-.125-3.347-.222-3.841 0-.195-.051-.814-.15-1.845-.099-1.033-.199-1.746-.292-2.143 0-.391-.099-.684-.298-.883 0-.689.026-1.354.074-1.997.051-.636.074-1.255.074-1.842 0-.985-.023-1.944-.074-2.88-.048-.936-.122-1.847-.217-2.732-.298-.788-.793-1.183-1.48-1.183-.788 0-1.675.251-2.655.741-.987.493-1.874.736-2.659.736h-1.627c-.099 0-.367.148-.809.443-.446.296-.91.643-1.407 1.034-.59.397-1.325.885-2.21 1.479-.496.49-.964.885-1.405 1.178-.444.298-.862.689-1.253 1.184 0 1.675-.273 3.25-.814 4.722-.541 1.477-.908 2.956-1.105 4.431 0 .201-.055.518-.15.959-.099.446-.198.936-.295 1.477-.1.543-.172 1.057-.221 1.551-.052.492-.073.791-.073.884v.591c0 .395-.099.79-.298 1.183v5.906c0 2.857.099 5.663.298 8.416.194 2.757.293 5.561.293 8.418l-.15.442c0 .198.051.395.15.589 0 .199.049.346.148.446v17.275c.391.883.59 1.72.59 2.508v2.51c0 .296.021.987.074 2.069.05 1.084.124 2.24.224 3.469.095 1.23.169 2.413.218 3.546.05 1.131.073 1.842.073 2.138v10.038c-.196.498-.317.914-.365 1.258-.051.344-.076.763-.076 1.253 0 .792.076 1.576.22 2.364.148.789.221 1.575.221 2.36 0 .299-.023.938-.073 1.921-.049.985-.123 2.044-.218 3.174-.1 1.134-.174 2.195-.224 3.175-.053.983-.074 1.576-.074 1.773 0 .097-.025.27-.07.513-.053.249-.074.472-.074.666v.664c0 .249.095.471.292.666 4.826-1.277 8.563-2.014 11.222-2.215 2.658-.197 4.65-.539 5.979-1.033 1.334-.493 2.216-1.475 2.663-2.952.441-1.477.904-4.135 1.398-7.972 0-.098.021-.298.074-.594.051-.294.078-1.375.078-3.25 0-.095-.057-.465-.152-1.105-.099-.64-.148-1.007-.148-1.105l.3-1.037v-.886c0-.293-.057-.592-.152-.885-.099-.292-.148-.689-.148-1.179 0-1.969-.025-4.012-.074-6.129-.05-2.117-.071-4.207-.071-6.276v-5.758l-.296-2.658 2.066-.294c.194 0 .64-.025 1.329-.073.689-.049 1.082-.076 1.186-.076 2.455-.098 4.867-.146 7.23-.146 2.365 0 4.724-.148 7.089-.442h.735c0 .097.049.245.152.442.096.198.144.393.144.589 0 .099-.048.516-.144 1.255-.103.74-.152 1.258-.152 1.551 0 .1-.046.368-.146.812-.099.443-.143.716-.143.813-.203 3.839-.326 7.727-.372 11.663-.053 3.939-.074 7.826-.074 11.664l.144 2.216 1.185-15.356c.095-1.081.222-2.118.367-3.1.148-.984.223-2.018.223-3.102 0-1.082.05-2.164.145-3.248.097-1.081.444-2.017 1.036-2.808.49.102.788.323.887.666.095.346.148.719.148 1.109 0 .1-.025.148-.074.148-.051 0-.074.051-.074.148l-.15.146c0 .099-.023.173-.074.224-.049.048-.074.122-.074.217v.446c0 .199-.025.368-.074.516-.05.15-.074.323-.074.515-.099.888-.243 2.217-.441 3.99-.199 1.77-.393 3.742-.592 5.905-.196 2.166-.366 4.357-.516 6.569-.148 2.214-.221 4.258-.221 6.13 0 1.675.073 3.051.221 4.135.15 1.084.419 1.771.814 2.064 3.144 1.972 5.758 3.373 7.824 4.211 2.069.837 3.74 1.253 5.019 1.253 1.181-1.476 2.117-2.707 2.805-3.689.691-.985 1.207-1.794 1.553-2.438.343-.64.564-1.156.66-1.551.099-.389.198-.784.297-1.181l.594.147v-3.693h.736c.099-.095.148-.242.148-.441 0-.391.05-.689.147-.888 0-.291.047-.712.15-1.253.096-.541.148-.859.148-.957v-2.068c0-4.431.268-8.957.809-13.586.541-4.626.814-9.154.814-13.58 0-.199-.051-.666-.15-1.403-.095-.74-.144-1.207-.144-1.405v-4.725c0-.097.049-.199.144-.296" transform="matrix(4.16667 0 0 4.16667 585.06 300.929)"/><path d="m0 24.215.302-.442v-.885c0-.492-.03-1.082-.078-1.771-.051-.691-.173-1.28-.368-1.775 0-.194-.029-.612-.074-1.255-.051-.638-.074-1.056-.074-1.255l1.771-16.833c0-.094.049-.292.148-.59.095-.294.148-.49.148-.59h-.296c-.691 0-1.082.368-1.177 1.11-.103.735-.203 1.304-.302 1.697 0 .198-.07.614-.218 1.255-.148.638-.223 1.009-.223 1.105v1.774c-.098 1.279-.148 2.534-.148 3.764v3.469c0 4.727.148 8.86.445 12.403l.446-.737z" transform="matrix(4.16667 0 0 4.16667 484.159 97.9067)"/><path d="m0 8.562c-.735 3.448-1.796 6.747-3.169 9.895-.397.788-.841 1.574-1.333 2.362-.495.79-.982 1.575-1.473 2.363-.991 1.675-1.973 3.249-2.956 4.726-.98 1.473-2.166 2.904-3.544 4.279-.198 0-.466.025-.813.074-.347.051-.566.125-.661.223l-4.872 1.478c-.203-.1-.398-.174-.592-.222-.196-.051-.296-.174-.296-.37-6.694-.594-11.985-2.288-15.873-5.095-3.887-2.807-6.867-5.831-8.933-9.081-2.065-3.249-3.446-6.201-4.131-8.859-.695-2.656-1.086-4.08-1.185-4.283 0-4.329.689-8.365 2.068-12.105 1.378-3.742 3.102-7.482 5.166-11.222.296-.492.52-1.033.668-1.627.15-.587.368-1.128.661-1.622.495-.884 1.084-1.697 1.775-2.435.685-.739 1.573-1.306 2.657-1.701l7.234-2.801c1.969-.395 3.859-.666 5.684-.814 1.819-.148 3.664-.224 5.538-.224 3.252 0 6.028.617 8.344 1.845 2.311 1.234 4.23 2.662 5.758 4.285 1.521 1.624 2.632 3.247 3.321 4.872.685 1.623 1.031 2.83 1.031 3.615v.446c.198 3.543.421 6.079.67 7.602.243 1.53.365 2.88.365 4.062 0 3.446-.365 6.892-1.109 10.334m22.813-15.946c0-.195-.025-.565-.069-1.107-.055-.541-.129-.858-.223-.958-.396-1.775-.912-3.739-1.547-5.906-.65-2.165-1.333-4.333-2.074-6.499-.737-2.161-1.55-4.255-2.433-6.273-.884-2.018-1.776-3.814-2.658-5.39-1.279-2.164-3.127-4.233-5.538-6.202-2.412-1.969-4.75-3.492-7.015-4.576-.69-.298-1.672-.74-2.952-1.33-1.279-.589-2.365-.887-3.248-.887-.395 0-.689.074-.887.224-.194.144-.49.222-.884.222h-.737-1.329c-.693 0-1.433-.025-2.216-.078-.788-.046-1.528-.095-2.213-.144-.692-.05-1.135-.076-1.333-.076-1.179.199-2.339.423-3.465.666-1.137.247-2.246.369-3.328.369-.292.1-.763.245-1.398.442-.643.199-1.334.418-2.068.664-.739.244-1.427.494-2.068.741-.642.245-1.105.419-1.407.516-1.175.689-2.43 1.255-3.759 1.696-1.329.444-2.589 1.01-3.767 1.699-.298.199-.516.419-.666.666-.144.245-.465.365-.957.365l-.59-.294c-.099 0-.224.072-.372.22-.143.151-.272.273-.367.372l-2.365 1.919c-.982.788-2.043 1.553-3.173 2.286-1.135.744-2.24 1.359-3.322 1.849-.397 0-.739.146-1.031.441l-3.253 2.511c-.197.198-.516.517-.958.961-.441.441-.936.911-1.477 1.403-.541.493-1.031.959-1.477 1.403-.441.442-.714.763-.809.957-1.581 1.676-2.909 3.571-3.987 5.688-1.084 2.117-2.17 4.157-3.247 6.126-2.266 3.839-4.089 7.778-5.469 11.813-1.378 4.036-2.062 8.317-2.062 12.847 0 4.724.759 9.028 2.286 12.916 1.523 3.892 3.416 7.75 5.682 11.592.986 1.578 2.142 3.081 3.471 4.503 1.329 1.427 2.681 2.731 4.061 3.913.495.494 1.105 1.086 1.849 1.772.738.692 1.498 1.033 2.286 1.033 0 .495.243.863.738 1.106.492.249.887.471 1.181.665 1.969 2.066 4.184 3.524 6.645 4.357 2.459.839 4.968 1.255 7.531 1.255 2.558 0 5.142-.317 7.75-.962 2.607-.637 5.044-1.498 7.308-2.584.988-.39 1.993-.737 3.031-1.031 1.031-.296 1.992-.737 2.876-1.328.198-.199.345-.392.445-.592.099-.197.343-.391.733-.592.987-.39 1.825-.933 2.515-1.623.688-.686 1.424-1.329 2.216-1.918.884-.591 1.815-1.131 2.806-1.627.978-.49 1.914-1.031 2.806-1.621 1.473-1.084 2.897-2.217 4.278-3.397 1.376-1.179 2.754-2.31 4.136-3.396 1.081-.788 2.163-1.229 3.249-1.329 1.08-.099 2.115-.739 3.098-1.919.096-.098.319-.369.666-.813.346-.442.714-.932 1.104-1.477.398-.539.766-1.008 1.112-1.403.342-.391.564-.636.664-.737 1.571-1.673 2.88-3.518 3.913-5.536 1.031-2.018 1.698-3.62 1.992-4.798.394-1.38.61-2.684.664-3.916.051-1.227.171-2.531.371-3.913.29-2.064.592-4.082.884-6.054.298-1.965.445-4.033.445-6.199 0-.591-.078-1.229-.221-1.92-.151-.687-.273-1.279-.373-1.773" transform="matrix(4.16667 0 0 4.16667 920.04 300.318)"/><path d="m0-47.254c-.146.936-.463 2.092-.96 3.469-.196.789-.714 1.503-1.551 2.143-.834.644-1.502 1.204-1.988 1.697-.298.295-.57.663-.813 1.109-.251.441-.52.862-.814 1.255-.198.199-.645.566-1.329 1.105-.689.545-1.451 1.112-2.29 1.699-.837.591-1.646 1.107-2.435 1.549-.788.446-1.324.665-1.627.665-.094 0-.242-.462-.441-1.4-.196-.937-.391-1.968-.589-3.103-.199-1.13-.393-2.237-.59-3.321-.198-1.082-.298-1.771-.298-2.069v-.737c0-.391-.025-.834-.074-1.329-.051-.492-.069-.957-.069-1.399v-.813c-.203-.983-.472-1.995-.814-3.028-.346-1.035-.571-2.041-.664-3.026-.103-1.38-.175-2.709-.223-3.987-.053-1.28-.273-2.609-.663-3.989-.1-.197-.324-.738-.666-1.623-.347-.887-.516-1.426-.516-1.625v-5.314c2.36 0 4.725.492 7.087 1.475 2.36.985 4.452 2.29 6.275 3.911 1.822 1.627 3.322 3.546 4.503 5.762 1.181 2.213 1.771 4.551 1.771 7.011 0 1.675-.075 2.979-.222 3.913m20.524-18.9c-1.525-3.003-3.519-5.631-5.979-7.896-.196-.592-.614-1.084-1.253-1.477-.64-.394-1.16-.839-1.553-1.329-.788-.888-1.356-1.627-1.696-2.217-.347-.589-.911-1.276-1.699-2.064-3.051-3.054-6.495-5.415-10.334-7.089-3.842-1.672-7.977-2.508-12.406-2.508-2.658 0-5.316.342-7.972 1.031-1.869.494-3.692 1.135-5.464 1.919-1.771.788-3.347 1.724-4.723 2.805-.494-.49-.886-.737-1.182-.737-.788 0-1.255.366-1.404 1.108-.15.737-.466 1.256-.961 1.548-.095 0-.245.099-.437.298-.104.099-.25.146-.446.146l-1.475 1.921c0 .591-.252 1.056-.741 1.4-.493.347-.788.765-.884 1.255-.1.201-.198.742-.294 1.625-.103.888-.202 1.429-.298 1.623 0 .201-.073.52-.221.961-.148.444-.347.911-.589 1.404-.248.494-.516 1.134-.815 1.918 0 .296.125.689.372 1.183.243.492.465.936.659 1.329.2.493.324 1.056.373 1.697.046.642.074 1.306.074 1.992v3.84c-.199.198-.322.543-.368 1.033-.053.494-.177.79-.37.885v1.625c0 2.857.244 5.663.738 8.418.492 2.755.933 5.51 1.329 8.268.982 6.793 1.722 13.586 2.216 20.377.095.099.217.909.368 2.436.147 1.528.296 3.248.441 5.167.149 1.918.273 3.767.368 5.538.097 1.77.197 2.951.295 3.541.1.693.2 1.382.299 2.07.095.689.148 1.425.148 2.213v.739c0 1.086.12 1.972.367 2.658.243.689.417 1.477.515 2.361.2.792.274 1.551.225 2.29-.051.739-.025 1.547.073 2.434 0 .591.123 1.479.372 2.661.244 1.18.487 2.412.734 3.691.243 1.28.492 2.484.739 3.615.243 1.134.421 1.947.516 2.438 0 .099.025.368.074.809.051.447.125.915.224 1.405.093.495.197.985.295 1.477.096.494.147.837.147 1.035 0 .292.078.863.222 1.696.143.838.293 1.721.445 2.658.143.935.368 2.19.659 3.766v.592c0 .292.025.61.076.957.049.347.222.615.516.814 0 .194.049.539.148 1.033.095.49.199.835.298 1.033 0 .492.019.96.073 1.401.049.444.269.712.66.814.596-.492 1.207-1.255 1.849-2.288.636-1.036 1.206-1.845 1.696-2.437.095 0 .491-.245 1.186-.737.685-.495 1.079-.837 1.179-1.033.199.096.492.145.887.145.59 0 1.156-.173 1.697-.517.537-.345 1.105-.738 1.697-1.179.589-.446 1.153-.837 1.698-1.184.541-.346 1.057-.515 1.549-.515.296 0 .565.049.815.148.246.095.514.146.81.146.394 0 .566-.125.52-.368-.053-.249.116-.368.513-.368.098.097.197.244.296.442.1.196.199.343.298.443.096.098.144.195.144.294.199-.294.317-.688.372-1.179.044-.497.169-.839.368-1.033v-3.101c.394-.494.614-1.157.663-1.996.051-.834.074-1.498.074-1.992 0-.786-.143-1.527-.442-2.217-.295-.686-.494-1.373-.589-2.066l-1.329-20.965c-.203-1.673-.421-3.421-.663-5.246-.248-1.817-.372-3.615-.372-5.384 0-.297.047-.566.147-.813.095-.243.15-.518.15-.814 0-.095-.055-.268-.15-.515-.1-.243-.147-.416-.147-.518.098-.686 1.129-1.401 3.099-2.14 1.967-.74 4.11-1.574 6.425-2.508 2.31-.938 4.452-1.969 6.422-3.104 1.967-1.131 3.103-2.436 3.395-3.913l5.464-5.906c.393-.49.714-.961.961-1.403.243-.441.612-.858 1.108-1.253l3.097-4.726 1.627-3.1c1.275-2.265 2.312-4.699 3.1-7.309.788-2.607 1.179-5.244 1.179-7.9 0-3.345-.758-6.519-2.287-9.525" transform="matrix(4.16667 0 0 4.16667 1230.73 430.452)"/><path d="m0-39.404c.264-.466.633-.699 1.099-.699.397 0 .8.145 1.197.448.404.298.788.685 1.153 1.15.364.468.684.968.953 1.5.264.535.431 1 .497 1.4.601 1.667.954 3.502 1.048 5.502.101 2.001.152 3.867.152 5.599v2.902c0 4.867-.083 8.634-.246 11.302-.17 2.665-.353 4.665-.554 5.996 0 .337-.185.688-.549 1.053-.37.366-.784.732-1.25 1.097-.465.369-.936.702-1.399 1.002-.47.299-.835.55-1.103.751-.066.066-.247.134-.549.198-.299.069-.599.135-.898.199-.302.069-.586.153-.854.253-.268.099-.399.217-.399.348-.133 0-.264-.064-.399-.199-.133-.133-.268-.2-.397-.2-.14 0-.352.084-.655.247-.296.172-.581.254-.849.254-.4 0-.784-.333-1.149-1.001-.369-.665-.667-1.515-.897-2.552-.236-1.029-.42-2.212-.554-3.547-.135-1.335-.201-2.668-.201-4.001 0-1.065.084-2.101.251-3.103.167-.996.251-1.998.251-3.001 0-.132-.032-.229-.099-.297 0-1.333.032-2.552.099-3.651.064-1.101.101-2.318.101-3.65 0-2.6.101-4.582.298-5.951.202-1.364.549-2.484 1.052-3.351.5-.862 1.148-1.697 1.949-2.498.8-.8 1.766-1.966 2.901-3.5" transform="matrix(4.16667 0 0 4.16667 259.165 800.557)"/><path d="m0-25.416c-.729-.33-1.484-.33-2.27 0-.789.33-1.352.855-1.678 1.579-1.188 2.893-2.437 5.691-3.752 8.384-1.314 2.696-2.595 5.116-3.844 7.252-1.249 2.137-2.415 3.864-3.501 5.179-1.088 1.314-1.961 2.072-2.615 2.269-.135 0-.3-.132-.495-.396-.326-.59-.508-1.364-.542-2.318-.034-.953.017-1.986.144-3.108.137-1.115.332-2.218.593-3.302.264-1.086.529-2.056.793-2.911 0-.134.015-.248.049-.345.034-.101.049-.214.049-.347.262-.722.527-1.463.787-2.219.265-.758.53-1.492.79-2.221.396-1.115.756-2.199 1.086-3.254.332-1.052.658-2.138.989-3.256.129-.395.26-.803.394-1.233.13-.426.26-.868.391-1.332.129-.591.316-1.198.546-1.822.227-.627.409-1.233.542-1.828.326-.986.277-1.859-.148-2.614-.432-.756-1.101-1.198-2.024-1.332-.987-.199-1.941-.131-2.86.199-.923.329-1.84.657-2.763.985-.525.264-1.003.626-1.431 1.084-.429.463-.872.954-1.329 1.481-1.321 1.317-2.564 2.663-3.752 4.046-.131.194-.264.394-.391.591-.138.198-.299.459-.498.789-.065.065-.181.146-.343.248-.165.097-.313.214-.442.343-.135.134-.216.299-.247.493-.035.197-.117.395-.249.591-1.117 1.385-2.237 2.898-3.353 4.541-.592.921-1.17 1.824-1.725 2.712-.561.888-1.137 1.793-1.727 2.714-.133.262-.282.478-.447.641-.161.162-.311.376-.442.639-.134-.853-.096-1.48.099-1.873.261-.725.529-1.412.79-2.072.26-.657.558-1.347.888-2.072.393-.986.803-1.972 1.233-2.959.425-.988.838-1.941 1.232-2.862.26-.525.561-1.066.889-1.626.326-.561.591-1.099.79-1.628.326-1.249.114-2.453-.642-3.602-.755-1.15-1.795-1.857-3.109-2.122-.723-.131-1.414-.275-2.071-.442-.658-.166-1.348-.311-2.072-.445-.46-.129-.934-.211-1.432-.245-.491-.033-.903.05-1.232.245-.264.134-.59.297-.986.496-.394.198-.79.391-1.183.59-.392.199-.742.379-1.034.542-.298.165-.48.282-.546.347-.326.923-.658 1.823-.984 2.712-.331.885-.661 1.791-.989 2.714-.591 1.71-1.181 3.385-1.774 5.032-.595 1.645-1.152 3.32-1.679 5.03-.326 1.118-.69 2.216-1.081 3.304-.398 1.084-.595 2.221-.595 3.405 0 .459-.1.886-.295 1.28-.264.529-.524 1.069-.789 1.631-.26.556-.493 1.132-.691 1.724-.198.723-.442 1.465-.74 2.219-.299.756-.347 1.563-.148 2.418 0 .131-.034.233-.1.294-.061.065-.099.134-.099.199.199.328.347.591.446.789.1.196.214.392.343.591.199.659.381 1.332.547 2.023.16.689.442 1.299.838 1.824.328.525.736 1.002 1.227 1.43.498.428 1.01.805 1.536 1.133.393.265.823.462 1.28.595.459.13.923.326 1.383.591.785.46 1.591.658 2.413.591.823-.066 1.664-.193 2.515-.392.131 0 .364-.165.69-.497.33-.458.662-.919.989-1.379.33-.461.656-.921.988-1.382.525-.591 1.05-1.167 1.575-1.725.529-.557 1.054-1.135 1.58-1.728.656-.785 1.219-1.626 1.678-2.515s.89-1.791 1.281-2.711c.133-.394.347-.74.642-1.038.298-.294.541-.641.74-1.033.462-.923.89-1.827 1.286-2.714.389-.889.785-1.791 1.178-2.713.331-.725.657-1.445.989-2.168.33-.725.656-1.449.986-2.172.394-.79.771-1.612 1.133-2.469.365-.854.741-1.675 1.139-2.464.851-1.84 1.74-3.484 2.661-4.933.328-.525.692-1.02 1.084-1.479.394-.46.79-.953 1.188-1.481.326.921.421 1.679.292 2.27-.396 1.12-.807 2.204-1.232 3.254-.426 1.055-.838 2.139-1.232 3.258-.136.326-.265.675-.396 1.033-.134.364-.265.707-.394 1.04-.265 1.052-.512 2.087-.739 3.103-.233 1.022-.51 2.055-.84 3.11-.729 2.301-1.088 4.505-1.088 6.607.067 1.188.254 2.303.542 3.356.302 1.051.84 2.009 1.63 2.859 1.054 1.579 2.43 2.568 4.143 2.96.396.133.724.199.988.199 2.039.129 4.143-.889 6.313-3.057 2.172-2.172 4.541-5.657 7.105-10.46.855-1.641 1.679-3.254 2.464-4.833.789-1.579 1.463-2.991 2.022-4.242.556-1.25 1.003-2.268 1.331-3.059.33-.786.495-1.216.495-1.283.326-.722.326-1.461 0-2.217-.33-.756-.889-1.298-1.674-1.628" transform="matrix(4.16667 0 0 4.16667 490.193 961.142)"/><path d="m0 4.421c.134.627.265 1.251.398 1.874.131.624.193 1.137.193 1.53.067 0 .167.034.299.095.264.199.507.413.74.644.231.231.474.445.739.641.724.593 1.331.872 1.827.839.489-.032 1.035-.346 1.625-.936.526-.527 1.051-1.003 1.58-1.431.525-.426 1.018-.902 1.48-1.431.524-.525 1.001-1.067 1.427-1.628.429-.559.844-1.167 1.236-1.825.459-.724.841-1.446 1.133-2.17.298-.723.707-1.448 1.236-2.172.521-.919.359-1.609-.496-2.07-1.05-.525-2.116-.972-3.205-1.332-1.086-.359-2.252-.575-3.501-.642-.725-.063-1.53.183-2.42.742-.889.556-1.71 1.232-2.464 2.021-.756.79-1.385 1.613-1.872 2.469-.497.853-.679 1.513-.546 1.972.066.196.149.558.248 1.082.1.528.216 1.106.343 1.728" transform="matrix(4.16667 0 0 4.16667 1012.18 756.051)"/><path d="m0-20.734c0-.065.034-.163.1-.294.131-.328.248-.676.347-1.035.095-.362.211-.707.343-1.037l.889-2.962.099-.591c.196-.72.397-1.429.591-2.121.194-.69.459-1.396.785-2.119.2-.396.365-.826.498-1.285.131-.457.265-.917.396-1.38.063-.526.228-1.15.493-1.874.392-1.05.803-2.071 1.232-3.059.425-.984.873-2.005 1.331-3.057.265-.788.625-1.611 1.083-2.466.203-.394.398-.803.592-1.233.201-.429.396-.874.595-1.331.132-.134.199-.299.199-.498 0-.194.031-.391.098-.59.063-.131.1-.26.1-.394 0-.131.029-.265.094-.392.593-1.515 1.643-2.73 3.158-3.651.069 0 .118-.017.151-.049.032-.034.112-.051.244-.051-.132.263-.066.462.198.593.397.33.558.69.491 1.084-.065.396-.194.855-.395 1.38-.064.134-.096.231-.096.297 0 .067-.033.167-.098.294-.399 1.187-.89 2.24-1.481 3.158-.133.265-.25.511-.347.741-.095.232-.211.508-.345.839-.131.332-.28.641-.44.937-.168.294-.315.608-.447.936-.26.529-.51 1.055-.736 1.579-.232.527-.481 1.053-.742 1.579-.264.526-.529 1.07-.793 1.626-.261.564-.553 1.104-.885 1.628-.526 1.12-1.086 2.238-1.679 3.354-.33.726-.656 1.414-.982 2.072-.332.658-.659 1.349-.989 2.07-.333.725-.679 1.448-1.04 2.172-.357.725-.702 1.446-1.028 2.171-.265.593-.529 1.151-.794 1.676-.265.527-.559 1.053-.885 1.577.064-.127.095-.227.095-.294m86.911-12.431c.065-.721.13-1.443.199-2.17.13-1.577.344-3.136.642-4.686.297-1.541.607-3.072.934-4.585.264-.919.545-1.825.84-2.712.296-.89.574-1.791.838-2.712.261-.725.477-1.448.642-2.173.165-.723.348-1.445.542-2.17.131-.327.248-.689.347-1.086.099-.393.209-.753.343-1.086.131-.065.26-.096.396-.096.129 0 .261-.032.393-.1 1.055-.197 1.514.196 1.381 1.186-.195 1.05-.375 2.07-.542 3.058-.165.985-.343 2.005-.54 3.057-.398 2.304-.972 4.569-1.729 6.807-.756 2.235-1.597 4.472-2.513 6.706-.333.792-.676 1.596-1.035 2.418-.364.823-.707 1.662-1.038 2.514h-.296c.065-.723.131-1.443.196-2.17m30.581 0c.068-.721.133-1.443.199-2.17.131-1.577.343-3.136.641-4.686.297-1.541.608-3.072.939-4.585.259-.919.542-1.825.839-2.712.292-.89.571-1.791.834-2.712.265-.725.482-1.448.647-2.173.16-.723.343-1.445.542-2.17.127-.327.243-.689.343-1.086.099-.393.213-.753.346-1.086.127-.065.261-.096.392-.096.134 0 .261-.032.394-.1 1.05-.197 1.513.196 1.38 1.186-.195 1.05-.375 2.07-.538 3.058-.165.985-.346 2.005-.544 3.057-.393 2.304-.971 4.569-1.725 6.807-.755 2.235-1.596 4.472-2.517 6.706-.328.792-.676 1.596-1.035 2.418-.364.823-.711 1.662-1.037 2.514h-.295c.063-.723.13-1.443.195-2.17m15.981 25.849c-.392-.722-.985-1.247-1.774-1.579-.79-.263-1.546-.214-2.269.147-.725.361-1.249.937-1.579 1.726 0 .068-.183.529-.542 1.381-.361.857-.837 1.96-1.427 3.306-.595 1.351-1.254 2.877-1.976 4.587-.723 1.711-1.481 3.453-2.266 5.23l-6.119 14.204c-.333.657-.641 1.298-.94 1.923-.292.629-.607 1.267-.934 1.924-.658 1.317-1.318 2.615-1.972 3.897-.661 1.281-1.349 2.581-2.075 3.899-.068.062-.36.327-.885.786 0-.459.016-.824.049-1.083.029-.265.05-.562.05-.89-.072-.789-.116-1.575-.15-2.366-.036-.79-.049-1.577-.049-2.367.066-.724.127-1.414.199-2.073.066-.656.162-1.348.297-2.07.064-.462.146-.872.243-1.232.095-.365.178-.78.246-1.235.131-.595.182-1.202.152-1.827-.038-.624.013-1.264.144-1.922.265-1.115.498-2.204.693-3.258.192-1.049.495-2.136.887-3.254.525-1.708.984-3.402 1.382-5.081.392-1.673.751-3.366 1.083-5.078.198-.921.331-1.861.397-2.811.065-.955.129-1.891.199-2.812.061-.529.061-1.069 0-1.63-.07-.556-.034-1.098.095-1.628.131-.785.347-1.591.643-2.415.294-.822.606-1.596.936-2.32.525-.982 1.037-1.972 1.528-2.96.494-.984 1.006-1.973 1.532-2.955.128-.199.198-.464.198-.79 0-.33.061-.561.195-.692.392-.33.656-.707.79-1.137.131-.425.292-.867.49-1.331.134-.261.399-.771.79-1.527.399-.755.79-1.462 1.188-2.121.127-.33.292-.607.491-.84.195-.229.36-.506.493-.836.326-.79.657-1.594.983-2.418.332-.822.662-1.63.993-2.417.321-.593.654-1.165.984-1.728.326-.557.624-1.133.889-1.724.525-1.314 1.05-2.665 1.575-4.044.529-1.385 1.055-2.763 1.579-4.148.33-.917.604-1.84.836-2.761.232-.919.447-1.873.644-2.86.26-1.378.51-2.777.741-4.193.226-1.414.409-2.841.542-4.289.065-.921.099-1.861.099-2.816 0-.95-.067-1.889-.199-2.809-.065-.527-.216-1.018-.442-1.478-.231-.461-.642-.823-1.236-1.088-.72-.326-1.411-.654-2.069-.984-.66-.33-1.445-.363-2.368-.098-.79.195-1.611.312-2.469.346-.851.031-1.675.18-2.464.444-1.181.392-2.352.836-3.498 1.327-1.157.495-2.29 1.004-3.408 1.531-.131.527-.395 1.022-.789 1.477-.396.464-.627.957-.69 1.483-.131.92-.36 1.744-.686 2.468-.534 1.052-1.089 2.087-1.679 3.106-.595 1.019-1.12 2.057-1.58 3.107-1.053 2.629-2.059 5.263-3.009 7.895-.956 2.629-1.889 5.259-2.812 7.887-.33 1.054-.611 2.122-.838 3.209-.229 1.084-.511 2.154-.841 3.205-.393 1.251-.806 2.484-1.232 3.701-.43 1.217-.807 2.452-1.132 3.701-.529 1.971-1.006 3.961-1.432 5.965-.429 2.007-.906 4.027-1.43 6.067-.132.328-.214.689-.248 1.086-.034.395-.116.756-.243 1.084-.2.921-.399 1.811-.591 2.661-.199.86-.432 1.747-.697 2.668-.117.471-.221.929-.335 1.396-.02.047-.036.084-.057.132-.591 1.351-1.249 2.877-1.971 4.587-.728 1.711-1.482 3.453-2.271 5.23l-6.115 14.204c-.332.657-.64 1.298-.939 1.923-.292.629-.607 1.267-.934 1.924-.658 1.317-1.319 2.615-1.977 3.897-.656 1.281-1.347 2.581-2.07 3.899-.068.062-.365.327-.885.786 0-.459.012-.824.044-1.083.038-.265.055-.562.055-.89-.068-.789-.116-1.575-.15-2.366-.032-.79-.053-1.577-.053-2.367.07-.724.135-1.414.203-2.073.062-.656.157-1.348.292-2.07.068-.462.151-.872.245-1.232.102-.365.181-.78.249-1.235.131-.595.182-1.202.148-1.827-.034-.624.017-1.264.148-1.922.26-1.115.494-2.204.692-3.258.197-1.049.491-2.136.888-3.254.524-1.708.984-3.402 1.381-5.081.392-1.673.752-3.366 1.084-5.078.198-.921.33-1.861.392-2.811.065-.955.134-1.891.199-2.812.066-.529.066-1.069 0-1.63-.065-.556-.034-1.098.1-1.628.131-.785.346-1.591.639-2.415.298-.822.61-1.596.94-2.32.525-.982 1.033-1.972 1.524-2.96.497-.984 1.006-1.973 1.531-2.955.133-.199.199-.464.199-.79 0-.33.065-.561.199-.692.395-.33.656-.707.789-1.137.127-.425.292-.867.491-1.331.134-.261.399-.771.79-1.527.394-.755.789-1.462 1.184-2.121.131-.33.296-.607.491-.84.198-.229.363-.506.497-.836.33-.79.656-1.594.987-2.418.328-.822.654-1.63.984-2.417.326-.593.658-1.165.989-1.728.33-.557.62-1.133.885-1.724.529-1.314 1.05-2.665 1.579-4.044.524-1.385 1.05-2.763 1.579-4.148.326-.917.608-1.84.841-2.761.226-.919.442-1.873.639-2.86.264-1.378.51-2.777.741-4.193.226-1.414.408-2.841.542-4.289.065-.921.099-1.861.099-2.816 0-.95-.068-1.889-.199-2.809-.065-.527-.216-1.018-.442-1.478-.231-.461-.642-.823-1.237-1.088-.723-.326-1.414-.654-2.068-.984-.66-.33-1.45-.363-2.369-.098-.789.195-1.61.312-2.468.346-.851.031-1.679.18-2.465.444-1.18.392-2.351.836-3.501 1.327-1.154.495-2.286 1.004-3.404 1.531-.131.527-.395 1.022-.79 1.477-.392.464-.622.957-.689 1.483-.132.92-.365 1.744-.691 2.468-.524 1.052-1.088 2.087-1.679 3.106-.59 1.019-1.12 2.057-1.575 3.107-1.053 2.629-2.059 5.263-3.01 7.895-.955 2.629-1.892 5.259-2.811 7.887-.33 1.054-.607 2.122-.839 3.209-.232 1.084-.51 2.154-.84 3.205-.393 1.251-.802 2.484-1.232 3.701s-.807 2.452-1.133 3.701c-.529 1.971-1.005 3.961-1.431 5.965-.429 2.007-.91 4.027-1.435 6.067-.127.328-.209.689-.243 1.086-.035.395-.117.756-.248 1.084-.199.918-.393 1.805-.589 2.653-1.807 3.624-3.6 6.958-5.378 9.974-1.94 3.291-3.701 6.135-5.28 8.533-1.575 2.402-2.856 4.293-3.844 5.674-.989 1.38-1.481 2.138-1.481 2.269-.198.26-.393.493-.592.69-.197.197-.392.394-.59.593-.265.328-.564.641-.89.933-.33.299-.789.381-1.38.248.196-.458.396-.889.591-1.281.198-.393.359-.789.495-1.183.26-.722.442-1.431.542-2.122.095-.689.311-1.397.642-2.123.325-.919.719-1.772 1.182-2.561.458-.794.852-1.645 1.182-2.566.33-.855.645-1.694.939-2.515.293-.823.609-1.696.939-2.616.061-.261.194-.82.391-1.675.2-.858.394-1.812.593-2.863.197-1.051.43-2.055.69-3.009.26-.951.563-1.692.889-2.217.131-.265.21-.544.248-.838.034-.299.117-.578.244-.841.264-.721.529-1.43.789-2.119.264-.692.498-1.399.69-2.121.332-1.055.46-1.939.399-2.663-.067-.724-.481-1.432-1.233-2.121-.758-.691-1.501-1.071-2.221-1.137-.921-.132-1.86-.248-2.811-.343-.954-.099-1.891-.216-2.812-.347-.529 0-.923.034-1.187.097-.325.133-.756.316-1.28.542-.526.233-1.038.497-1.531.791-.491.297-.934.591-1.332.888-.391.294-.625.542-.69.741l-.1.195c-.524 1.384-1.032 2.748-1.528 4.096-.488 1.348-1.001 2.68-1.53 3.994-.655 1.711-1.294 3.419-1.918 5.132-.625 1.708-1.237 3.419-1.829 5.129-.171.476-.272.984-.407 1.478-.489.886-.946 1.784-1.466 2.662-1.055 1.778-2.105 3.453-3.159 5.034-2.434 3.75-5.028 7.463-7.793 11.148-.857.919-1.708 1.788-2.563 2.613-.858.821-1.643 1.562-2.371 2.218-.392.331-.822.642-1.281.938-.459.297-.951.607-1.476.938-.398.262-.662.459-.793.592-.064-.198-.096-.429-.096-.689-.065-.53-.116-.989-.15-1.383-.031-.396-.082-.789-.149-1.181-.065-.264 0-.677.196-1.234.199-.562.412-1.169.645-1.825.231-.658.491-1.283.79-1.873.292-.596.508-1.055.639-1.385.199-.328.311-.538.346-.642.031-.095.048-.177.048-.243.131-.792.26-1.414.398-1.878.061-.328.11-.688.143-1.084.033-.391.118-.751.249-1.086 0-.063.083-.393.248-.984.165-.593.359-1.249.592-1.973.231-.724.457-1.463.69-2.22.231-.756.409-1.332.542-1.726l.097-.495h-.097c.127-.46.33-1.082.591-1.874.264-.789.463-1.247.594-1.38.062-.132.13-.36.196-.69.069-.331.23-.989.495-1.975.261-.919.525-1.858.785-2.81.265-.955.464-1.596.593-1.924.065-.262.132-.494.197-.688.067-.199.167-.43.298-.694l.299-.591v-.194c.061-1.713.59-3.49 1.575-5.332.131-.326.359-1.183.69-2.563.131-.395.265-.854.396-1.381.129-.524.262-.923.393-1.184l.2-.495c.061-.658.26-1.414.59-2.266.2-.656.377-1.332.542-2.022.161-.694.113-1.399-.148-2.124-.134-.328-.394-.542-.785-.638-.399-.103-.89-.214-1.483-.348-.33 0-.755-.065-1.285-.197-.325-.064-.637-.112-.935-.148-.296-.032-.612-.051-.938-.051-2.104 0-3.713.593-4.833 1.779-.134.198-.413.558-.841 1.084-.424.528-.903 1.119-1.424 1.778-.398.525-.779 1.02-1.139 1.48-.358.459-.608.755-.738.886-.331.328-.642.659-.937.987-.296.328-.611.656-.937.982-.464.529-.907 1.024-1.332 1.483-.43.46-.873.954-1.332 1.479-1.12 1.38-2.169 2.729-3.158 4.045-.331.462-.656.888-.984 1.283-.331.394-.661.823-.989 1.283-.33.459-.673.887-1.034 1.281-.368.398-.707.824-1.037 1.285l-3.254 4.14c-.529.79-1.087 1.597-1.678 2.418-.59.824-1.154 1.662-1.679 2.515l-.789 1.186c-.134.262-.261.493-.394.69-.131.197-.264.43-.392.69-.198.265-.43.659-.69 1.183-.398.593-.794 1.184-1.183 1.776-.396.593-.794 1.152-1.188 1.677-.197.33-.379.608-.54.841-.167.23-.347.508-.546.838.066-.33.165-.756.296-1.283v-.593-.294c.464-.464.759-.972.889-1.53.13-.557.229-1.101.295-1.628.066-.129.099-.261.099-.394 0-.132.034-.264.1-.396.26-1.382.652-2.763 1.186-4.143l.294-.79c.13-.393.248-.772.347-1.135.099-.361.211-.707.343-1.035.397-1.249.807-2.483 1.231-3.698.426-1.215.941-2.42 1.536-3.601.126-.199.243-.409.338-.641.1-.231.216-.477.347-.74.265-.46.509-.922.741-1.381.231-.46.475-.921.74-1.381.33-.525.658-1.088.988-1.679.326-.59.654-1.183.984-1.773.131-.265.278-.526.443-.79.165-.265.313-.559.446-.889.199-.261.431-.658.69-1.186.261-.393.509-.788.742-1.179.23-.398.442-.789.634-1.188.265-.524.515-.999.745-1.43.232-.426.477-.869.742-1.331.197-.459.391-.901.59-1.331.2-.425.426-.872.691-1.332l1.182-2.072c.327-.591.644-1.182.939-1.774.294-.592.607-1.219.937-1.875.261-.526.494-1.019.691-1.483.194-.457.393-.95.593-1.479.194-.457.377-.902.542-1.329.16-.428.342-.875.539-1.334.394-.789.857-1.641 1.386-2.564.196-.393.388-.772.591-1.137.196-.36.39-.737.591-1.132.589-1.249 1.135-2.415 1.626-3.501.491-1.084.972-2.188 1.431-3.305.525-1.116 1.004-2.304 1.431-3.551.43-1.249.804-2.531 1.137-3.848l.095-.593c.127-.525.244-1.033.347-1.529.095-.493.244-1 .443-1.526.131-.397.165-.807.098-1.234-.067-.43-.232-.807-.492-1.137-.464-.394-.921-.557-1.384-.491-.329 0-.687-.198-1.084-.59-.131-.134-.2-.233-.2-.299-1.905-1.973-3.81-2.17-5.717-.591-.591.528-1.203.97-1.823 1.332-.629.362-1.302.707-2.022 1.037-.137 0-.233.034-.303.095-.325.069-.602.149-.834.248-.232.1-.415.281-.546.542-.065.131-.161.33-.294.591-.132.265-.297.629-.491 1.088-.265.459-.542 1.018-.841 1.675-.292.658-.607 1.302-.937 1.926-.326.625-.629 1.183-.885 1.674-.265.495-.464.841-.595 1.035-.068.071-.13.102-.195.102-.069.064-.138.098-.199.098l-.298.296c-.132.131-.293.264-.491.391-.2.138-.299.333-.299.596.067.328.016.609-.144.838-.165.23-.313.51-.447.841-.131.261-.26.49-.392.687s-.264.462-.393.79c-.265.921-.591 1.822-.988 2.712-.397.889-.856 1.761-1.381 2.616l-.298.693c-.526 1.049-1.068 2.133-1.624 3.254-.564 1.117-1.071 2.269-1.53 3.45-.331.923-.691 1.812-1.084 2.663-.396.857-.756 1.745-1.087 2.666-.398.921-.775 1.841-1.135 2.762-.361.919-.738 1.841-1.136 2.76-.525 1.449-1.05 2.882-1.575 4.294-.529 1.411-1.021 2.775-1.484 4.092-.326.921-.642 1.844-.934 2.763-.298.923-.607 1.842-.94 2.764-.127.591-.292 1.166-.491 1.723-.199.562-.394 1.135-.59 1.731-.134.259-.233.524-.299.785-.061.264-.165.56-.294.888-.132.397-.278.805-.443 1.233-.165.429-.313.872-.446 1.336-.722 2.429-1.347 4.799-1.872 7.099 0 .132-.034.246-.099.346-.068.1-.134.216-.199.345-.134.262-.261.578-.394.938-.029.08-.012.179-.022.268-.32.615-.641 1.22-.966 1.802-1.447 2.599-2.906 4.9-4.386 6.905s-2.879 3.732-4.194 5.181c-2.368 2.171-4.771 4.044-7.201 5.625-1.713 1.115-3.454 2.101-5.232 2.959-1.774.851-3.618 1.543-5.518 2.07-.53.13-.894.13-1.089 0-.199-.131-.296-.493-.296-1.086-.134-1.973-.134-3.978 0-6.019.066-.721.182-1.412.347-2.068.161-.66.309-1.349.442-2.072.265-1.186.392-2.369.392-3.555 0-1.183.204-2.366.591-3.548.137-.332.198-.707.198-1.137 0-.427.066-.84.2-1.234.33-1.115.658-2.199.984-3.254.33-1.054.661-2.136.989-3.256.197-.723.396-1.43.591-2.121.198-.69.395-1.394.594-2.123l1.184-4.14c.33-.919.59-1.86.785-2.812.199-.953.464-1.889.794-2.81.459-1.316.902-2.585 1.332-3.799.425-1.215.867-2.482 1.331-3.8.326-.985.639-1.956.934-2.906.298-.955.612-1.927.937-2.914.265-.724.526-1.412.79-2.068.263-.658.559-1.348.889-2.073.129-.525.277-1.02.443-1.48.165-.459.381-.954.641-1.479.525-1.12 1.067-2.221 1.63-3.305.557-1.088 1.137-2.152 1.727-3.207 1.377-2.563 3.089-4.867 5.128-6.905.33-.328.707-.642 1.137-.939.425-.294.868-.575 1.331-.837.392-.198.752-.214 1.084-.049.326.165.458.411.396.739-.07.395-.131.804-.199 1.233-.07.428-.165.841-.296 1.233-.134.398-.134.906 0 1.53.131.625.33 1.232.59 1.823.265.591.542 1.171.841 1.73.296.556.573.971.838 1.232.26.265.542.529.841.789.292.265.668.198 1.132-.199.851 1.055 1.711 1.351 2.568.89 1.641-.923 2.563-2.239 2.756-3.945.134-1.12.233-2.254.299-3.406.066-1.151.131-2.284.199-3.401 0-2.237-.364-4.279-1.088-6.118-.525-1.316-1.249-2.37-2.166-3.155-.927-.79-2.011-1.35-3.258-1.678-.857-.198-1.713-.281-2.568-.248-.853.036-1.708.085-2.564.148-.459 0-.901.065-1.331.199-.425.131-.836.165-1.232.099-.265 0-.902.231-1.922.69-1.023.46-2.107 1.021-3.256 1.677-1.152.654-2.24 1.316-3.258 1.971-1.021.661-1.624 1.12-1.827 1.381-.127.132-.227.295-.295.495-.065.199-.16.362-.296.493l-4.437 5.032c-.199.263-.409.508-.642.738l-.738.742c-.134.194-.265.411-.398.639-.132.233-.292.443-.492.642-.325.461-.658.889-.984 1.282-.33.392-.663.79-.988 1.184-.066.067-.115.131-.149.197-.033.065-.082.133-.148.198-.199.132-.464.362-.789.691-.13.13-.212.264-.246.393-.032.132-.114.263-.248.397-.326.393-.607.772-.834 1.131-.233.363-.48.708-.745 1.039-.195.259-.377.542-.542.839-.165.295-.343.575-.542.834-.33.462-.69.872-1.082 1.233-.397.364-.757.81-1.088 1.336-.724.984-1.448 2.104-2.17 3.353-.133.332-.381.824-.741 1.48-.359.658-.707 1.365-1.033 2.119-.332.758-.641 1.433-.94 2.025-.296.591-.474.921-.542.983-.264.594-.573 1.136-.933 1.63-.368.491-.707 1.003-1.037 1.531-.134.196-.248.408-.348.639-.099.233-.215.445-.343.641-.137.399-.281.774-.446 1.133-.166.364-.343.807-.542 1.332 0 .067-.134.298-.394.694-.131.195-.248.394-.347.588-.096.197-.21.397-.343.593-.529.921-.872 1.891-1.037 2.913-.161 1.017-.542 1.988-1.133 2.906.326.729.292 1.32-.1 1.779-.398.458-.69.955-.889 1.48-.26.59-.493 1.181-.69 1.775-.195.589-.425 1.18-.69 1.775-.129.328-.264.609-.394.838-.133.233-.231.478-.298.739-.127.658-.261 1.302-.392 1.927-.133.624-.264 1.231-.398 1.822-.26.923-.521 1.811-.79 2.663-.26.856-.525 1.745-.789 2.665-.127.328-.21.656-.243.987-.035.331-.117.659-.244.987-.133.593-.282 1.2-.447 1.825-.165.624-.376 1.231-.641 1.824-.326.79-.377 1.561-.148 2.319.226.755.247 1.53.049 2.32 0 .063.033.109.099.143.066.037.099.117.099.249.261.524.526 1.037.79 1.53.261.493.426.999.491 1.528.333 3.024 1.15 5.788 2.469 8.286.918 1.779 2.055 3.287 3.4 4.541 1.348 1.249 2.976 2.234 4.883 2.955 1.315.461 2.6.707 3.849.743 1.249.032 2.53-.05 3.849-.246 1.244-.264 2.476-.48 3.7-.64 1.213-.165 2.382-.613 3.499-1.336.066-.064.132-.098.197-.098.064 0 .13-.034.199-.097.786-.331 1.575-.639 2.365-.938.79-.297 1.579-.607 2.369-.936.527-.264 1.052-.543 1.577-.84.529-.294 1.054-.608 1.579-.936.724-.393 1.398-.807 2.022-1.232.625-.43 1.298-.872 2.022-1.331.529-.399 1.071-.79 1.627-1.188.56-.391 1.102-.821 1.631-1.281.065-.066.26-.245.59-.542.328-.298.659-.611.985-.938.33-.33.662-.658.988-.984.33-.33.559-.563.69-.694 0-.064.166-.328.496-.785.328-.464.671-.941 1.031-1.432.364-.493.876-1.171 1.532-2.022.116-.117.297-.371.529-.728.058.525.129 1.08.214 1.665.165 1.147.54 2.054 1.132 2.714.656.785 1.463 1.295 2.413 1.528.959.229 1.878.307 2.763.245.889-.065 1.696-.216 2.42-.442.722-.231 1.185-.412 1.38-.546.131-.065.508-.459 1.133-1.181.624-.724 1.314-1.531 2.072-2.42.756-.884 1.434-1.723 2.026-2.515.591-.789.916-1.246.983-1.38.067-.199.446-.889 1.134-2.07.694-1.186 1.467-2.467 2.318-3.847.857-1.385 1.647-2.667 2.369-3.849.72-1.185 1.149-1.84 1.283-1.972l.298-.297-.199-.197c.066-.131.161-.26.293-.396.138-.131.232-.227.298-.294l.199-.297c.724-.854 1.381-1.71 1.971-2.563.199-.265.398-.525.592-.789.2-.265.426-.56.691-.89.065-.131.131-.212.199-.243.062-.036.16-.116.292-.248.133-.133.261-.265.398-.398l.391-.391c.134-.2.25-.412.348-.642.099-.231.216-.444.344-.642.132-.328.392-.755.791-1.283.126-.262.264-.428.395-.495 0 .067-.017.116-.049.15-.033.032-.054.083-.054.149-.193.524-.388 1.05-.586 1.575-.2.528-.43 1.054-.695 1.579-.13.33-.233.629-.295.889-.065.265-.165.561-.296.89-.068.325-.133.658-.199.984-.065.33-.232.658-.493.988-.33.526-.574 1.082-.739 1.677-.16.593-.311 1.217-.443 1.873 0 .134-.016.265-.05.395-.032.13-.049.263-.049.395-.133.459-.281.923-.443 1.383-.165.459-.346.954-.545 1.479-.127.327-.265.688-.392 1.084-.134.396-.261.789-.399 1.181v.299c-.388 1.38-.754 2.794-1.083 4.242-.326 1.446-.525 2.924-.59 4.438 0 .33-.035.558-.1.694-.132.326-.214.669-.248 1.033-.033.359.116.741.447 1.137l-.099.194c0 .199-.035.331-.1.392v.398c-.065.197-.116.408-.148.642-.035.23.016.442.148.638.133.265.312.547.542.841.23.296.508.508.843.642.328.131.542.347.64.639.096.298.212.608.339.94.073.131.117.294.156.491.031.199.109.36.243.495.855 1.378 2.07 2.333 3.653 2.859.788.33 1.561.495 2.316.495.754 0 1.498-.032 2.217-.098.794-.067 1.547-.199 2.274-.397.719-.196 1.409-.46 2.068-.786.33-.135.629-.231.889-.298.26-.066.525-.165.79-.295.326-.068.756-.296 1.28-.69.199-.197.36-.335.498-.396.192-.131.392-.265.591-.394.194-.135.392-.264.59-.395h.099c.786-.134 1.411-.46 1.874-.985l.889-.889c.132-.133.277-.265.442-.396.165-.134.31-.262.448-.393.259-.2.524-.394.785-.593.265-.197.524-.428.789-.689 1.774-1.646 3.684-3.865 5.723-6.662.762-1.048 1.508-2.183 2.255-3.319.452.947 1.035 1.875 1.788 2.778.857.99 1.794 1.791 2.811 2.414 1.023.626 2.254.906 3.702.84.722 0 1.442.066 2.17.199.72.131 1.448.162 2.166.1.923-.134 1.73-.442 2.42-.94.69-.492 1.363-1.003 2.022-1.529.658-.526 1.265-1.12 1.827-1.773.554-.659 1.1-1.318 1.625-1.974l.591-.593c.065-.067.59-.738 1.579-2.019.989-1.287 2.238-3.075 3.752-5.379.322-.491.66-1.017 1.004-1.554-.103.657-.23 1.308-.415 1.948-.33.924-.507 1.875-.542 2.863-.031.985-.114 1.939-.247 2.86-.061.854-.112 1.69-.148 2.515-.029.822-.112 1.658-.243 2.515 0 .131-.018.248-.051.345-.032.102-.049.212-.049.345.066.656.114 1.298.148 1.927.034.62.083 1.232.144 1.823 0 .459-.027.901-.094 1.331-.067.426-.033.841.094 1.232.265 1.121.497 2.204.693 3.254.196 1.054.495 2.075.888 3.061 1.251 2.63 3.06 4.865 5.424 6.709 1.645 1.316 3.309 1.956 4.987 1.925 1.675-.036 3.365-.348 5.077-.941.855-.33 1.674-.69 2.468-1.082.785-.397 1.476-.957 2.069-1.679.726-.857 1.497-1.662 2.318-2.415.823-.755 1.596-1.566 2.32-2.419.459-.526.851-1.099 1.184-1.726.33-.626.656-1.234.981-1.824.333-.659.613-1.349.845-2.074.227-.723.574-1.414 1.033-2.07.09-.107.155-.232.23-.349-.014.13-.01.27-.03.398-.068.426-.034.841.097 1.232.265 1.121.493 2.204.693 3.254.192 1.054.491 2.075.884 3.061 1.252 2.63 3.06 4.865 5.429 6.709 1.641 1.316 3.304 1.956 4.979 1.925 1.678-.036 3.368-.348 5.084-.941.852-.33 1.675-.69 2.464-1.082.79-.397 1.481-.957 2.072-1.679.723-.857 1.494-1.662 2.315-2.415.823-.755 1.597-1.566 2.32-2.419.459-.526.851-1.099 1.184-1.726.33-.626.66-1.234.986-1.824.328-.659.608-1.349.841-2.074.231-.723.569-1.414 1.032-2.07.331-.397.56-.857.696-1.382.129-.529.327-1.02.591-1.477.127-.397.344-.792.64-1.184.295-.398.477-.79.542-1.183l4.933-15.393c.591-1.907 1.2-3.796 1.827-5.669.62-1.876 1.183-3.553 1.674-5.032.494-1.48.889-2.697 1.183-3.652.299-.951.477-1.495.542-1.627.33-.787.299-1.544-.099-2.268" transform="matrix(4.16667 0 0 4.16667 820.227 892.305)"/><path d="m0-5.154h-2.486v-1.344h6.453v1.344h-2.488v6.498h-1.479z" transform="matrix(4.16667 0 0 4.16667 1351.33 70.3283)"/><path d="m0-3.54-2.555 3.406h-.291l-2.499-3.417v5.702h-1.478v-7.842h1.703l2.454 3.373 2.452-3.373h1.693v7.842h-1.479z" transform="matrix(4.16667 0 0 4.16667 1400.96 67.0092)"/><path d="m0-25.078c-6.914 0-12.538 5.625-12.538 12.539s5.624 12.539 12.538 12.539 12.539-5.625 12.539-12.539-5.625-12.539-12.539-12.539m0 26.712c-7.815 0-14.173-6.358-14.173-14.173s6.358-14.173 14.173-14.173 14.174 6.358 14.174 14.173-6.359 14.173-14.174 14.173" transform="matrix(4.16667 0 0 4.16667 1375.6 111.3)"/></g></svg>