<svg fill="#fff" clip-rule="evenodd" fill-rule="evenodd" stroke-linejoin="round" stroke-miterlimit="1.41421" viewBox="0 0 1707 395" xmlns="http://www.w3.org/2000/svg"><g fill-rule="nonzero"><path d="m1644.35 36.643h-7.769v-4.203h20.163v4.203h-7.772v20.303h-4.622z"/><path d="m1681.57 39.198-7.987 10.64h-.909l-7.807-10.675v17.816h-4.618v-24.503h5.321l7.666 10.537 7.666-10.537h5.29v24.503h-4.622z"/><path d="m1662.55 5.109c-21.606 0-39.181 17.579-39.181 39.185s17.575 39.181 39.181 39.181 39.184-17.575 39.184-39.181-17.578-39.185-39.184-39.185m0 83.475c-24.422 0-44.291-19.868-44.291-44.29s19.869-44.294 44.291-44.294 44.294 19.872 44.294 44.294-19.872 44.29-44.294 44.29"/><path d="m726.425 119.981c-.059.509.219 1.946.853 4.328.631 2.378 1.05 3.834 1.247 4.365.616 3.666.791 7.15.559 10.457-.24 3.309-.443 6.746-.568 10.328-.044 2.565.24 5.212.837 7.981.585 2.756.985 5.434 1.222 8.022-.028.256-.112.944-.237 2.09-.125 1.138-.207 2.354-.219 3.629-.016 1.284-.082 2.434-.191 3.44-.115 1.019-.19 1.653-.215 1.9-.088.76-.029 2.566.171 5.403.197 2.85.379 5.757.557 8.722.187 2.972.39 5.688.631 8.15.237 2.472.487 3.71.728 3.738.781.084 2.225-.325 4.378-1.241 2.16-.916 4.385-2.009 6.719-3.291 2.325-1.275 4.447-2.512 6.378-3.712 1.916-1.191 3.175-2.009 3.737-2.466.872-.925 1.679-1.931 2.457-2.993.75-1.072 1.559-1.941 2.406-2.622 1.397-1.119 3.284-2.378 5.609-3.791 2.344-1.406 3.869-3.097 4.61-5.069 1.675-3.4 2.822-6.284 3.462-8.653.65-2.359 1.222-5.697 1.707-10.009.7-6.325-.141-12.513-2.538-18.556-2.409-6.038-5.719-11.413-9.931-16.119-4.228-4.706-9.238-8.653-15.031-11.872-5.791-3.206-11.732-5.153-17.81-5.841zm-54.8 262.815c-.694-.6-1.059-1.337-1.094-2.24-.028-.907 0-1.728.088-2.488l.168-1.522c-.299-4.144-.512-7.437-.612-9.884-.125-2.45-.253-4.769-.388-6.963-.128-2.193-.165-3.678-.074-4.434.053-.509.024-1.406-.079-2.706-.115-1.291-.24-2.585-.34-3.885-.113-1.287-.175-2.518-.175-3.671 0-1.157.015-1.857.043-2.116-.096-1.291-.321-3.438-.621-6.422-.313-2.978-.604-6.15-.86-9.516-.269-3.365-.544-6.606-.831-9.712-.291-3.113-.356-5.428-.188-6.95 0-2.309.166-4.4.51-6.284.334-1.891.365-3.872.087-5.963 0-2.303-.225-4.375-.65-6.225-.443-1.841-.487-4.153-.181-6.944l.213-1.903c.225-2.025.3-3.937.253-5.74-.057-1.794-.11-3.6-.166-5.407-.087-1.553 0-4.612.256-9.203.263-4.584.479-9.372.647-14.356.182-4.981.297-9.453.344-13.425.059-3.972-.025-6.094-.241-6.378.682-17.625.735-35.31.166-53.075-.225-7.206-.569-14.431-1.044-21.666-.484-7.234-.297-14.522.522-21.875l.472-4.181c.525-.194.931-.913 1.209-2.172.26-1.253.678-2.1 1.244-2.556l1.103-9.875c.197-1.766.319-3.485.385-5.153.053-1.66-.1-3.147-.466-4.472-.388-1.069-.838-2.269-1.325-3.61-.484-1.343-.694-2.393-.613-3.153.997-1.931 1.866-3.509 2.65-4.706.766-1.194 1.404-2.337 1.919-3.441.51-1.096.794-1.89.847-2.403.303-.481.713-1.843 1.231-4.097.507-2.25.916-3.609 1.229-4.093.381-1.238 1.268-2.228 2.631-2.978 1.362-.741 2.15-1.872 2.315-3.397l4.344-4.513c.513.06.897-.022 1.194-.25.55-.453.962-.659 1.209-.634 1.357-.616 2.325-1.86 2.919-3.713.597-1.862 1.9-2.678 3.931-2.447.766.082 1.7.832 2.835 2.238 3.846-2.384 8.175-4.338 12.956-5.863 4.794-1.509 9.662-2.628 14.615-3.362 7.038-1.006 13.982-1.128 20.819-.363 11.4 1.275 21.794 4.619 31.207 10.025 9.393 5.419 17.581 12.491 24.553 21.219 1.8 2.256 3.059 4.188 3.775 5.81.706 1.615 1.956 3.678 3.731 6.184.865 1.384 2.078 2.675 3.612 3.869 1.532 1.2 2.46 2.581 2.8 4.159 5.679 6.544 10.05 13.888 13.116 22.05 3.063 8.175 4.103 16.559 3.147 25.172-.766 6.834-2.534 13.503-5.313 19.987-2.781 6.488-6.146 12.463-10.087 17.922l-5.075 7.513-9.334 11.262c-1.385.875-2.454 1.847-3.207 2.913-.762 1.069-1.725 2.184-2.881 3.331l-15.762 13.634c-1.179 3.707-4.472 6.744-9.86 9.088-5.397 2.347-11.2 4.387-17.422 6.134-6.228 1.744-11.984 3.278-17.259 4.61-5.278 1.337-8.141 2.872-8.594 4.615-.028.257.047.716.235 1.372.175.663.262 1.128.234 1.375-.081.753-.3 1.444-.619 2.044-.328.609-.531 1.291-.612 2.053-.51 4.556-.713 9.216-.597 13.969.106 4.769.165 9.325.197 13.684l-2.61 54.344c.044 1.809.357 3.637.925 5.491.563 1.859.722 3.803.497 5.828-.14 1.268-.397 2.972-.765 5.109-.366 2.141-1.122 3.788-2.282 4.938l-.897 7.981c-.568.444-.984 1.297-1.243 2.553-.272 1.244-.7 2.231-1.297 2.931.034-.259-.069-.525-.281-.8-.225-.284-.441-.694-.638-1.225-.197-.54-.409-.947-.641-1.225-1.021-.115-1.493.147-1.421.797.05.641-.432.916-1.444.806-.76-.087-1.441-.303-2.041-.612-.619-.328-1.294-.531-2.059-.619-1.263-.137-2.641.147-4.128.884-1.507.729-3.072 1.575-4.719 2.554-1.647.971-3.228 1.815-4.706 2.546-1.494.735-2.994 1.016-4.513.844-1.019-.109-1.762-.328-2.237-.628-.313.475-1.435 1.241-3.341 2.319-1.919 1.062-3.019 1.581-3.259 1.553-1.435 1.378-3.135 3.306-5.069 5.784-1.953 2.478-3.741 4.26-5.416 5.357-.978-.366-1.465-1.122-1.465-2.282-.007-1.153.075-2.362.212-3.625-.197-.537-.362-1.456-.465-2.75-.113-1.3-.141-2.193-.088-2.7m-228.85-160.122c.256.519 1.275 4.207 3.069 11.091 1.775 6.884 5.353 14.528 10.697 22.944 5.353 8.415 13.068 16.25 23.137 23.515 10.066 7.269 23.766 11.663 41.103 13.194 0 .516.257.828.769.96.5.131 1.003.315 1.528.571l12.625-3.828c.241-.25.81-.443 1.706-.575.897-.125 1.591-.19 2.107-.19 3.568-3.563 6.637-7.263 9.181-11.082 2.537-3.825 5.084-7.903 7.65-12.24 1.269-2.038 2.534-4.072 3.812-6.116 1.279-2.044 2.432-4.078 3.454-6.119 3.562-8.153 6.303-16.693 8.209-25.621 1.925-8.916 2.878-17.841 2.878-26.766 0-3.059-.325-6.556-.953-10.516-.644-3.947-1.222-10.512-1.734-19.687v-1.153c0-2.038-.897-5.157-2.672-9.363-1.782-4.209-4.66-8.412-8.6-12.619-3.957-4.203-8.925-7.896-14.913-11.09-5.994-3.188-13.184-4.778-21.606-4.778-4.853 0-9.631.19-14.341.568-4.722.388-9.618 1.091-14.718 2.107l-18.732 7.262c-2.812 1.022-5.109 2.485-6.884 4.403-1.781 1.913-3.316 4.01-4.594 6.303-.762 1.282-1.325 2.682-1.712 4.204-.385 1.534-.96 2.937-1.728 4.212-5.347 9.691-9.813 19.369-13.382 29.063-3.572 9.69-5.356 20.134-5.356 31.346m-4.969 107.832c-2.04 0-4.006-.888-5.918-2.675-1.929-1.782-3.51-3.313-4.791-4.591-3.566-3.059-7.072-6.437-10.516-10.134-3.44-3.688-6.434-7.578-8.99-11.663-5.866-9.937-10.769-19.937-14.713-30.015-3.956-10.069-5.919-21.213-5.919-33.454 0-11.728 1.772-22.812 5.344-33.265 3.569-10.453 8.291-20.647 14.156-30.591 2.791-5.1 5.604-10.381 8.416-15.862 2.784-5.491 6.225-10.391 10.319-14.725.247-.51.953-1.341 2.097-2.485 1.153-1.15 2.425-2.359 3.825-3.634 1.4-1.272 2.684-2.488 3.825-3.638 1.143-1.143 1.968-1.968 2.484-2.484l8.419-6.5c.756-.766 1.644-1.144 2.672-1.144 2.8-1.275 5.662-2.865 8.6-4.781 2.928-1.912 5.675-3.887 8.218-5.928l6.125-4.969c.244-.256.579-.572.95-.953.385-.384.707-.578.963-.578l1.528.766c1.275 0 2.106-.316 2.478-.957.391-.631.953-1.203 1.725-1.715 3.05-1.788 6.313-3.253 9.756-4.397 3.441-1.15 6.691-2.613 9.735-4.406.781-.244 1.981-.691 3.644-1.335 1.659-.634 3.44-1.275 5.356-1.915 1.9-.635 3.687-1.204 5.353-1.719 1.644-.506 2.866-.885 3.622-1.141 2.8 0 5.678-.315 8.619-.956 2.915-.631 5.918-1.209 8.971-1.725.516 0 1.657.066 3.454.197 1.771.131 3.687.25 5.728.372 2.028.134 3.943.203 5.74.203h5.35c1.019 0 1.791-.203 2.288-.575.515-.391 1.275-.578 2.3-.578 2.287 0 5.1.765 8.409 2.297 3.316 1.525 5.86 2.671 7.644 3.437 5.866 2.809 11.928 6.763 18.166 11.85 6.243 5.103 11.031 10.459 14.34 16.063 2.288 4.084 4.597 8.734 6.885 13.959 2.287 5.228 4.393 10.644 6.303 16.247 1.915 5.609 3.687 11.222 5.368 16.831 1.647 5.609 2.982 10.697 4.004 15.294.246.259.44 1.081.581 2.481.115 1.403.181 2.359.181 2.866.256 1.284.575 2.812.963 4.593.371 1.782.575 3.438.575 4.969 0 5.61-.385 10.966-1.154 16.056-.756 5.107-1.537 10.329-2.287 15.679-.522 3.571-.831 6.953-.959 10.131-.141 3.194-.707 6.572-1.725 10.14-.76 3.05-2.488 7.197-5.16 12.425-2.675 5.225-6.059 10-10.131 14.335-.259.262-.831.897-1.719 1.909-.897 1.025-1.85 2.238-2.878 3.635-1.012 1.406-1.966 2.681-2.862 3.825-.897 1.146-1.479 1.85-1.725 2.106-2.538 3.056-5.225 4.719-8.022 4.969-2.81.256-5.613 1.4-8.407 3.44-3.584 2.81-7.153 5.735-10.709 8.794-3.584 3.056-7.272 5.994-11.087 8.794-2.307 1.534-4.732 2.934-7.266 4.203-2.566 1.278-4.981 2.681-7.266 4.212-2.053 1.525-3.956 3.188-5.74 4.969-1.785 1.788-3.957 3.188-6.507 4.2-1.018.522-1.646 1.022-1.903 1.534-.256.522-.64 1.025-1.153 1.532-2.287 1.531-4.778 2.675-7.45 3.44-2.687.763-5.29 1.66-7.847 2.678-5.862 2.807-12.175 5.032-18.925 6.685-6.753 1.665-13.443 2.49-20.072 2.49-6.637 0-13.131-1.078-19.5-3.25-6.368-2.162-12.109-5.925-17.209-11.284-.759-.5-1.784-1.078-3.053-1.719-1.284-.634-1.916-1.584-1.916-2.865m-137.103-183.538c-.769-9.178-1.156-19.881-1.156-32.122v-8.978c0-3.19.131-6.434.387-9.75v-4.594c0-.25.191-1.206.575-2.862.385-1.659.569-2.738.569-3.253.256-1.019.51-2.481.778-4.394.247-1.919 1.263-2.872 3.047-2.872h.766c0 .256-.138.766-.381 1.528-.26.766-.385 1.282-.385 1.532l-4.584 43.587c0 .519.065 1.597.19 3.25.122 1.663.194 2.747.194 3.25.5 1.281.825 2.816.95 4.591.131 1.784.203 3.315.203 4.593v2.291l-.778 1.144.778 1.147zm-103.397 199.975c0-.503.057-1.078.194-1.719.113-.634.178-1.084.178-1.334 0-.509.056-2.041.191-4.584.134-2.547.325-5.294.581-8.225.247-2.935.438-5.669.566-8.225.131-2.544.19-4.203.19-4.972 0-2.035-.19-4.072-.575-6.113-.372-2.034-.568-4.072-.568-6.125 0-1.268.065-2.353.196-3.243.125-.891.438-1.969.947-3.25v-26c0-.766-.059-2.61-.19-5.544-.128-2.928-.319-5.994-.566-9.175-.256-3.188-.447-6.178-.581-8.985-.135-2.803-.191-4.593-.191-5.359v-6.5c0-2.037-.512-4.209-1.525-6.494v-44.737c-.259-.26-.384-.635-.384-1.156-.256-.504-.388-1.01-.388-1.525l.388-1.144c0-7.394-.256-14.66-.76-21.8-.515-7.128-.771-14.394-.771-21.794v-15.294c.512-1.015.771-2.04.771-3.065v-1.525c0-.247.054-1.013.191-2.288.125-1.278.313-2.615.569-4.019.253-1.4.509-2.678.769-3.828.243-1.14.381-1.962.381-2.484.515-3.819 1.465-7.647 2.869-11.475 1.4-3.819 2.103-7.888 2.103-12.228 1.015-1.278 2.097-2.297 3.247-3.063 1.143-.762 2.353-1.781 3.637-3.059 2.294-1.531 4.197-2.8 5.725-3.822 1.284-1.016 2.488-1.912 3.644-2.678 1.144-.763 1.837-1.144 2.097-1.144h4.212c2.028 0 4.328-.634 6.881-1.912 2.541-1.269 4.838-1.913 6.879-1.913 1.778 0 3.059 1.022 3.831 3.06.247 2.296.437 4.656.562 7.078.132 2.422.194 4.906.194 7.453 0 1.525-.062 3.125-.194 4.772-.125 1.668-.19 3.384-.19 5.172.515.512.772 1.275.772 2.284.24 1.028.496 2.875.753 5.55.259 2.675.39 4.275.39 4.778.253 1.278.45 4.591.575 9.944.125 5.347.191 12.878.191 22.556.516.516.772 1.216.772 2.106v7.072c.247 1.028.562 3.441.953 7.266.372 3.819.756 7.906 1.144 12.24.381 4.341.884 8.344 1.537 12.041.628 3.7 1.197 5.678 1.706 5.922.516 0 3.441-.188 8.8-.569 5.35-.384 11.079-.759 17.2-1.15 6.125-.375 14.285-1.084 24.488-2.094.503 0 .75-.515.75-1.531 0-4.844-.184-9.884-.578-15.109-.375-5.219-.822-10.9-1.325-17.016h.372c.256 0 .512.138.781.388.503.759 1.006 2.55 1.516 5.353.515 2.806.962 5.865 1.346 9.175.379 3.309.694 6.44.954 9.365.243 2.935.375 4.779.375 5.544 0 1.281-.185 1.981-.569 2.106-.381.129-.831.7-1.335 1.725h1.904c1.025 0 2.359-.065 4.015-.203 1.66-.118 2.491-.822 2.491-2.097 0-.506-.322-1.209-.95-2.106-.644-.884-.966-1.725-.966-2.484 0-1.013.131-1.65.388-1.91.25-.256.384-1.14.384-2.675 0-.765-.266-1.4-.772-1.909l-1.909-15.684c-.256-2.035-.638-4.141-1.144-6.307-.512-2.159-.772-4.262-.772-6.309 0-.766.131-1.528.385-2.294.256-.765.387-1.781.387-3.059 0-.256-.256-.441-.772-.578-.512-.125-.765-.313-.765-.566v-1.919c0-.246-.066-1.393-.185-3.437-.137-2.041-.19-3.309-.19-3.822-.766-1.012-1.157-3.187-1.157-6.497 0-2.556.257-5.481.772-8.8.516-3.306 1.013-6.556 1.525-9.756.516-3.175 1.019-6.109 1.528-8.784.516-2.685.772-4.785.772-6.316 0-.253-.078-.572-.19-.953-.138-.385-.194-.703-.194-.956l-.76-1.15v-4.585c.504 0 .76-.253.76-.765l-.76-1.529c0-.509.569-1.018 1.713-1.531 1.153-.509 3.062-1.209 5.734-2.103 2.688-.891 6.319-2.159 10.907-3.822 4.584-1.659 10.565-3.884 17.962-6.694 2.309 0 4.209.766 5.75 2.297 1.528 1.528 2.659 3.313 3.431 5.347.757 2.047 1.335 4.156 1.719 6.316.381 2.165.575 3.89.575 5.159 0 12.235 1.275 24.16 3.831 35.753 2.541 11.6 3.822 23.266 3.822 34.985 0 .515-.578.959-1.728 1.337-1.144.381-1.712 1.219-1.712 2.491s.246 2.54.759 3.822c.497 1.275.766 2.672.766 4.203v2.675c-1.022.515-1.525 1.665-1.525 3.444 0 1.271.437 2.356 1.334 3.25.887.896 1.337 1.981 1.337 3.25 0 .765-.128 1.403-.384 1.912-.259.516-.384 1.278-.384 2.294 0 .259.125.515.384.765.256.26.384.641.384 1.144 0 .522-.259 1.025-.768 1.531 0 .26.19.766.575 1.535.384.762.706 1.275.962 1.528l.763 17.206c0 .253-.132.516-.391.763-.244.256-.372.512-.372.765v12.235c0 .512.128 1.725.372 3.637.259 1.91.391 3.119.391 3.628 0 11.469-.707 23.194-2.11 35.172-1.4 11.991-2.093 23.71-2.093 35.185v5.353c0 .262-.138 1.081-.382 2.484-.268 1.403-.39 2.484-.39 3.25-.253.513-.385 1.278-.385 2.291 0 .512-.125.903-.381 1.147h-1.903v9.562l-1.538-.384c-.259 1.025-.515 2.053-.771 3.059-.247 1.022-.822 2.356-1.71 4.016-.897 1.665-2.231 3.765-4.019 6.315-1.787 2.541-4.209 5.728-7.268 9.56-3.31 0-7.638-1.085-12.994-3.257-5.353-2.162-12.122-5.796-20.263-10.896-1.025-.766-1.718-2.541-2.106-5.35-.384-2.807-.575-6.369-.575-10.707 0-4.843.191-10.14.575-15.872.388-5.731.825-11.406 1.335-17.015.512-5.603 1.018-10.71 1.531-15.291.515-4.594.887-8.031 1.144-10.328 0-.503.059-.953.19-1.341.128-.378.194-.818.194-1.334v-1.15c0-.25.066-.434.191-.566.131-.131.19-.318.19-.581l.388-.378c0-.253.062-.384.193-.384.125 0 .191-.125.191-.382 0-1.018-.134-1.971-.384-2.868-.257-.891-1.028-1.466-2.297-1.722-1.531 2.044-2.428 4.465-2.681 7.265-.244 2.807-.375 5.607-.375 8.41 0 2.812-.194 5.484-.575 8.037-.379 2.544-.707 5.222-.954 8.022l-3.068 39.769-.372-5.741c0-9.937.053-20.003.19-30.197.119-10.2.438-20.265.963-30.209 0-.253.116-.959.372-2.106.259-1.144.378-1.847.378-2.097 0-.766.125-2.106.394-4.016.247-1.915.372-3 .372-3.256 0-.509-.125-1.016-.372-1.525-.269-.509-.394-.891-.394-1.144h-1.903c-6.125.76-12.238 1.144-18.36 1.144-6.115 0-12.365.131-18.725.375-.265 0-1.284.072-3.068.197-1.785.125-2.938.194-3.441.194l-5.353.759.766 6.884v14.91c0 5.359.056 10.775.187 16.256.125 5.478.191 10.769.191 15.869 0 1.275.125 2.29.384 3.056.247.766.394 1.531.394 2.291v2.297l-.778 2.678c0 .262.125 1.212.384 2.872.247 1.65.394 2.615.394 2.862 0 4.847-.072 7.647-.203 8.413-.135.762-.191 1.281-.191 1.528-1.281 9.94-2.481 16.825-3.622 20.65-1.156 3.825-3.444 6.375-6.897 7.643-3.44 1.282-8.6 2.166-15.484 2.679-6.881.518-16.563 2.428-29.059 5.731-.51-.503-.757-1.075-.757-1.716zm-167.293-25.422c-3.697-1.656-7.207-3.878-10.504-6.69-.528-.513-1.403-1.466-2.687-2.866-1.281-1.4-2.169-2.353-2.672-2.869-.512-.509-.897-1.084-1.141-1.718-.268-.641-.653-1.21-1.156-1.732-4.34-7.378-7.394-14.581-9.181-21.6-1.784-7.003-2.672-14.718-2.672-23.128v-8.031c.256-2.297.581-5.603.953-9.938.385-4.334.706-6.887.953-7.653l.766-6.118c1.028-6.882 1.981-13.635 2.878-20.266.888-6.625 2.478-13.125 4.775-19.5l.372-.378c.259-.256.391-.444.391-.581 0-.125.125-.31.393-.572l.75-1.522c.51-1.025 1.347-2.681 2.488-4.975 1.156-2.291 2.3-4.781 3.444-7.456 1.143-2.679 2.29-5.169 3.446-7.454 1.132-2.296 1.969-3.831 2.485-4.59.497-.51 1.394-2.035 2.669-4.588 1.281-2.547 2.168-4.331 2.681-5.353 5.856-10.197 12.044-18.415 18.544-24.669 6.496-6.243 14.587-12.675 24.278-19.306.247 0 1.85-.315 4.787-.953 2.919-.637 4.641-1.212 5.156-1.725 1.269-.759 2.488-1.719 3.632-2.869 1.156-1.143 2.359-2.228 3.634-3.25 4.597-3.053 9.678-5.603 15.294-7.647.497-.506 1.728-.953 3.631-1.331 1.913-.387 5.419-.575 10.519-.575.509.506 1.012.953 1.525 1.341.515.378 1.025.828 1.528 1.331l2.3 1.531.759 2.297v.375c0 .766.447 1.666 1.344 2.678.888 1.022 1.85 1.532 2.863 1.532h12.625c7.893 2.29 14.203 7.14 18.915 14.531 4.722 7.397 8.228 18.872 10.516 34.409l-.372 1.913c0 .518.05 1.09.191 1.725.115.64.181 1.215.181 1.718 0 1.019-.066 1.725-.181 2.104-.141.381-.716 1.087-1.722 2.1-.516.515-2.863 1.531-7.075 3.062-4.21 1.528-10.769 5.728-19.682 12.619 0 .765.113 1.528.372 2.3.257.753.382 1.519.382 2.284-1.279 0-1.975-.634-2.1-1.909-.132-1.269-.707-1.91-1.725-1.91-1.282 0-1.916.45-1.916 1.335 0 .897-.369 1.719-1.141 2.484-.253-.503-.631-1.269-1.147-2.284-.506-1.019-1.146-1.535-1.906-1.535-.515 0-1.031.254-1.528.763-.516.512-.772.897-.772 1.147-.772-.766-1.278-1.147-1.528-1.147-.256.256-.512.381-.769.381-.259 0-.515.066-.762.191-.256.131-.506.2-.766.2-.772 0-1.144-.26-1.144-.772-.771-3.563-1.603-7.072-2.49-10.513-.897-3.44-1.978-6.815-3.25-10.134-.513-.766-1.278-1.15-2.297-1.15-1.528 0-2.288.384-2.288 1.15-8.409 4.588-15.293 10.194-20.656 16.822-5.347 6.637-9.94 14.278-13.756 22.947l-.772 1.522c-.256.256-.381.45-.381.575 0 .131-.125.322-.372.578l-.388.378-3.053 6.122v2.29c-.259 1.532-.706 2.679-1.347 3.444-.646.766-1.221 1.913-1.725 3.444l-3.053 15.291c-.512.515-.837 1.793-.953 3.828-.131 2.04-.19 4.334-.19 6.878 0 2.556-.066 4.972-.197 7.265-.125 2.3-.45 3.825-.957 4.585v9.565c0 5.866.447 11.41 1.344 16.629.9 5.231 3.11 10.396 6.688 15.49 1.275 1.531 2.287 2.616 3.059 3.25.772.641 2.041.953 3.825.953 3.059 0 5.859-.759 8.409-2.293 2.544-1.532 5.035-3.31 7.463-5.354 2.416-2.037 4.837-4.265 7.256-6.693 2.425-2.416 4.788-4.394 7.075-5.928 1.281-.76 2.872-1.454 4.788-2.1 1.909-.632 3.625-1.204 5.15-1.719 1.028-.25 1.85-.766 2.49-1.528.635-.766 1.466-1.4 2.488-1.913l11.469-4.969c2.04-.765 4.262-1.209 6.693-1.34 2.425-.125 4.647-.319 6.685-.575 0 .759-.125 1.15-.372 1.15 1.528 0 2.919-.763 4.203-2.294v3.825c3.053 0 4.581 1.019 4.581 3.053 0 2.047-.575 5.106-1.709 9.175-1.153 4.081-1.975 9.697-2.491 16.831 0 .254.056.51.185.76.131.259.2.64.2 1.153 0 .256-.069.447-.2.572-.129.125-.185.325-.185.572v.765l-1.14 2.291c0 1.016.503 1.534 1.525 1.534 1.275 0 2.418-.518 3.431-1.534.515.262.772.897.772 1.912 0 1.029-.707 1.794-2.097 2.297-1.41.513-2.372 1.141-2.872 1.907-.256.259-.516.9-.759 1.918-.26 1.022-.385 1.657-.385 1.91-.512 1.278-1.475 2.547-2.865 3.825-1.413 1.281-2.491 2.422-3.263 3.44-1.269 1.278-2.281 2.678-3.053 4.21-.759 1.531-1.784 2.803-3.059 3.815-8.41 5.866-17.147 10.519-26.194 13.96-9.05 3.437-18.925 5.162-29.622 5.162-4.341 0-8.744-.572-13.209-1.725-4.454-1.144-8.847-2.603-13.175-4.387-1.529-.772-2.813-1.21-3.838-1.347-1.019-.119-2.419-.697-4.203-1.719-1.784-1.269-3.697-2.603-5.738-4.009-2.04-1.394-3.95-2.738-5.731-4.016l-.381-.762-.384-.388c-3.572-2.037-7.207-3.887-10.9-5.544"/><path d="m906.827 84.724c.675-1.188 1.615-1.781 2.8-1.781 1.015 0 2.044.375 3.056 1.14 1.028.766 2.01 1.75 2.938 2.931.928 1.194 1.746 2.475 2.431 3.835.672 1.362 1.097 2.54 1.269 3.569 1.531 4.243 2.428 8.921 2.671 14.021.257 5.1.388 9.86.388 14.282v7.39c0 12.41-.216 22.019-.631 28.816-.432 6.797-.897 11.903-1.413 15.294 0 .859-.469 1.75-1.4 2.681-.94.931-1.997 1.872-3.184 2.803-1.188.938-2.385 1.781-3.566 2.547-1.2.766-2.131 1.406-2.815 1.916-.169.175-.629.34-1.4.509-.76.169-1.525.347-2.288.506-.769.178-1.494.391-2.175.644-.684.253-1.022.55-1.022.891-.337 0-.672-.169-1.015-.513-.338-.341-.685-.503-1.013-.503-.353 0-.897.212-1.669.628-.753.431-1.484.641-2.168.641-1.016 0-1.994-.844-2.925-2.553-.941-1.694-1.704-3.863-2.288-6.5-.603-2.632-1.072-5.644-1.412-9.047-.344-3.4-.516-6.803-.516-10.2 0-2.716.216-5.36.641-7.907.428-2.546.64-5.096.64-7.65 0-.34-.081-.593-.25-.768 0-3.391.081-6.5.25-9.3.166-2.81.256-5.91.256-9.316 0-6.625.26-11.675.766-15.166.513-3.478 1.4-6.328 2.678-8.543 1.275-2.203 2.925-4.332 4.969-6.372 2.041-2.041 4.503-5.013 7.397-8.925"/><path d="m1050.39 220.121c2.028.853 3.471 2.256 4.328 4.209.84 1.953.84 3.86 0 5.735 0 .165-.428 1.272-1.282 3.306-.85 2.05-2.003 4.678-3.443 7.909-1.444 3.235-3.185 6.885-5.225 10.963-2.029 4.084-4.16 8.253-6.369 12.5-6.625 12.409-12.75 21.415-18.363 27.031-5.609 5.609-11.047 8.231-16.318 7.9-.682 0-1.532-.172-2.554-.509-4.428-1.016-7.984-3.575-10.709-7.653-2.041-2.2-3.428-4.672-4.212-7.394-.744-2.716-1.225-5.606-1.404-8.666 0-5.44.932-11.134 2.816-17.084.853-2.719 1.572-5.394 2.172-8.031.587-2.635 1.225-5.31 1.909-8.029.335-.859.672-1.746 1.019-2.687.338-.931.672-1.822 1.022-2.669 1.019-2.894 2.084-5.697 3.184-8.422 1.1-2.715 2.163-5.515 3.185-8.409.334-1.531.087-3.478-.753-5.866-1.029 1.363-2.054 2.638-3.072 3.825-1.013 1.188-1.953 2.469-2.8 3.822-2.382 3.741-4.678 7.997-6.878 12.75-1.032 2.044-2.004 4.163-2.944 6.375-.938 2.21-1.91 4.335-2.928 6.375-.853 1.872-1.694 3.738-2.55 5.606-.86 1.875-1.703 3.741-2.553 5.61-1.019 2.387-2.041 4.719-3.05 7.015-1.022 2.294-2.129 4.632-3.319 7.016-.516 1.019-1.144 1.909-1.916 2.669-.762.772-1.312 1.665-1.659 2.681-1.013 2.381-2.122 4.713-3.31 7.013-1.187 2.296-2.643 4.462-4.34 6.5-1.36 1.531-2.713 3.021-4.081 4.462-1.357 1.444-2.716 2.934-4.069 4.459-.863 1.194-1.703 2.382-2.56 3.575-.84 1.188-1.7 2.379-2.553 3.566-.843.856-1.443 1.284-1.784 1.284-2.2.507-4.372.841-6.503 1.01-2.119.169-4.203-.341-6.238-1.528-1.187-.675-2.381-1.191-3.572-1.532-1.181-.337-2.293-.846-3.309-1.531-1.356-.847-2.681-1.822-3.966-2.928-1.271-1.109-2.325-2.344-3.175-3.697-1.021-1.365-1.75-2.931-2.165-4.719-.428-1.781-.897-3.521-1.413-5.225-.334-.515-.631-1.021-.887-1.525-.256-.515-.641-1.193-1.153-2.046 0-.166.097-.341.256-.504.169-.168.256-.428.256-.768-.512-2.21-.387-4.294.385-6.247.768-1.95 1.403-3.869 1.915-5.738.51-1.531 1.11-3.015 1.785-4.462.684-1.444 1.356-2.838 2.037-4.206.503-1.019.763-2.125.763-3.313 0-3.062.509-5.994 1.54-8.797 1.01-2.806 1.953-5.653 2.794-8.54 1.362-4.422 2.803-8.757 4.337-13 1.535-4.26 3.06-8.588 4.588-13.016.847-2.372 1.703-4.716 2.553-7.009.844-2.297 1.703-4.629 2.544-7.01.172-.169.644-.469 1.415-.89.754-.429 1.657-.891 2.669-1.407 1.016-.512 2.038-1.015 3.06-1.531 1.021-.509 1.862-.928 2.546-1.275.85-.503 1.916-.716 3.188-.634 1.284.087 2.509.3 3.697.634 1.872.347 3.656.722 5.356 1.147 1.697.428 3.488.806 5.353 1.147 3.397.681 6.085 2.515 8.038 5.481 1.953 2.978 2.5 6.084 1.656 9.313-.513 1.362-1.197 2.759-2.041 4.209-.846 1.437-1.621 2.844-2.297 4.2-1.015 2.381-2.084 4.844-3.184 7.4-1.109 2.547-2.172 5.1-3.184 7.65-.853 1.872-1.625 3.653-2.3 5.35-.672 1.706-1.366 3.484-2.041 5.356-.503 1.019-.6 2.638-.256 4.844.337-.678.728-1.231 1.144-1.653.428-.428.809-.978 1.153-1.66 1.528-2.378 3.015-4.715 4.465-7.012 1.435-2.294 2.928-4.631 4.463-7.009 2.881-4.247 5.775-8.16 8.665-11.732.341-.509.554-1.022.638-1.534.084-.509.291-.928.641-1.275.337-.331.718-.634 1.146-.884.413-.263.716-.472.885-.641.515-.853.931-1.531 1.287-2.041.325-.509.672-1.022 1.01-1.534 3.072-3.566 6.284-7.044 9.7-10.45 1.181-1.363 2.325-2.631 3.434-3.831 1.106-1.182 2.341-2.119 3.7-2.8 2.384-.85 4.753-1.694 7.141-2.544 2.375-.853 4.84-1.028 7.39-.516 2.388.344 4.116 1.491 5.232 3.444 1.1 1.953 1.228 4.206.381 6.756-.344 1.532-.816 3.103-1.4 4.725-.597 1.61-1.078 3.182-1.409 4.707-.341 1.193-.676 2.343-1.013 3.443-.347 1.11-.684 2.166-1.019 3.188-.853 2.897-1.697 5.7-2.556 8.419-.85 2.718-1.781 5.525-2.806 8.409-.672 1.878-1.356 3.787-2.041 5.741-.675 1.953-1.356 3.865-2.034 5.734 0 .344-.041.634-.128.897-.088.25-.125.553-.125.89-.685 2.21-1.369 4.719-2.05 7.522-.675 2.803-1.178 5.653-1.535 8.538-.328 2.903-.459 5.572-.372 8.034.088 2.466.56 4.46 1.4 5.991.507.684.932 1.022 1.282 1.022 1.693-.51 3.943-2.463 6.759-5.866 2.806-3.394 5.822-7.859 9.047-13.384 3.228-5.519 6.541-11.772 9.937-18.744 3.4-6.966 6.629-14.194 9.697-21.669.844-1.872 2.3-3.228 4.338-4.081 2.031-.853 3.984-.853 5.869 0"/><path d="m1376.49 179.063c.684.515 1.316 1.068 1.916 1.659.597.603 1.225 1.147 1.912 1.662 1.869 1.529 3.438 2.25 4.719 2.163 1.266-.078 2.678-.891 4.203-2.422 1.356-1.353 2.713-2.591 4.081-3.697 1.357-1.1 2.635-2.328 3.825-3.7 1.357-1.353 2.588-2.756 3.688-4.2 1.112-1.444 2.184-3.019 3.197-4.715 1.184-1.872 2.172-3.744 2.928-5.616.769-1.866 1.825-3.734 3.194-5.609 1.346-2.382.928-4.163-1.282-5.357-2.712-1.356-5.472-2.506-8.281-3.44-2.809-.925-5.822-1.488-9.053-1.653-1.869-.169-3.953.465-6.253 1.912-2.3 1.441-4.422 3.181-6.369 5.228-1.956 2.038-3.578 4.163-4.837 6.372-1.288 2.213-1.757 3.913-1.413 5.103.169.506.381 1.438.641 2.803.256 1.36.559 2.85.887 4.457.344 1.621.681 3.234 1.028 4.846.338 1.616.497 2.935.497 3.954.178 0 .435.087.772.25"/><path d="m1255.12 189.521c0-.172.084-.422.256-.759.338-.85.641-1.747.897-2.685.247-.928.547-1.822.884-2.675l2.303-7.647.257-1.534c.503-1.866 1.022-3.694 1.525-5.481.503-1.788 1.187-3.61 2.028-5.478.515-1.022.944-2.129 1.29-3.322.338-1.182.682-2.375 1.022-3.566.163-1.359.588-2.975 1.275-4.844 1.01-2.712 2.072-5.356 3.182-7.909 1.1-2.544 2.256-5.181 3.443-7.9.685-2.034 1.616-4.169 2.797-6.375.522-1.016 1.028-2.078 1.531-3.181.519-1.113 1.022-2.257 1.538-3.444.337-.344.516-.766.516-1.281 0-.507.078-1.016.25-1.532.165-.34.256-.671.256-1.018 0-.338.075-.675.247-1.019 1.531-3.913 4.247-7.053 8.162-9.431.175 0 .303-.044.391-.125.081-.091.287-.132.631-.132-.344.675-.172 1.194.513 1.532 1.021.853 1.44 1.784 1.268 2.8-.168 1.022-.503 2.209-1.022 3.568-.165.344-.246.597-.246.766 0 .178-.091.434-.257.766-1.028 3.059-2.3 5.784-3.825 8.165-.343.678-.647 1.313-.897 1.91-.246.593-.55 1.318-.893 2.165-.341.857-.722 1.66-1.138 2.425-.431.763-.815 1.572-1.156 2.425-.672 1.363-1.316 2.719-1.903 4.075-.594 1.363-1.241 2.722-1.916 4.082-.684 1.359-1.369 2.762-2.05 4.203-.672 1.45-1.431 2.85-2.287 4.215-1.36 2.888-2.807 5.775-4.341 8.66-.853 1.878-1.697 3.659-2.537 5.356-.86 1.703-1.704 3.484-2.554 5.359-.862 1.872-1.759 3.741-2.69 5.607-.925 1.871-1.816 3.737-2.656 5.609-.685 1.531-1.369 2.978-2.057 4.331-.681 1.366-1.443 2.722-2.284 4.078.166-.328.247-.59.247-.759m224.64-32.128c.166-1.869.332-3.735.513-5.61.334-4.078.887-8.109 1.659-12.109.766-3.994 1.569-7.944 2.413-11.856.681-2.378 1.412-4.719 2.172-7.016.765-2.294 1.481-4.625 2.165-7.003.675-1.872 1.235-3.744 1.66-5.616.425-1.871.9-3.737 1.4-5.606.34-.85.64-1.794.9-2.809.256-1.019.54-1.95.884-2.8.338-.178.675-.256 1.022-.256.337 0 .675-.085 1.019-.26 2.725-.506 3.912.516 3.568 3.063-.503 2.718-.971 5.353-1.4 7.909-.428 2.544-.887 5.181-1.396 7.9-1.029 5.947-2.51 11.813-4.469 17.594-1.953 5.775-4.128 11.559-6.497 17.334-.859 2.044-1.747 4.125-2.675 6.247-.944 2.128-1.828 4.297-2.681 6.5h-.766c.169-1.872.338-3.731.509-5.606m79.041 0c.172-1.869.344-3.735.516-5.61.337-4.078.884-8.109 1.656-12.109.766-3.994 1.569-7.944 2.422-11.856.675-2.378 1.403-4.719 2.175-7.016.753-2.294 1.469-4.625 2.153-7.003.687-1.872 1.244-3.744 1.669-5.616.418-1.871.89-3.737 1.403-5.606.328-.85.628-1.794.887-2.809.257-1.019.553-1.95.897-2.8.325-.178.672-.256 1.01-.256.346 0 .675-.085 1.018-.26 2.713-.506 3.913.516 3.569 3.063-.503 2.718-.969 5.353-1.387 7.909-.429 2.544-.9 5.181-1.41 7.9-1.019 5.947-2.509 11.813-4.456 17.594-1.956 5.775-4.128 11.559-6.506 17.334-.85 2.044-1.747 4.125-2.678 6.247-.941 2.128-1.841 4.297-2.682 6.5h-.759c.162-1.872.334-3.731.503-5.606m41.306 66.809c-1.018-1.872-2.543-3.228-4.584-4.081-2.044-.678-3.997-.553-5.866.378-1.872.941-3.228 2.422-4.084 4.466 0 .172-.469 1.365-1.4 3.565-.928 2.216-2.163 5.063-3.688 8.547-1.537 3.485-3.237 7.438-5.112 11.86-1.863 4.418-3.822 8.915-5.853 13.509l-15.819 36.719c-.853 1.697-1.65 3.353-2.422 4.968-.762 1.619-1.572 3.279-2.415 4.975-1.7 3.397-3.41 6.757-5.1 10.072-1.707 3.313-3.485 6.666-5.363 10.075-.172.166-.928.847-2.284 2.035 0-1.188.037-2.128.125-2.8.075-.685.125-1.45.125-2.3-.182-2.041-.297-4.075-.382-6.119-.093-2.041-.128-4.078-.128-6.122.172-1.866.328-3.656.51-5.353.175-1.697.422-3.484.772-5.353.159-1.188.371-2.256.628-3.185.247-.937.462-2.006.634-3.19.341-1.528.469-3.103.394-4.716-.097-1.609.034-3.269.375-4.969.681-2.89 1.287-5.696 1.784-8.421.503-2.716 1.285-5.522 2.297-8.413 1.356-4.416 2.544-8.797 3.575-13.131 1.009-4.335 1.941-8.703 2.794-13.131.512-2.382.859-4.804 1.028-7.266.169-2.463.328-4.881.512-7.259.16-1.372.16-2.766 0-4.216-.184-1.438-.084-2.838.244-4.209.344-2.035.903-4.113 1.669-6.247.759-2.125 1.559-4.119 2.419-5.988 1.356-2.547 2.681-5.106 3.95-7.653 1.275-2.55 2.6-5.094 3.953-7.644.331-.509.515-1.193.515-2.043 0-.847.16-1.444.5-1.782 1.019-.853 1.704-1.828 2.047-2.937.338-1.1.753-2.25 1.269-3.438.341-.678 1.022-2 2.041-3.956 1.025-1.95 2.04-3.781 3.068-5.484.329-.847.757-1.569 1.269-2.166.503-.591.931-1.312 1.269-2.166.85-2.043 1.703-4.115 2.547-6.243.853-2.122 1.712-4.213 2.565-6.247.835-1.535 1.691-3.016 2.547-4.469.841-1.437 1.613-2.928 2.297-4.459 1.356-3.397 2.713-6.882 4.072-10.45 1.366-3.578 2.725-7.141 4.078-10.713.856-2.375 1.56-4.762 2.16-7.14.6-2.375 1.153-4.844 1.668-7.394.672-3.566 1.313-7.181 1.913-10.838.587-3.656 1.056-7.35 1.403-11.087.169-2.381.256-4.803.256-7.272 0-2.459-.175-4.888-.512-7.269-.172-1.359-.56-2.628-1.147-3.815-.6-1.194-1.656-2.135-3.194-2.816-1.862-.841-3.644-1.697-5.347-2.541-1.706-.856-3.734-.937-6.122-.259-2.04.509-4.168.812-6.381.891-2.197.087-4.328.465-6.369 1.15-3.059 1.018-6.078 2.168-9.04 3.437-2.991 1.281-5.919 2.594-8.807 3.953-.34 1.366-1.025 2.641-2.04 3.828-1.025 1.194-1.628 2.466-1.788 3.825-.337 2.378-.931 4.507-1.772 6.375-1.378 2.719-2.809 5.397-4.34 8.032-1.535 2.637-2.894 5.318-4.078 8.031-2.725 6.803-5.328 13.6-7.785 20.4-2.465 6.8-4.884 13.603-7.265 20.394-.85 2.725-1.582 5.481-2.172 8.293-.585 2.803-1.313 5.566-2.169 8.285-1.016 3.234-2.084 6.418-3.181 9.559-1.113 3.15-2.085 6.338-2.928 9.566-1.369 5.1-2.6 10.237-3.697 15.422-1.113 5.19-2.344 10.412-3.7 15.684-.341.847-.556 1.784-.641 2.8-.087 1.025-.303 1.959-.628 2.809-.516 2.382-1.031 4.678-1.531 6.882-.51 2.212-1.113 4.509-1.794 6.884-.306 1.225-.578 2.412-.872 3.622-.047.115-.094.219-.147.334-1.525 3.485-3.228 7.438-5.1 11.86-1.875 4.418-3.822 8.915-5.862 13.509l-15.81 36.719c-.853 1.697-1.65 3.353-2.421 4.968-.763 1.619-1.572 3.279-2.416 4.975-1.7 3.397-3.409 6.757-5.109 10.072-1.697 3.313-3.488 6.666-5.354 10.075-.171.166-.937.847-2.284 2.035 0-1.188.028-2.128.113-2.8.096-.685.137-1.45.137-2.3-.172-2.041-.297-4.075-.381-6.119-.081-2.041-.138-4.078-.138-6.122.182-1.866.347-3.656.519-5.353.166-1.697.413-3.484.759-5.353.172-1.188.385-2.256.632-3.185.265-.937.472-2.006.643-3.19.341-1.528.466-3.103.385-4.716-.088-1.609.044-3.269.384-4.969.672-2.89 1.275-5.696 1.785-8.421.512-2.716 1.271-5.522 2.296-8.413 1.357-4.416 2.544-8.797 3.572-13.131 1.013-4.335 1.944-8.703 2.797-13.131.513-2.382.86-4.804 1.016-7.266.172-2.463.34-4.881.519-7.259.165-1.372.165-2.766 0-4.216-.179-1.438-.091-2.838.25-4.209.343-2.035.903-4.113 1.656-6.247.772-2.125 1.572-4.119 2.431-5.988 1.356-2.547 2.672-5.106 3.938-7.653 1.287-2.55 2.6-5.094 3.959-7.644.337-.509.512-1.193.512-2.043 0-.847.169-1.444.51-1.782 1.028-.853 1.703-1.828 2.047-2.937.325-1.1.753-2.25 1.268-3.438.341-.678 1.022-2 2.041-3.956 1.019-1.95 2.041-3.781 3.059-5.484.338-.847.766-1.569 1.269-2.166.513-.591.941-1.312 1.278-2.166.863-2.043 1.703-4.115 2.56-6.243.84-2.122 1.69-4.213 2.54-6.247.844-1.535 1.703-3.016 2.56-4.469.85-1.437 1.6-2.928 2.284-4.459 1.369-3.397 2.713-6.882 4.084-10.45 1.354-3.578 2.713-7.141 4.079-10.713.843-2.375 1.571-4.762 2.168-7.14.591-2.375 1.144-4.844 1.66-7.394.684-3.566 1.312-7.181 1.912-10.838.588-3.656 1.056-7.35 1.403-11.087.169-2.381.257-4.803.257-7.272 0-2.459-.175-4.888-.513-7.269-.172-1.359-.559-2.628-1.147-3.815-.6-1.194-1.656-2.135-3.194-2.816-1.871-.841-3.656-1.697-5.346-2.541-1.707-.856-3.747-.937-6.122-.259-2.041.509-4.169.812-6.382.891-2.2.087-4.34.465-6.368 1.15-3.06 1.018-6.078 2.168-9.05 3.437-2.985 1.281-5.91 2.594-8.797 3.953-.341 1.366-1.025 2.641-2.041 3.828-1.015 1.194-1.615 2.466-1.787 3.825-.338 2.378-.938 4.507-1.782 6.375-1.359 2.719-2.812 5.397-4.34 8.032-1.525 2.637-2.894 5.318-4.069 8.031-2.725 6.803-5.325 13.6-7.784 20.4-2.466 6.8-4.894 13.603-7.266 20.394-.853 2.725-1.569 5.481-2.172 8.293-.597 2.803-1.312 5.566-2.165 8.285-1.019 3.234-2.075 6.418-3.185 9.559-1.112 3.15-2.084 6.338-2.928 9.566-1.369 5.1-2.6 10.237-3.697 15.422-1.112 5.19-2.353 10.412-3.712 15.684-.328.847-.541 1.784-.628 2.8-.088 1.025-.304 1.959-.641 2.809-.513 2.372-1.013 4.66-1.525 6.857-4.666 9.368-9.303 17.993-13.894 25.778-5.015 8.503-9.569 15.85-13.65 22.059-4.075 6.203-7.387 11.091-9.94 14.663-2.557 3.568-3.825 5.521-3.825 5.859-.516.678-1.019 1.275-1.529 1.787-.512.513-1.015 1.022-1.531 1.532-.684.85-1.45 1.656-2.3 2.415-.85.766-2.037.988-3.565.641.515-1.188 1.028-2.291 1.528-3.309.512-1.019.928-2.044 1.284-3.066.672-1.863 1.144-3.697 1.4-5.478.247-1.788.8-3.61 1.653-5.488.847-2.372 1.86-4.584 3.06-6.625 1.187-2.04 2.196-4.247 3.059-6.628.853-2.209 1.662-4.381 2.422-6.5.759-2.128 1.572-4.381 2.425-6.762.162-.678.5-2.125 1.019-4.335.515-2.203 1.012-4.678 1.525-7.397.515-2.712 1.109-5.306 1.784-7.775.672-2.456 1.456-4.371 2.297-5.728.347-.684.547-1.406.644-2.172.084-.768.296-1.49.634-2.168.681-1.869 1.366-3.703 2.037-5.485.685-1.781 1.282-3.609 1.785-5.481.856-2.719 1.187-5.009 1.022-6.884-.166-1.863-1.235-3.697-3.182-5.482-1.953-1.784-3.878-2.762-5.734-2.931-2.387-.337-4.809-.64-7.272-.894-2.469-.256-4.884-.553-7.265-.89-1.372 0-2.382.087-3.066.253-.847.344-1.959.806-3.316 1.4-1.359.6-2.684 1.278-3.953 2.044-1.272.765-2.419 1.525-3.44 2.29-1.019.766-1.613 1.407-1.785 1.913l-.256.509c-1.359 3.575-2.675 7.1-3.956 10.588-1.26 3.487-2.588 6.925-3.957 10.325-1.684 4.422-3.343 8.84-4.956 13.259-1.615 4.422-3.197 8.844-4.722 13.259-.547 1.513-.987 3.072-1.387 4.657-1.128 2.022-2.272 4.043-3.46 6.053-2.725 4.587-5.437 8.915-8.162 13.006-6.294 9.688-12.997 19.288-20.141 28.809-2.215 2.379-4.415 4.629-6.625 6.754-2.218 2.125-4.25 4.037-6.131 5.734-1.012.856-2.122 1.659-3.309 2.425-1.188.766-2.457 1.572-3.816 2.425-1.028.678-1.709 1.187-2.05 1.525-.166-.503-.247-1.103-.247-1.778-.172-1.366-.303-2.553-.387-3.572-.082-1.025-.213-2.041-.385-3.059-.168-.685 0-1.75.503-3.185.516-1.45 1.069-3.019 1.669-4.722.597-1.7 1.272-3.312 2.044-4.843.753-1.532 1.312-2.719 1.65-3.572.516-.847.806-1.397.891-1.66.081-.25.128-.462.128-.634.337-2.038.672-3.653 1.022-4.847.165-.841.29-1.778.378-2.8.084-1.019.3-1.95.637-2.809 0-.163.216-1.019.644-2.55.425-1.525.928-3.222 1.531-5.094.597-1.872 1.185-3.781 1.785-5.741.593-1.953 1.056-3.437 1.4-4.459l.25-1.281h-.25c.328-1.188.856-2.8 1.528-4.841.681-2.041 1.197-3.228 1.537-3.566.16-.343.331-.931.503-1.784.178-.856.594-2.556 1.278-5.106.675-2.375 1.36-4.797 2.032-7.263.684-2.468 1.197-4.125 1.534-4.972.166-.678.338-1.278.506-1.784.175-.509.432-1.106.772-1.791l.772-1.525v-.509c.159-4.419 1.525-9.012 4.072-13.772.337-.85.931-3.059 1.781-6.628.341-1.022.688-2.203 1.025-3.566.335-1.359.678-2.387 1.016-3.065l.515-1.275c.16-1.7.672-3.653 1.529-5.866.515-1.697.971-3.434 1.4-5.219.415-1.793.29-3.618-.382-5.49-.347-.847-1.018-1.4-2.034-1.65-1.028-.263-2.297-.553-3.828-.897-.856 0-1.953-.172-3.322-.509-.841-.166-1.647-.291-2.419-.382-.765-.084-1.581-.128-2.422-.128-5.44 0-9.6 1.525-12.493 4.594-.344.506-1.066 1.441-2.172 2.8-1.097 1.362-2.338 2.894-3.685 4.591-1.028 1.359-2.012 2.637-2.94 3.821-.925 1.188-1.572 1.96-1.91 2.3-.856.847-1.659 1.704-2.422 2.544-.765.856-1.581 1.703-2.421 2.553-1.2 1.36-2.341 2.641-3.444 3.822-1.11 1.194-2.25 2.466-3.441 3.825-2.894 3.569-5.606 7.053-8.165 10.456-.85 1.191-1.697 2.294-2.541 3.316-.853 1.016-1.709 2.131-2.556 3.313-.853 1.193-1.741 2.296-2.672 3.312-.953 1.025-1.828 2.131-2.678 3.325l-8.413 10.703c-1.365 2.041-2.812 4.125-4.337 6.247-1.528 2.128-2.982 4.297-4.341 6.5l-2.037 3.066c-.347.672-.675 1.265-1.022 1.781-.338.509-.682 1.112-1.013 1.787-.512.682-1.109 1.7-1.781 3.057-1.028 1.531-2.053 3.059-3.063 4.59-1.021 1.525-2.05 2.975-3.065 4.335-.51.847-.981 1.578-1.397 2.165-.431.6-.897 1.319-1.409 2.172.165-.853.425-1.959.765-3.315v-1.532-.768c1.197-1.188 1.96-2.504 2.297-3.947.331-1.444.588-2.847.759-4.21.172-.331.257-.675.257-1.015 0-.341.09-.688.259-1.025.672-3.575 1.684-7.141 3.066-10.713l.759-2.034c.338-1.019.641-2 .897-2.935.256-.937.547-1.828.884-2.675 1.032-3.228 2.088-6.415 3.188-9.565 1.097-3.138 2.428-6.25 3.965-9.306.332-.504.629-1.057.875-1.657.26-.593.56-1.234.9-1.912.682-1.188 1.313-2.381 1.913-3.569.597-1.184 1.225-2.378 1.909-3.566.857-1.359 1.703-2.812 2.557-4.34.843-1.531 1.693-3.056 2.543-4.588.338-.681.719-1.353 1.144-2.043.428-.682.809-1.441 1.153-2.291.516-.675 1.113-1.703 1.788-3.069.672-1.015 1.312-2.034 1.912-3.05.597-1.022 1.144-2.044 1.641-3.059.684-1.356 1.331-2.588 1.928-3.703.597-1.103 1.231-2.244 1.916-3.438.509-1.187 1.012-2.337 1.525-3.447.515-1.1 1.103-2.25 1.784-3.437l3.059-5.356c.844-1.525 1.663-3.054 2.422-4.588.763-1.531 1.572-3.15 2.425-4.844.675-1.365 1.275-2.634 1.785-3.825.503-1.19 1.015-2.462 1.531-3.828.503-1.187.975-2.334 1.403-3.44.412-1.107.887-2.254 1.394-3.447 1.018-2.035 2.215-4.247 3.584-6.625.503-1.019 1.003-2 1.528-2.932.503-.937 1.006-1.912 1.525-2.931 1.522-3.231 2.931-6.247 4.203-9.053 1.269-2.803 2.51-5.653 3.697-8.544 1.36-2.89 2.594-5.947 3.7-9.181 1.11-3.225 2.081-6.537 2.938-9.941l.247-1.534c.328-1.356.628-2.669.896-3.95.247-1.275.632-2.587 1.147-3.95.338-1.019.422-2.084.25-3.184-.172-1.11-.597-2.085-1.272-2.938-1.196-1.019-2.378-1.437-3.578-1.272-.847 0-1.768-.512-2.803-1.531-.337-.337-.512-.591-.512-.766-4.925-5.106-9.85-5.609-14.778-1.525-1.525 1.36-3.107 2.504-4.713 3.441-1.622.934-3.362 1.825-5.225 2.675-.356 0-.6.088-.781.253-.841.172-1.56.381-2.156.641-.604.256-1.072.725-1.41 1.4-.172.344-.419.853-.765 1.525-.338.684-.766 1.625-1.269 2.812-.685 1.191-1.4 2.635-2.169 4.332-.756 1.696-1.572 3.362-2.425 4.975-.844 1.615-1.625 3.056-2.287 4.331-.685 1.278-1.2 2.169-1.538 2.675-.175.175-.334.262-.503.262-.181.163-.359.253-.513.253l-.771.766c-.344.338-.76.675-1.272 1.016-.516.343-.772.847-.772 1.528.175.853.044 1.581-.372 2.169-.428.6-.809 1.321-1.153 2.171-.338.679-.675 1.272-1.013 1.782-.347.509-.684 1.193-1.018 2.04-.685 2.382-1.529 4.716-2.557 7.013-1.022 2.297-2.209 4.55-3.565 6.762l-.772 1.782c-1.356 2.718-2.756 5.521-4.197 8.409-1.456 2.897-2.769 5.866-3.956 8.925-.853 2.387-1.785 4.684-2.8 6.884-1.022 2.21-1.953 4.503-2.81 6.888-1.028 2.381-2 4.762-2.931 7.14-.937 2.382-1.912 4.757-2.941 7.135-1.356 3.747-2.712 7.444-4.068 11.097-1.369 3.65-2.638 7.181-3.838 10.578-.84 2.381-1.656 4.759-2.409 7.14-.775 2.388-1.572 4.763-2.435 7.141-.325 1.534-.753 3.022-1.268 4.459-.513 1.45-1.016 2.935-1.525 4.466-.347.681-.603 1.363-.772 2.034-.16.685-.425 1.45-.763 2.297-.337 1.028-.715 2.082-1.143 3.188-.422 1.109-.81 2.256-1.154 3.447-1.865 6.287-3.478 12.409-4.837 18.359 0 .338-.088.634-.256.891-.172.253-.344.55-.516.89-.344.682-.672 1.494-1.016 2.419-.075.213-.034.472-.059.703-.825 1.591-1.656 3.153-2.491 4.66-3.746 6.715-7.515 12.662-11.337 17.846-3.828 5.182-7.444 9.641-10.841 13.385-6.125 5.612-12.334 10.456-18.615 14.534-4.428 2.888-8.925 5.438-13.522 7.653-4.585 2.2-9.35 3.991-14.266 5.353-1.365.332-2.306.332-2.812 0-.513-.34-.766-1.275-.766-2.809-.344-5.1-.344-10.281 0-15.553.169-1.869.472-3.65.897-5.347.419-1.706.8-3.491 1.144-5.356.684-3.066 1.012-6.125 1.012-9.188 0-3.059.525-6.115 1.528-9.172.357-.853.516-1.828.516-2.937 0-1.106.166-2.169.512-3.191.854-2.884 1.704-5.684 2.544-8.409.856-2.722 1.706-5.522 2.556-8.416.51-1.872 1.025-3.697 1.529-5.484.512-1.781 1.021-3.606 1.534-5.484l3.062-10.704c.85-2.378 1.525-4.806 2.029-7.268.512-2.463 1.2-4.882 2.05-7.263 1.187-3.403 2.331-6.678 3.443-9.819 1.097-3.146 2.244-6.415 3.441-9.818.844-2.547 1.653-5.06 2.416-7.516.768-2.469 1.581-4.981 2.421-7.528.685-1.875 1.36-3.65 2.041-5.347.678-1.703 1.444-3.491 2.3-5.359.331-1.357.716-2.638 1.141-3.832.428-1.181.984-2.459 1.659-3.821 1.356-2.891 2.756-5.735 4.213-8.538 1.44-2.812 2.937-5.569 4.465-8.287 3.556-6.629 7.981-12.582 13.253-17.85.853-.85 1.828-1.657 2.938-2.422 1.1-.766 2.244-1.491 3.444-2.169 1.009-.509 1.94-.55 2.8-.128.843.428 1.181 1.062 1.025 1.909-.182 1.025-.341 2.081-.519 3.191-.178 1.106-.425 2.165-.766 3.187-.344 1.022-.344 2.341 0 3.947.341 1.622.856 3.194 1.531 4.719.682 1.531 1.4 3.028 2.169 4.472.766 1.437 1.485 2.503 2.166 3.181.675.681 1.403 1.366 2.175 2.038.756.687 1.728.515 2.928-.51 2.197 2.728 4.419 3.494 6.634 2.3 4.244-2.381 6.628-5.784 7.125-10.2.347-2.89.603-5.822.775-8.8.166-2.969.338-5.903.513-8.794 0-5.775-.941-11.053-2.813-15.812-1.356-3.397-3.228-6.122-5.6-8.159-2.393-2.041-5.197-3.485-8.418-4.332-2.216-.509-4.429-.725-6.638-.64-2.206.093-4.416.218-6.625.384-1.187 0-2.331.172-3.444.513-1.097.337-2.159.425-3.184.253-.684 0-2.331.593-4.969 1.781-2.644 1.194-5.444 2.644-8.415 4.341-2.979 1.696-5.788 3.4-8.422 5.093-2.638 1.707-4.197 2.894-4.722 3.566-.328.347-.585.766-.76 1.281-.171.51-.415.938-.765 1.278l-11.469 13.007c-.516.675-1.056 1.312-1.659 1.906-.597.597-1.225 1.234-1.907 1.915-.346.504-.684 1.063-1.031 1.654-.34.603-.756 1.143-1.269 1.659-.843 1.194-1.703 2.297-2.543 3.312-.857 1.022-1.713 2.044-2.557 3.063-.168.175-.293.337-.384.506-.087.172-.212.344-.381.51-.516.343-1.2.94-2.041 1.784-.337.347-.55.684-.634 1.025-.085.337-.297.675-.641 1.016-.844 1.025-1.572 2.003-2.156 2.937-.603.931-1.241 1.822-1.925 2.678-.506.669-.975 1.4-1.403 2.166-.425.765-.885 1.49-1.4 2.159-.853 1.194-1.785 2.256-2.797 3.191-1.028.937-1.959 2.09-2.809 3.447-1.875 2.553-3.747 5.44-5.61 8.668-.347.854-.987 2.125-1.919 3.822-.925 1.703-1.828 3.532-2.668 5.478-.86 1.96-1.657 3.707-2.428 5.238-.769 1.525-1.225 2.381-1.404 2.547-.681 1.531-1.481 2.931-2.409 4.206-.953 1.275-1.828 2.594-2.684 3.95-.344.516-.641 1.063-.897 1.656-.256.6-.556 1.15-.888 1.66-.353 1.025-.725 1.997-1.153 2.934-.428.934-.884 2.084-1.4 3.444 0 .165-.347.765-1.015 1.787-.344.503-.644 1.016-.9 1.519-.247.516-.541 1.025-.888 1.531-1.366 2.382-2.253 4.891-2.681 7.528-.416 2.635-1.397 5.141-2.928 7.516.843 1.881.759 3.409-.257 4.597-1.028 1.184-1.781 2.469-2.296 3.825-.675 1.525-1.275 3.059-1.785 4.591-.503 1.518-1.1 3.05-1.784 4.587-.331.844-.681 1.575-1.019 2.166-.341.6-.594 1.237-.769 1.906-.328 1.703-.675 3.369-1.012 4.981-.344 1.616-.685 3.185-1.028 4.716-.675 2.381-1.347 4.675-2.044 6.884-.669 2.206-1.356 4.503-2.041 6.885-.325.853-.54 1.693-.628 2.55-.087.846-.3 1.703-.628 2.55-.347 1.525-.731 3.1-1.153 4.715-.428 1.613-.978 3.185-1.663 4.719-.84 2.041-.971 4.031-.381 5.991.588 1.953.641 3.95.125 5.996 0 .163.091.288.256.372.172.094.26.3.26.641.672 1.356 1.356 2.678 2.04 3.953.675 1.278 1.1 2.584 1.269 3.953.86 7.819 2.972 14.96 6.381 21.419 2.375 4.594 5.313 8.494 8.791 11.731 3.484 3.225 7.688 5.775 12.622 7.641 3.394 1.194 6.719 1.828 9.947 1.922 3.225.081 6.537-.132 9.947-.641 3.215-.684 6.403-1.237 9.562-1.65 3.138-.428 6.156-1.584 9.047-3.456.172-.166.338-.25.509-.25.166 0 .332-.088.513-.253 2.031-.853 4.072-1.657 6.112-2.422 2.041-.769 4.085-1.572 6.125-2.422 1.363-.684 2.719-1.403 4.075-2.169 1.369-.762 2.725-1.572 4.082-2.422 1.872-1.015 3.612-2.084 5.225-3.187 1.615-1.106 3.356-2.256 5.228-3.444 1.369-1.022 2.769-2.041 4.206-3.056 1.447-1.019 2.847-2.131 4.213-3.319.168-.166.671-.634 1.528-1.4.847-.766 1.703-1.581 2.543-2.422.857-.856 1.713-1.703 2.557-2.553.853-.847 1.443-1.45 1.784-1.787 0-.166.428-.847 1.278-2.035.85-1.194 1.738-2.425 2.666-3.7.94-1.269 2.265-3.022 3.962-5.222.297-.303.763-.956 1.363-1.878.153 1.356.334 2.788.553 4.3.428 2.966 1.397 5.31 2.928 7.01 1.697 2.04 3.781 3.353 6.238 3.956 2.478.59 4.853.797 7.14.628 2.3-.163 4.385-.55 6.253-1.144 1.869-.594 3.066-1.062 3.569-1.4.338-.175 1.316-1.194 2.925-3.062 1.619-1.866 3.4-3.95 5.359-6.25 1.954-2.288 3.707-4.46 5.238-6.503 1.525-2.035 2.369-3.222 2.537-3.566.175-.506 1.157-2.294 2.935-5.35 1.794-3.063 3.79-6.375 5.99-9.944 2.216-3.578 4.257-6.887 6.122-9.947 1.863-3.065 2.972-4.762 3.316-5.1l.772-.765-.516-.507c.172-.343.416-.675.76-1.025.353-.34.6-.59.771-.762l.513-.766c1.869-2.209 3.566-4.422 5.094-6.625.515-.684 1.028-1.362 1.531-2.047.516-.678 1.1-1.437 1.784-2.293.169-.338.341-.544.513-.635.159-.087.419-.293.756-.634.347-.344.672-.684 1.028-1.028.331-.328.672-.675 1.016-1.019.344-.506.644-1.056.897-1.656.256-.594.559-1.147.89-1.653.338-.847 1.013-1.957 2.041-3.316.328-.678.684-1.106 1.022-1.281 0 .175-.041.3-.125.39-.088.085-.141.213-.141.375-.5 1.363-1.003 2.722-1.519 4.075-.512 1.369-1.106 2.729-1.793 4.085-.335.859-.6 1.625-.76 2.297-.168.684-.428 1.45-.765 2.293-.175.854-.347 1.704-.513 2.55-.172.86-.606 1.7-1.278 2.557-.853 1.356-1.481 2.8-1.909 4.331-.416 1.528-.803 3.147-1.144 4.844 0 .347-.044.684-.131 1.015-.085.347-.125.685-.125 1.028-.347 1.188-.728 2.379-1.144 3.566-.428 1.191-.897 2.466-1.413 3.825-.328.853-.681 1.781-1.012 2.806-.344 1.022-.675 2.041-1.028 3.06v.765c-1.006 3.566-1.953 7.222-2.8 10.966-.844 3.737-1.36 7.556-1.528 11.469 0 .853-.088 1.443-.26 1.793-.337.841-.55 1.729-.637 2.669-.088.931.3 1.913 1.153 2.935l-.256.509c0 .516-.088.853-.26 1.019v1.022c-.165.509-.297 1.062-.381 1.656-.087.594.044 1.147.381 1.659.347.678.807 1.406 1.403 2.166.597.765 1.313 1.315 2.179 1.659.846.341 1.4.891 1.656 1.66.247.765.55 1.568.875 2.421.187.338.303.763.4 1.269.084.516.284.931.631 1.275 2.213 3.569 5.35 6.031 9.444 7.394 2.034.853 4.031 1.281 5.987 1.281 1.947 0 3.866-.09 5.728-.253 2.05-.175 3.997-.512 5.875-1.028 1.863-.506 3.647-1.188 5.347-2.038.853-.343 1.625-.593 2.297-.765.675-.169 1.36-.428 2.041-.76.844-.175 1.953-.765 3.312-1.787.513-.509.932-.856 1.285-1.025.497-.341 1.012-.678 1.525-1.019.506-.344 1.015-.675 1.531-1.015h.256c2.028-.344 3.644-1.191 4.844-2.544l2.297-2.3c.337-.344.715-.681 1.14-1.025.429-.338.8-.678 1.157-1.016.672-.515 1.356-1.019 2.031-1.531.681-.509 1.356-1.106 2.041-1.784 4.584-4.254 9.521-9.994 14.787-17.213 1.978-2.716 3.925-5.584 5.856-8.528 1.166 2.431 2.669 4.806 4.6 7.125 2.21 2.556 4.635 4.628 7.266 6.25 2.637 1.612 5.822 2.331 9.566 2.166 1.868 0 3.731.165 5.609.509 1.859.344 3.741.422 5.603.256 2.378-.337 4.463-1.144 6.247-2.422 1.787-1.278 3.531-2.593 5.225-3.953 1.703-1.362 3.275-2.894 4.728-4.59 1.428-1.697 2.841-3.404 4.197-5.1l1.531-1.532c.169-.172 1.528-1.903 4.081-5.222 2.557-3.318 5.782-7.943 9.694-13.903.831-1.272 1.71-2.634 2.6-4.022-.265 1.704-.597 3.388-1.072 5.044-.856 2.388-1.315 4.847-1.4 7.397-.084 2.55-.297 5.019-.643 7.394-.157 2.212-.288 4.372-.385 6.5-.075 2.128-.287 4.297-.631 6.5 0 .344-.038.647-.128.894-.085.262-.125.556-.125.896.172 1.694.297 3.354.384 4.972.088 1.61.213 3.191.369 4.719 0 1.184-.069 2.331-.244 3.441-.169 1.106-.081 2.165.244 3.184.687 2.888 1.291 5.691 1.787 8.416.513 2.718 1.285 5.356 2.297 7.9 3.238 6.803 7.913 12.587 14.022 17.34 4.256 3.403 8.55 5.06 12.888 4.975 4.328-.087 8.703-.89 13.128-2.422 2.212-.856 4.328-1.787 6.381-2.803 2.028-1.025 3.813-2.468 5.341-4.34 1.881-2.207 3.865-4.291 5.997-6.238 2.125-1.959 4.125-4.05 5.993-6.25 1.188-1.359 2.203-2.85 3.057-4.462.856-1.622 1.7-3.191 2.543-4.722.853-1.703 1.578-3.485 2.185-5.353.581-1.872 1.481-3.657 2.668-5.357.229-.278.394-.593.588-.893-.038.334-.025.693-.078 1.025-.169 1.106-.081 2.165.256 3.184.684 2.888 1.278 5.691 1.788 8.416.503 2.718 1.271 5.356 2.284 7.9 3.241 6.803 7.912 12.587 14.034 17.34 4.244 3.403 8.538 5.06 12.863 4.975 4.34-.087 8.715-.89 13.15-2.422 2.203-.856 4.328-1.787 6.372-2.803 2.04-1.025 3.822-2.468 5.347-4.34 1.875-2.207 3.862-4.291 5.99-6.238 2.128-1.959 4.125-4.05 5.994-6.25 1.187-1.359 2.203-2.85 3.056-4.462.856-1.622 1.713-3.191 2.553-4.722.844-1.703 1.572-3.485 2.175-5.353.594-1.872 1.469-3.657 2.669-5.357.853-1.025 1.444-2.212 1.794-3.565.334-1.366.844-2.638 1.528-3.822.331-1.028.887-2.044 1.656-3.066.763-1.022 1.231-2.04 1.4-3.056l12.75-39.781c1.528-4.931 3.097-9.816 4.722-14.656 1.606-4.844 3.063-9.185 4.331-13.007 1.272-3.828 2.297-6.968 3.057-9.437.771-2.456 1.231-3.86 1.403-4.203.853-2.038.765-3.997-.26-5.863"/></g></svg>
